<mxfile host="app.diagrams.net" modified="2020-10-13T09:01:33.719Z" agent="5.0 (Windows NT 10.0; Win64; x64) AppleWebKit/537.36 (KHTML, like Gecko) Chrome/85.0.4183.121 Safari/537.36" etag="vE6k6yhyvSaCSfmO7D4E" version="13.7.9" type="github">
  <diagram id="R2lEEEUBdFMjLlhIrx00" name="Page-1">
    <mxGraphModel dx="2580" dy="1932" grid="1" gridSize="10" guides="1" tooltips="1" connect="1" arrows="1" fold="1" page="1" pageScale="1" pageWidth="850" pageHeight="1100" math="0" shadow="0" extFonts="Permanent Marker^https://fonts.googleapis.com/css?family=Permanent+Marker">
      <root>
        <mxCell id="0" />
        <mxCell id="1" parent="0" />
        <mxCell id="0s9ulUNGyoIBabNM_9_8-9" value="" style="shape=image;verticalLabelPosition=bottom;labelBackgroundColor=#ffffff;verticalAlign=top;aspect=fixed;imageAspect=0;image=data:image/png,iVBORw0KGgoAAAANSUhEUgAAA0AAAALVCAIAAABm3RZRAAAWJGlDQ1BJQ0MgUHJvZmlsZQAAWAmtWHk0VV/f3+fc0b3XNc/zPEWGzJlnkiFzits1T3ENCRFJmSNJhoRKUpSZSKE0yJQpqUiKNNAgGfIe9eT3vGs9zx/vWu9e657zud/zPXv67H329/MFgDOGEhwcADMCEBgURrM10Rd0cnYRxL0EEOAEMGADvBRqaLCetfUu8F/L0gjijZSnspt1/Ve3//yAycMzlAoAZI08PuARSg1EcB3yO0oNpoUBgNqB2EUPhQVvYicEs9KQDiJ4sx1W7z/46CY+8Afn/PaxszVAfK4AgCdRKDRvAIh1iF0wguqN1EMcAgDLHOThGwQA0yyCtak+FA8AOCURn22BgQc3sR2CJQ/8Wz3e/4YplANbdVIo3lv4z1iQN5GGDX1DgwMoh3//+f+8BAaEI/P1u/AjV1Ko/x4L5I5H5iySSjHa8xf7eJptcvbbHhymb/sX+4aZbY7tt90n3NT+Lw73t9f7i/0PWmz5Bx3YbfXXTg01QOb+z7tRPnaOf7GHp6HRX0w7aLvlHxqxZ8se5WOw+6+PH8V8k+/ffaDQEPQv7BlgstVucJj1Vj+DAnZvjcWLZrzl4xn6z3jDfOxM/9YTRrPb8vHyNTb7a/ehmW7ZgwN+r+nffaCF227Ng2eQ/dYcelAMt+YW+AJLQAHUMM/IsM0OGxwMPkzz9fYJE9RDVr3nNkGzIKrcNkFFeYUdYHMPbfoA8NX2996A2Pv+sdFGAdB2AwDN9Y9tPzsAVxeRdRf7j01sDgD2GwA05FLDaRF/6kNv3jCAABgAK+AC/EAESAJZoAhUgCbQBUbAHFgBO+AM9gMq8AGBgAYOgRgQD5JAKjgFzoB8UAzKwBVwHdSARtAK7oL74DHoB8PgOZgEM2AeLIAlsApBEA6ih1ggLkgAEoNkIEVIDdKGjKBdkC3kDLlD3lAQFA7FQMegVCgbyodKoAroJtQM3YUeQgPQM2gKmoO+QCswCibBrDAfLA5vh9VgPdgCtoP3wd5wCBwFJ8IZcB5cCl+DG+C78GN4GJ6E5+HvKIAiothRQihZlBrKAGWFckF5oWioWFQKKhdViqpCtaC6UU9Rk6gPqJ9oLJoFLYiWRWuiTdH2aCo6BB2LTkPno6+gG9Bd6KfoKfQC+heGHsOLkcFoYMwwThhvzCFMEiYXcxlTj7mHGcbMYJawWCw7VgKrijXFOmP9sNHYNGwRthp7BzuAncZ+x+FwXDgZnBbOCkfBheGScOdw13DtuEHcDG4ZT8QL4BXxxngXfBA+AZ+Lv4q/jR/Ev8Ov0jHSidFp0FnRedAdpsuku0jXQtdHN0O3SmAiSBC0CHYEP0I8IY9QRbhHmCB8JRKJwkR1og3Rl3iUmEe8QXxAnCL+JDGTpEkGJFdSOCmDVE66Q3pG+kpPTy9Or0vvQh9Gn0FfQd9J/5J+mcxCliObkT3IceQCcgN5kPyJgY5BjEGPYT9DFEMuQy1DH8MHRjpGcUYDRgpjLGMBYzPjKON3JhYmBSYrpkCmNKarTA+ZZplxzOLMRswezInMZcydzNMsKBYRFgMWKssxloss91hmWLGsEqxmrH6sqazXWXtZF9iY2XawObBFshWwtbFNsqPYxdnN2APYM9lr2EfYVzj4OPQ4PDmSOao4Bjl+cPJw6nJ6cqZwVnMOc65wCXIZcflzZXE1cr3gRnNLc9twH+I+z32P+wMPK48mD5UnhaeGZ5wX5pXmteWN5i3j7eH9zsfPZ8IXzHeOr5PvAz87vy6/H38O/23+OQEWAW0BX4EcgXaB94JsgnqCAYJ5gl2CC0K8QqZC4UIlQr1Cq8ISwvbCCcLVwi9ECCJqIl4iOSIdIguiAqKWojGilaLjYnRiamI+YmfFusV+iEuIO4qfEG8Un5XglDCTiJKolJiQpJfUkQyRLJUcksJKqUn5SxVJ9UvD0srSPtIF0n0ysIyKjK9MkczANsw29W1B20q3jcqSZPVkI2QrZafk2OV2ySXINcp92i663WV71vbu7b/kleUD5C/KP1dgVjBXSFBoUfiiKK1IVSxQHFKiVzJWilNqUlrcIbPDc8f5HWPKLMqWyieUO5TXVVRVaCpVKnOqoqruqoWqo2qsatZqaWoP1DHq+upx6q3qPzVUNMI0ajQ+a8pq+mte1ZzdKbHTc+fFndNawloUrRKtSW1BbXftC9qTOkI6FJ1Snde6Iroeupd13+lJ6fnpXdP7pC+vT9Ov1/9hoGFwxOCOIcrQxDDFsNeI2cjeKN/opbGwsbdxpfGCibJJtMkdU4yphWmW6agZnxnVrMJswVzV/Ih5lwXJYo9FvsXrXdK7aLtaLGFLc8vTlhO7xXYH7W60AlZmVqetXlhLWIdY37LB2ljbFNi8tVWwjbHt3sOyx23P1T1Ldvp2mXbP7SXtw+07HBgcXB0qHH44GjpmO046bXc64vTYmdvZ17nJBefi4HLZ5fteo71n9s64KrsmuY7sk9gXue/hfu79Afvb3BjcKG617hh3R/er7msUK0op5fsBswOFBxaoBtSz1HkPXY8cjzlPLc9sz3deWl7ZXrPeWt6nved8dHxyfT74Gvjm+y76mfoV+/3wt/Iv998IcAyoDsQHugc2BzEH+Qd1HeQ/GHlwIFgmOCl4MkQj5EzIAs2CdjkUCt0X2hTGigQrPeGS4cfDpyK0Iwoilg85HKqNZIoMiuw5LH04+fC7KOOoS9HoaGp0R4xQTHzM1BG9IyWxUOyB2I44kbjEuJmjJkevxBPi/eOfJMgnZCd8O+Z4rCWRL/Fo4vRxk+OVSeQkWtLoCc0TxSfRJ31P9iYrJZ9L/pXikfIoVT41N3UtjZr2KF0hPS99I8MrozdTJfP8KeypoFMjWTpZV7KZsqOyp09bnm7IEcxJyfl2xu3Mw9wducVnCWfDz07m7cprOid67tS5tXyf/OEC/YLqQt7C5MIfRR5Fg+d1z1cV8xWnFq9c8L0wVmJS0lAqXppbhi2LKHt70eFi9yW1SxWXuS+nXl4vDyqfvGJ7patCtaLiKu/VzEq4Mrxy7prrtf7rhtebqmSrSqrZq1NvgBvhN97fdL85UmNR01GrVltVJ1ZXWM9Sn9IANRxuWGj0aZxscm4aaDZv7mjRbKm/JXervFWotaCNrS3zNuF24u2N9qj273eC73y46313usOt43mnU+dQl01X7z2Lew/uG9/v7Nbrbn+g9aD1ocbD5kdqjxofqzxu6FHuqX+i/KS+V6W3oU+1r6lfvb9lYOfA7UGdwbtPDZ/eHzIbejy8e3hgxH5kbNR1dHLMY2z2WcCzxfGI8dXnRycwEykvGF/kvuR9WfpK6lX1pMpk25ThVM/rPa+fT1On59+EvlmbSXxL/zb3ncC7ilnF2dY547n+93vfz8wHz69+SPrI9LHwk+Snus+6n3sWnBZmFmmLG1/SvnJ9Lf+241vHd+vvL5cCl1Z/pCxzLV/5qfaze8Vx5d3qoTXcWt661HrLL4tfExuBGxvBFBrldyyAQq6wlxcAX8oBoHcGgKUfAAL5T4z72wMJgZHAHEawDOiC9KBmeCd8B7Ub9QYdhmHA1GM9cQK49/hGumxCFNGXRKX3JUcynGa8yTTOQseqwXaQvYpjiUuNO4qnmXeNX0OAJnheqEV4XGRNTFjcVCJQMkfqlnSPzKVtNXLm2znkAxXuKi7tEFP2Ubmuek0tT/2URpFm9c5qrQRteR1m3W36BANXw1yjPhMm071mV8xXdllZXtz93drAJsN21E7A3tHhpGOj05Tzxl5WV9F9Svv13GzcPSiRBzKolzyaPQeQ/bnmS/bj95cJUA5UD1I/qBQsE8JHI9GWQ9+EvQifi1iPZDwsHCUfvTPG8IhZrHmc6VHD+J0JisdEEhkT147PJg2daD9ZkXw6JS21OK0tfTTjQ+ZGFimb7TRPjtAZkVzxs1J5cueU83UKLAvdiw6dP1Ncf2GgZLp0tmzm4qtLzy9PlL+6Ml0xd3WxcuU6uoq+mv0G/02xGunabXXS9RINIo18TRzNTC10t1C31lq/tc3fnmofudN9t7Hjcmd2V9Q99/vG3dIPSA/mH957lPHYvoevZ/ZJY29yn1u/+gD7wNLg2NO2odLh5JGQUecx3Wdi48TxxeejE7dflL/MehUz6Tvl9Np0Wv2N1AzPW+Lb1Xfzs+Nz3e9r54s/nPqY8inlc/pC5mLGl+Svx75Ff6ct+fzYv2z/03LFbNVkzXTd/JfhhvTGxr/4D4YF4PMoZdQoOhjDhGlA2OfHTeKr6I4SXIlGJFV6ebIagzGjE1MQczLLNdZRdgzHDk43rizudp5FPlF+a4Gof+PfUMJHMkPqhvRdmQvb0mV75L7K71Q4qnhVqU+ZVcVelaQ6rTak3qPRqdm4s0RrWrtaR00Pq/fTAGeYb9RlXG8yayZtfmFXimWvFWStZLPPNn7PRbtO+0mHJSe8M4eL6F55V819pvvt3Q64H6TEHUin5nuUe9Z4tXl3+/T6PvUb9R8PmAicCHp2cDj4acgAbTj0bdhqBPmQYKTcYY0o/WiTGNMjxrH6cRpH5eOFEsgJK8feJg4eb0sqP5F1MiW5KOVW6lDaXPpqJvYUKYucTTqNy4Fyfp5ZzJ1DvoDPzo3mjxZMFE4XzZ5/Xzx7YbpkonSs7NnFiUuTl9+Wf7ry4ypUSbjGcp2nSrha4obUTYka0VrBOu561gZyI7YJNP1sXmyZvfWy9Wlb1+269rI7mXcPdezrNOiSvEe49+H+k+6qB5kPaY8cH2v3iD9hePKz923fYH/7wLXB3KfxQ/7D9iNaoyJjhLGlZz/GVyfAC8xLwiv6SfIUw2v6acIbDPJ1WXz75t3IbNfczffF87kfSj7e+jT++cci0xfRr0rftL7rLxn9MF42+mmwYrBquGaybrbFvwNkBHPBx1BkVDZaAl2HMce8xUbjuHGt+EYCmlBNdCFhSbX03mQB8gDDBpMe0ypzI0s4qwPbOHszxzsuI24y9zCvCJ8vv6oAWjBeqEQ4VMRLjF5sXvyuRJ5ko7Sh9LrMomyCXO32U/JRCoGKckpkpYUdT5UbVPJV49SyNYw0GjVldqJ3ftR6pt2lU61bqJeiH2ngZehoZGqsZiJjymvGYI4yX7b4uOusJbNl3+77Vu3WTTY1ttf2lNuV2p93KHA863TGOccle2+Wa/a+7P2R+3+65bqfoxQeuEA95oH1uI6sjkxvFmR99PmO+l3yl/L/ErAWhAu6c9A4WDpENWScRgl1CwsKWw5Piyg8lBXJHdl7eDLqS3R7jNkR6SMvYn3ivI7GxCcnsCa0HRtKnD/elWR9QunkrmTPFHRKXmptWm/6rQyzTMFTWlku2ejsnNM1Of1nFs6Sz77Oo50LzM9AzsmBogfnnYtVLjiXHCm9UKZUNnuJdFnh8q/yrCslFd1Xeyrdr+287lGVVl1/48XNiZrgWqe6hPrrDWNNcLNci8utpNaatlftpDvqd707znR2di3eF+q2ehD3sPrRqx7GJ7q9IX1qfUMDmEHVp35DRcO2I6hRlTG/Z8XjQxP4F1qv8JNXpybfcMw0vUuay56HPgZ/9l60/npnSWl5dY3rV9rm/v+T69g8E7AqABTfBsCJDgDLJgDOInkUcURbsyJnhzU9AHbqALaLArARP4DON22dHzCgQ/SmMNgBTIArCAEnERXZiKjGOQgF8SHK0A4KhtKhSugRNAfTwVKIyguCs+Em+CUKi5JH7UWloW6jFtFiaBf0KfQDDITRRDRYK5YP0Vth2GEcPc4UdxLXj+fE78cX4Rfo7OlaCBwEGqGfqE18RrImVZPm6EXoY+mfkzURffOTwZGhgZGNMYxxiEmZKY9pHVEsT1jUWC6yMrOeZIPYYthW2GM4sBxnOCU527jsuT5yH+cR4GnhtUc0RA6/Mv8zgXhBGcFnQqnCesLrIu2iJ8TsxCUlYInXku1SqdLWMuwyr7Zdkz0iZ7t9mzxRfkFhXPGBUtuOeuUmlXbVR2pj6nMav3ZyaAlrs+kAnQUkdp7UnzR4Z/jdGG3CZapkZmnua5G0q8SydfeQ1XvrX7bkPfx2ivY2DvGOt51RLhZ701379jO72bmfpTynCnh4e9702vCx8r3otx5ACXx4UDn4Mo0nNCucISItknT4VDR3THmsetxQfOgxzsT7SXEntZI3Uh+nX8hMzMo9XXvmwdmRc5MFr4rGi/tK7pbdvFRWfrrieGXM9ejqIzfjak/Wn2o801x0q6ytor3y7s3Olnud3YMP3zxe6WXpVx3cP5Q8cmnsxnjdROPL9smR199muN4ZzNHmL30cX2D+ovctaOnccsfK53XH3+cHDLBIxoEbSAGN31mQCJAOLiLZg2HwCcJDIpAO5ApFQXlQIzQKLcM8sDZMhZPhG/AYCkbJ/S/+s9APMTBGCxOFacfyYx2xZ7ETOE6cI64AN4uXx4fi6+iU6M4TAMGT8ATRwzeIr0nXSbP0ovRVZCayE7mAQYEhn2GD8QDjHcYNJm2mMmZG5njmryx+iDqlsE6xUdlm2cM4II7TnBKct7kcuRa503lkeB7z+vOR+er49wrgBGoFqULsQk+ET4gYiqJFu8UyxF0kJCSWJO9Lpf+fuZ/Vm9KfNvho+MuY1UTB1M4syvyixYAl2K1k5W6dYdNsO23HYK/nEOPY9v/E/KP0gszgLNPTIjnruSN51/ITC93Oq1xgKvlY1nOprvx8RWpl7PWY6uibkbVm9ewNM00NLcmtlNt6d0Q6iJ0r9z51Lzz80YPp5erXGHQbOjFyaixs3HiC/cWHV4+maqfLZ8rf1czdn5/6BBakvth8O7RUtNy5srDu9Jt/CKAAEbADMaCK8O8JQpGMUjGSO5qBiJAyZAFRoFNI5uc7zAjLwB5wPFwMT6B4UVooN1QZ6j2aAb0DHYd+gv6O4cMEY7qwPFgTZN+/wsniXHFpuE94W3w5nSBdCt0SwYMwTDQhthKXSPJIlqOULEQuYRBlqGDcztjEZMDUx7yP+RPLUVY21ko2A7YX7Ic5GjidONe4SrhNuRd5CnnNeJf5riAsMwjcEzwipCr0RfiGyEHRr2KN4rESxpKMUhXSh2XMty3Kdstd2H5YQUmRWfGr0rDyBZUTqiHqZhpqmpJaZG2U9qruJ733+rMGs0YfjBdNN8zpLFh3Ce3WtbK19rKJ3lNpd89+ymHDWceFsve4a+X+VXcxiu2BOI9JL2ZvE58Y3zq/j4EeQaUHp0KEaZ6hFREqh+IiH0axRVNjUXH2RyviNxKrk+hOeJ7sSI1Pm84wybyWxZwdffpNbmuezLmCAlJhXNG3Yr8LU6UuZcOXbC73Xdld0Vtpc22oyqV68qZvzZe62AZi47lmqZaWVsu2qfZDd8ldevdedEc/5HrU0rO3r2zAfHBxqGDEaHTxWfHz3RMbL8Ze3pz0eM31+tt0/8zJtx7v9GbX5sbfN3+I+OjwSeUzOxI9NH/J/xrzzQ2JHsR+4H98WO7/6bsCreSvxq15rlv8UtjkP9RLSXHz9AAQSR9JP77c2PgqDgAuG4D1rI2N1dKNjfUyRGxMAHAn4E/+fNMZywhA4WbO/j+W/wEaYmLzQL0QgAAAQABJREFUeAHsnQdcU9cawA8QkkCYyhAERAEhVBBQUcG6cFDUOqhP66g+xVeVqpSnOOrWauW1WG21VrG1Ra0WrVKBAu4BClpUtAQBFQEZyoZAQi7wzr0ZhCkghiR858cvuffM7/ufm+TjO0ulrq4OQQACQAAIAAEgAASAABBQHAKqiiMqSAoEgAAQAAJAAAgAASBAEgADDp4DIAAEgAAQAAJAAAgoGAEw4BSsw0BcIAAEgAAQAAJAAAiAAQfPABAAAkAACAABIAAEFIwAGHAK1mEgLhAAAkAACAABIAAEwICDZwAIAAEgAASAABAAAgpGAAw4BeswEBcIAAEgAASAABAAAmDAwTMABIAAEAACQAAIAAEFIwAGnIJ1GIgLBIAAEAACQAAIAAEw4OAZAAJAAAgAASAABICAghEAA07BOgzEBQJAAAgAASAABIAAGHDwDAABIAAEgAAQAAJAQMEIgAGnYB0G4gIBIAAEgAAQAAJAAAw4eAaAABAAAkAACAABIKBgBMCAU7AOA3GBABAAAkAACAABIEADBEAACAABICBXBKrvplYnpMqVSCBMuwjQXfvTh/RvVxHIDATaSwAMuPYSg/xAAAgAgXdLAFtv3APh77YNqP3dEpgMBty7BQy1IwRDqPAUAAEgAASAABAAAkBAwQiAAadgHQbiAgEgAASAABAAAkAADDh4BoAAEAACQAAIAAEgoGAEwIBTsA4DcYEAEAACQAAIAAEgAAYcPANAAAgAASAABIAAEFAwAmDAKViHgbhAAAgAASAABIAAEAADDp4BIAAEgAAQAAJAAAgoGAEw4BSsw0BcIAAEgAAQAAJAAAiAAQfPABAAAkBAyQkwjmw3urwIvu6VvJtBvW5GAD7R3azDQV0gAAS6IQFNXRVD/W6oN6gMBJSYABylpcSdC6oBASCgDASw/0x3EBIUs+gmLKyP4NrpouVXKcUstMI/Y/XTIa8rcss27Km6xMOXzINrdUb3VaFyEI8vl94w0nNmIGRjmHQA0UpLP95Q7ThT/3MPGpPMUVeRW7FjT+UFsiAEIAAEFIgAeOAUqLNAVCAABLojARVNpgrTSJ32qiIkipfLVx89S2eJHgahGb6W1Y/Fi/ijeO9lAdNEZ/9adQOkusRXd3RfIjaqZO/pitgsNWsLlPiA/7oGobLKC9cqIhKIl0566z1oxZzSvSGlpxNqmCaMAUbdESvoDAQUnAB44BS8A0F8IAAElJ8AAxFpBaO+qcWa7s6gJS9ljnctu4JY/dRqYn8qXZOAo4ueI+P9HqxPjMuqyW91wcPH/CPp/CNXuRScquwZDP2X3C9CyRqsxqghRGSlVx+JrUWxvG0/UVngBQgAAQUjAB44BeswEBcIAIFuSYAQa50hqBBeCuqwHfbwhSj+QQ52siHEqE3k4Kyay1cbJx8yStiu7W+NY1WQ1P/qT+9XPuPTXKcYJh8yTvpG/9g0+BkQMYQ3IKBQBOCTq1DdBcICASDQ3QkYqGkhpK6OtNTx17eKNp7cRgVdOp70Rs57i4sptF9XdPACN5ZTQzPS9FnGtBJlEb+VcCevKlgbUh6RUP0a0V09dbeQRh4EIAAEFIsAGHCK1V8gLRAAAt2QAPapMfG4Jw7qW6bS8QhpwhP0MFuAEN3TUxjPWDESf5sLsl6pzp+pvcVS8H1ExZJ9xcfTEKKpkAYffteicjJVrNx1js1EF2Ir1/xUPCsau/HUzIy7IVNQGQgoOgEpv7qiqwLyAwEgAASUk0ANovXtkXxIqFxdZlzp7nR8XXrwkeFyF4PkA7U8NVUmqn0cVRHKU/W30JzloTmrpo6HVLDVV5zIf4hU7jxDA9hUDTXln4UxXT00kj3qeHwVJnbgcSt/jlVObKAVEFBqAmDAKXX3gnJAAAgoAwHsO3tVHhyv0lOzrjCtKugBdpvhUPv9gVcp7qxZTqrqgpp7t7jfJ5ORQQcKX49kDDJTY6EaTmKlMHPQvoLySRrv9awrzuJducpb+Yo50ZGmx6wteck7FEE8paqDFyAABBSKABhwCtVdICwQAALdkQANEYW8oAhyDWnDUHcptuJSI/8ZjwiJIUIa5kOo5kiEaPEDTrn0oPLSg8Y54B4IAAGFIgBz4BSqu0BYIAAEuh+BOgEXFVd1P71BYyAABFojAB641uhAGhAAAkCgywnwF27I73IhQAAgAATkjAB44OSsQ0AcIAAEgAAQAAJAAAi8iQAYcG8iBOlAAAgAASAABIAAEJAzAmDAyVmHgDhAAAgAASAABIAAEHgTATDg3kQI0oEAEAACQAAIAAEgIGcEYBGDnHUIiAMEgEC3J6AywlbdzqjbY+hMACqCmjp14aEVnVltS3WpGOi3lATxQKCzCIAB11kkoR4gAASAQOcQqOtnJDASH3LaOVV291rU6QxBNV9mFOhaujJrCxrqtgRgCLXbdj0oDgSAABAAAkAACCgqATDgFLXnQG4gAASAABAAAkCg2xIAA67bdj0oDgSAABAAAkAACCgqATDgFLXnQG4gAASAABAAAkCg2xIAA67bdj0oDgSAABAAAkAACCgqATDgFLXnQG4gAASAABAAAkCg2xIAA67bdj0oDgSAABAAAkAACCgqATDgFLXnQG4gAASAABDoAIEKTmgv0z6SP+9F63+9mkIIK+I93YyTVoRWSNWbGLIeZx675SJPKhIugUCXE4CNfLu8C0AAIAAEgEBrBAhuYQnBNNBlNczET4z483W/sRPZPRvGw90bCVTjHO7ei91NmSXFaYePn4yNOnllx/lji51RTVUmTsutrhHXwTm33mvtSeS2/uSm8UxxJLwDAXkgAB44eegFkAEIAAEg0CKBpMMuA9jBpY3TicSg1QuukvbGuwu8jEhvj+0c7rtroctqnrp8rf/6gO2BR7Lvh3ojFLXpYBJWUw2RZrKOSKqMmMAxvicR2//OqaW9wN3RZX0FDTdPAAy45rlALBAAAkBATgj0n3PjZtw86bOZCHLAj6alj+wZ6m8hJEHwqJpaqaKqOJaTLJDdIaKtiNLJSdWEaESUZuzywTyyctEoKr4qQ/ggs7xbh4YtPICQ782IVZZgvXUyfqiuEwiAAdcJEKEKIAAEgMC7I5B775d1PycKzY3s+BPepn3MLPr08vjQLw5ZtNoqLz3S23TJgaOBY6kpX2MDQvPERkrGLVyPlVk/KzPT2b/GvxRWw4k4JMyJp3ytORrH46Vs8tiA0O0Jkybi+DXnnrbamoIl0mkSo+xlwvGGwpto5XHCnP61G6HFMWkBNjB02hAP3MkJAckTLCfygBgdJFB9N7U6IbWDhaFYVxOgu/anD+nf1VJA+3JKgChKjr1lTp7EnhE5ePoG+3lbI+cPqcy8u3fJ1tYlJgTFsSgmdhPr2xOhxiXXPvZd7WtpfXa5cwXnxLB/bfBc88PNmbZPQr/yme5Gv5w8TT1yzJLdKw+E/uigk/8oevOJJ/zFM7x2TA/ZxNnpv8FOE2n2NWi9OcVKzU5JzdDQKct/Fv6jz2GE7FfMc8Sjp0Iz+ezKYWdJbTadW0VGQgACckkADDi57Jb2C4WtN+6B8PaXgxJyQmAyGHBy0hPyKgYdD2MmR+5DaP3vgf8mLSkHu2y3rdjyeFMYHpn2rQtphbhG5l72OvugdLlD4vkNiL31+8+9tBCy+fzbneH2h6+mTh5TjTM52lnZWPe0sba7Mp2sePioIXgs0X3iKLbS/Vbs9522n1SRDO5L9v+4flRTFXdMXz3w/g8jjJumCMvBKxDoSgIwhNqV9KFtIAAEgECbCXAfX0lBaxzFfjA+Nrj021BYYn30MGHj7GqIn/U3svd2wtYbFRh24+ySd8bXmA78D0I+Hi54/NR70fbwR4U4lRCQWQSk90/Zwsoj5+/ciL56+coDTurZbVPFVIVqLr6Z+eLq3jkIxXzkvIsD24coW+criT5gwClJR4IaQAAIKD0BOl4dmVsinsZGoyNU3B6dqyrycHa8QQauJ5mTK66n5lVaCvK2YOgO2J6Teu/y+V8O7OpXdtRn4rokkeGijY0+5Qtm/fpbWtux2Va9dPGKhYbBk21CQ+xZO86sGY7Q0THzDpHgIAABOSMABpycdQiIAwSAABBongBr4JgJ6HhMUiFpehVwbkTFtcUDV1xWQTrQiML7v629jcbZ6iLWoCnT0dmYv/PJeoj8v/+MQt5j3yMy4sLjC8zYzhOnz92yZStC5YRoM7SY5OfkPiJigw9fKkOobm0BLjmajNf5jvj86MF5CMXtdgoIq1AGpUEHpSIgca4rlVagDBAAAkBAaQgIym8jzmhsTbE/XO65dpqXwzmJavZ8aoxTct/MRcpHzpL1MXNilrvhLDYffB7AHjnV+Zy75/DYqNvkPmdT+iDOFZ/pHyNk5+6GYuOwT25/fxbSshmBx1X9POz98DT/jeevLHdupgWFiyJI+6x5cjUC0tn2QrKRL2tGYELuM9cdx1daa2imbxsvHndWOJ1BYCUkoFJXV6eEanU/lSoOhMMiBsXtdpbvZC3fyYorP0jeuQQqyku5FaWSOiuynz7j6TlaUyculL6IvpJQjIwGjRysXfycp29j2bPJCKC4JF5tau3xa3D0PsOCrEp1E4dhAwzq/2cvTboam/yKq2XEfn/MAGqTOaIgI+VRamYxFxlZDxzm0FuUl/vyVkI6UlfvaTOQbayoazLV6QxBtWgqH1H64k7iS2MXVxvdehxiZlxO/MMyzT5DHXqLY/DS1Jfx914IkIbdMGcpgPXpTa9YWrpa2tI79zXNAjFA4G0JgAH3tgTlpDwYcHLSER0TAwy4jnFT1lKNDLjW1cw4t32Y79Fm8nh//XB59UCPCzHPTjl2+53MpA24Zlh1dhQYcJ1NFOprhkDT/z+ayQRRQAAIAAEgIJ8EzD5Y9fi+L2r6XU5jar2+hFBfddFUNvkUH6QCAkCggwSafug7WBEUUxoCKgOt1VjlRFy+0mgEigABJSZAY+oatORg052alzNViXUH1YBAdyYAq1CVsveNda5/o/OZccd0Y365umewjzLuG9AxHlAKCAABIAAEgIDcEQAPnNx1SWcIxFfRZ6niTaI6FPg//lSiVwSjLh2CB4WAABAAAkAACMiCABhwsqAs2zb0tK9/ycQdu3Cz0UI1VP6owP1A3bhJ+rumqFMr4GuexBVP/xXbZ4wj23UHIUExi25CriwTXDtdtPwqvlD/YLKubXpBSHot3gfJf5HeQlc18jGpIZ78Xbrkp9oPZup/7kGjhmzqKnIrduypvAD7lMu2h6E1IAAEgAAQ6PYEwIBTvkeghBcWT/dxU0n5uyqtClVn1hm49tg/hUbkVuz9q6b/+zqT3HqeK3s1/byKJlOFqaNOe14R8oQ2bgxz9CydJffLjpSo6OqqGBqqIKS65D89fVzqXnPKQpNUB7ppuQ+i905krveg5XJKT91DprYsb1fGAKPKC5nKBxE0AgJdSCCbQKkEfDl3Zg9o1NVV1cgOaX8C2XWm+FAXEGiGgOwe6GYah6h3Q0AQ9Cex0E31xh/c70twC6qfraKhmvKl2yrj8F1CnWGgnqsb0+o89sEhIq1g1DfY04Z2Z9CSlzLHu5YdiaGEIuoQU8PbBR/cUzxqH7VV6FWulZ4KcsbOOiIrvfpIbC2K5W37icoML0AACHQmgQxBzdXSys6ssdvXZcXSeMqtkhkGOoMJBpzMaHfbhmARg1J2PQP7z8jzDqmgZoKHTtXIGCoIYl9g001FtKG45HScDEHjk2J0aaao7sm9+o3en5bUPb1f+YxPc51imHzIOOkb/WPT4AESc4V3IAAEgAAQAAKyIwC/v7JjLfOWRNuO1xTiOWr8GvGuIKqmes1JYqCGTTp1demkOh5SMeotsfyopBLu5FUFa0PKIxKqXyO6q6fuFmvpInANBIAAEAACQAAIyIAAGHAygNwFTdQRSP394WTDBsy6rNfY5aa5wp2Sw0JzrDkicgQP8R12vzGF24Wob5mKF60KEp5QeYQv+fzkMqT/HmsJtR2JgQXryCL6cHedYzPRhdjKNT8Vz4rGp7CpmXVwsxKphuASCAABIAAEgAAQaB8BmAPXPl4KkruUyKlh2noaJ3si9LzAfl/5zIHaE+YbJ86oY7KwR63q4DFsu+GJcYjWt0fyIaFSdZlxpbvTyWtNBqIxcTb+6jPVVxaxPt/GWoFzYkuPX/ZbNtPVQyPZo47HV2HiExi5lT/HKggTEBMIAAEgAASAgPIQAANOefpSShMed/IXNVs+UNdHNekPaxGv8l//FXw2U2OwERIU8X8+x48TbvyBbbJX5cHxKj016wrTqoIeYI8aDtUnQ0r18sl94AoSih1fMNaPVDfXrsvPrr54QxDH4698xZzoSNNj1pa85B2KIJ5SZeAFCAABIAAEgAAQkCEBMOBkCFumTZXwtv0mvT+b4PvQ+uUIIkloiCjkBUWQq1ClQm1orFTBfP7uUNFkOipP7aUHlZceSGWHSyAABIAAEAACQEDWBGAOnKyJy097dQIuKpbdunr5URwkAQJAAAgAASCg6ATAA6foPdhx+fkLN4hXpna8EigJBIAAEFAsAtVpZw/OWNdE5tnz7u1Af60+vgnNif/aSFOUXp124c8Z/tmITDXA834hAAG5IQAGnNx0BQgCBIAAEGiOQG1lEZ9gaOiQR95JBX7exfBKyzH9bHpIRXbiJcEvKkMsHQZD+X4mqjEms7GzDXszCdF8EZ6AaY0V5eNxCalQm3uZst5sJ0WuA+tNCgxcygUB5ftkygVWEAIIAAEg0FkEXv069NSBVcsefdbQAUTkHVp3bXKoX8sGHJEVdd7v79EhXxiI/UntEKny8Q+jZiLfUL+lTu0opThZbT/b6GDTkCheaS8tf9HtiAlLsxH64I/TNuaNrGfpfHANBLqGABhwXcMdWgUCQAAItJFAD+/Ln0zSkrY1amuQqhqNrocM6A02325cIa84OzWlVrjZY30aUYvtFAbtDTOgNdmL/wxHupb15brPFSZW+c/lUZ/gRfYeJ+7Z2oD11n36XpE0BQNOkXoLZAUCQKAbEqh4EHLl/rBpAR74+7o88bfoBZuxWwj1t0WpyGpsyzz4T67P2IyTT86ZbJD6xGRPlIeXVUn8b5d8qOJomMcvexxcTHGGosgvI88iG9vs2yGX8O2QoHD38baoJj955069jYdse5CmY1Vy1PVNK1JS8aWtg/9nbp94ajS2C3GSIoWXl/+gp9FryNFUVCNgWX7oqS2ykVmI+zR+ybRHCI3+JdbBUVeRtAJZuxMBMOCUpLdVRtiq2xkpiTJyoIaKoKZOXXY/UCoG+nKgNIggpwRqS1Ky483IrRmzoo4u2Gwwc+PsjwYLXt6L99/ZmsSMXlbrpj76KmX00oCemkjdwqA67bdjPputfL/7ZKpNYdjXEQtGqf3xwN6GVcstLkgIQ30CvE8sLonad9l/ssGfj22Ny7MS7jCq8J7fiHh+4cdZ/gYzt8/+ykWQdvHs2u/tZnn27sCwbGviyjot5cDmlPo2bWdO8tQmb7GzLezkqDDycuYhJxf4UiVJQJBPAmDAyWe/tFuqun5GAiPpMZZ21wAFpAmo0xmC6gbzYaRTO/2argX/5Xc6VCWrkI4PRym49D1CAd6bF2hg5exty113Jrampa6Z2yCE8s3GjjQg/xkhMvZtRv03Tlzqic/N67H069EXnRJvpdnb4Clu+Tj+X5sX4Hhzxz1FIaMexaXbfiSpmsj90x+hpVM3f0yaODa2fh5LahX/y2ZE8HUnB90agrRQ8cE06k3t0dClscMvu4+3oDLACxCQOwJvmAUhd/KCQEAACACBbkqA+/rWE+Q7gLTeyMDHPjmm8LKF11rKOCFnvJGBX56EDCYPxFYaFRg9R9oWBN0V/5sijkY9e41FUlt5kwVLbiADfw/KQSUsylCCXw6ati5Nk8XQ0aX+WNIaeZx+sDLmkAFCd/09HiQVCXnBKxCQNwLSD628yQbyAAEgAASAQD0BNS18+l2p+OgU8nzihpZWfU6pKy0knguAixek5omL11Q+e4Imm4sTJSW45VfwgXoNzm1RM8MFs8QFJTkV/ULoe2ukBd5GZJyxFUvVxGPmie047drcT9KyxFZuo7xwCwS6lAAYcF2KHxoHAkAACLSVAMtoxDgUeulVEWl5VKXdeprwBg8cVfGlgkxyb7NaxOo1cSoKv5T7mixe+zox9Qqye9+emkaDDcMKoclWnnjhFkJ2gyxwHvEwKavXGFzw94zn1B5pNaVZkVElym3SkPMNEcPx48WHViH0JMLL7yW44UgkEOSLAMyBk6/+AGmAABAAAo0I1FbcQakj6xAymPip1faZp4RT7KlMBg1dZY0K0vu5OyMUM8MpBpf1D503Z+Xw/h6hY8PMxg7LvnIH9V+1cCJpqJEz91MDjzgECosb+BxycuyBKjNLETKivFQ9pqwcHuLx54dO1NLXJwgNmx3vKcyskK8CcumpaPJbQwVqqysQKpb4GrXdP5u3I//4plOho1ZLH8/QsBDcAYGuIaBSV4e/FiAoPIGK8lJuBf6+hdA5BGS8iIGlpaulDesYOqfvlKCWqFdF0a/qfT7VuU9LePpGfakTF8oyn926y0OGvYYNYpRmCHSt9ahtPlrUujIn6346nqOv0c/RwBAvsSx9FXu74DVX3dDOwv09oY+tIHTZ8e1mM09Pqi2vUtXuY2JvSg3N8EuS09UsbbU1hf/nc4uSkkryS1V7mhta27J0FOyffyuWxlOu6Ojn2rLMl49eshyG9GiiBT/rQW4OMhnsxKgfWiaKEu/iohpsF4PWUUv1wUSjHp5G7+iEDKlm4LJ7EwADTkn6Hwy4zu1IMOA6lyfU1i4CjQy41suWRH55bO2xZvJM/mr5bm/J2oRmMoijCkLnHz/ltfzsx23JLC6kYO/SBpwMRAcDTgaQoQkF+y8KOgwIAAEgAASkCeh4fPbplWWSlQr1STRGGw0yVXVLNFALJkTXo4MrIKAIBOAzqwi9BDJ2NQHOab9epn1Efx4TfQP23coQDVhTSX5JUkdgV3DCvMnM6zltWCLY1ZpB+wpPQJWhq2HYQ6NHkz+dth4A1WPaDr/NU+C/eYV/FECBbkYADDil7HCitLCwlNd4kTxRmnIqJDL73VkVBLcgv/DdVd+VXUWdt+O9xHflCl9v/ZSzx4M+cnM8lU5ZbdX4td58I7IvLvBYGYvsguM2slvfpKsr9YG2gQAQAAJAQLEJgAGn2P3XvPTcR7YOLrY/4KP8GgRe5m2/tfteUSvkGyRI3aSd2+69JbJjRlhFUvAAZ5eH9caMVL0Kf4m1mvDZpoAN6wMOnHlx54Q/Vsgv5F5jG7kwzsfVJxahg5f/mGzZVv+HwrMBBYAAEAACQEDmBMCAkzlyGTTIsr93I/reJ/b1TRHkknmaBp4So/+GgZKK5Nhb+Y3tkvqKWrvSsp199fIN0cK21jIqappAvPeV5fCRJNys7HpjFa9Z4z5e4/BxFEKB4Ukz2GC9KWovg9xAAAgAAYUg8IZfc4XQAYRsTIDI+33dVsuvjpr1xLsEcK8e3PnxzpPiPBPEF828V3BC3197G6Hb1h6nEMclJm23Pe9+4Jpp+7FVgpD3xuBdy8fjvS546ZFzR54bu8Pm7KYDyfhIxnlfn9w1sxcN8V7/vfGzezsjNrPxY8V9Grzti43HcW3I3dv/i62+Lj0V/2ET7yxQ8TwdK44M9IW7MJDbaHGfBv1rUghCO88lfOICG4KQD0wHQkRERAdKKV8RQwuLBYaGyqdXF2qkoqIyQgPvVyyjoCu1DYmMmoRmuh8Bxf9N7X599maN+eWxcbd1qkg/WlKI38c7Y1bu/XWyvUZy+BG/71orzTR12TnPbuNxdvC2f7EENFO1F9sdph1m+565MUsn64rfXJ/pKPTKcldCUByLYmI3sb49EWpccu1j39W+ltZnlzsTVfmxnOQqcoj25S6bsfvR9ODwaAvBs5Dpy67NW+jSU6HNGuxR4yQnp2hoEPnP7u5dshUruXO2OzXJDSedm+BwjiQ7L9hnqDF5AaGjBCZNmtTRospTDnYF6vS+VFdnCKqpqaydXnVzFbJUxSfWNpcKcUCgUwiAAdcpGOWsErGjCPFSflwb47knesMsOyyivUaa33cXWpGVpms1ysECsYeMG+GGTZMKzonDyC7sj4Ch2PSy/vePex++//lJziJXc7KK4ZFp37qQ44SukbmXvc4+KF3urIbIXQvwI8XjXNuP54HF7ZlsiV1Udv/LSeXxxL4qsqyChhS/yRMlogccifZp6mk77rNr1I0Nk/pIssEFEAACQAAIAIF3QQAMuHdBVW7qrCHyEPrAibK4sF3V4Hzq5oUkUDlOEM6BqygsQChFUsh8kDtCZykHG1lW8uj0MGHjW4nRiK8L8l5iu623ZIARMZiUq4ospqgBz3azOxi+zwH/X62hbdSrt25DjQKjk+fox01w9dm/ZKRReKKPS09FVRTkBgJAAAgAAUUgAIsYFKGX3k5Gvsgew6fptK8iLV0d7GnTEfvOKgpzmi1fVYGtRCS9tlVbF0/f0dcQF2y2lAJGWljb29mw7WwsG1lv2Lab4GTDopmNPxe+C+u1cfKc8AzxegcF1BNEBgJAAAgAAfknAAac/PdRRyTUFhZi6Q9CaMfhGGrPWe7D69cQEqW0VCl5yjOnoIRMJmj6ZnhBQ/iNp1Tm0htngxB7tAU5bIpDcVkFaaMQhfd/w+sextlKT3BjGZEFz/z1mMqJsuMjrwq3TBPeK+6rtJXaSAsqSddl7j1yh5EUH7fP4gsb5YBbIAAEgAAQAAKdRkAyDtZpNUJFXU+gRpCJUBk59tl70Qn//XNX255dLZZquHB4VHzb+L2P6xSENgw2DcIjhmFpEWE7JkxdOHa/2wT7uBi87vLg5fkGeG4cWSjlI+f+4sJzYpa7kdcEHn69jeunmY2J3DHdy3fSYV87nBOnbIpOGiPOrYjvgmqsWnGz6BolmY1ZdXVv3pjPT0518ItJ+9ZRZO8qotIgMxAAAkAACMgvATjMXn77pl2SNVy2xs94lEbrZ2fGIg30Ak7cjaSXdCP2MBeT15klpmwr3Vbt9tL0+3eeFdB1zYcMtcPL7vM4cXFJL6vpRoPGuttQJfHiBmuPX4Oj9xkWZFWqmzgMG2AgrJCXn5RW0Y9tpUXdlmY8TkzNrFbXs7B5j20m7aFrl2Zdk7nRYfalGfcTs9Vdhg1oio5KQi7DnKWSiLT4hPxK1NNxEJvcyeXNgaWlq6WtYIjerFX7c+BtRGAVKsbW8OPcfo5QogmBRp/oJumdHAGf6E4GCtU1RwAMuOaoKGBce77xuX+ssF9+thkl5x+48r/pVs0kNIyiDLgLMc9OOTacyN8wl2Lfwdd9l/QfGHBC7O35OHdJRyleo/CJVrw+A4nfRKBVV8ybCkO6YhJgTdiZ+HhrE9kJpK7bJicQTR075vqqtzIhrEndENF5BLj3o6KfI5tJng71zj0+twwxddq3dyj/0eWINIHZOE9XvFYFQtsIdBw+t6yMpiNZEQTw28YbcgEBINAyAVjE0DIb5U3R0u1p0LPJn3FPXWabDHqm9dS8nN1wWFSXPCBZlw8dDrtY2aNXvfVWk3t63eq1oeTZEO0JjN5G6GLYz0F/pLWnVLfO22H43OeXV69dG8opE+NrH3yCW1hQihc7Nwr8xIjQaA4slmmE5c23+MiZXqZ9mvyt5/AQ57RfL1O/JCnYFZwwbzIzmQoBCMgVgTb9YMuVxCAMEOi+BLico2fS9UYvn+eKN2rBgXth6+rIfPLKWL3dn+UeDjMCvFICI3+6P263M3jhSIqtho7B53O2+u2nughJb+PTLvhJh128/uf/JGdVQw85kRi0eqP3+Tw2bDrYasc1k0geyeDuOec9c42qKmFyVaVGf20aKq+Wst3wuqzsiws8VsYiu+C4jWzlnTHSDCGIUgQC7f7SVwSlQEYgoJwE0qJP5yPjldMcxOqxRvluHkyU/BW4vxU32vOo7/bfQYNMymMfZOGC9l4rV0wh917Goe+U+faRu379877zPGdhDLy2RKBj8BGj36cbNhC8Z0FBpxrV3Hb4/efcuDldS9p6IwhEo9G09JE9Q9osbNQC3LZGYOqarZ+w6x3Zwqwc6RKFcT6uPrHk6vs/JlvCenJpNHAtFwRgCFUuugGEAAJtIMB9dDcf2U+Q/tHRMTQxMeln2KpvgKgs5+Unxxb2mr/8P+PtmcmRhxOKJK2Zjxutx/s7tYHbQZIIF/UEOggfIYaJubm5ham0+SWuta3wc+/9su7nROEIXnb8CTyiZ2bRp5fHh35xyEJcV7PvvPSwsabb00Rjf/zwLRPXnCa39UFE/qndS0RjiB5Lfo0Xugi58SHbxQOLftHp5PaRZA0e66PjrwetmN3LYzunmzwo+GAZ7uM1Dh9HIRQYnjQD5os0+3hBZFcTAA9cV/dAJ7WfTaBUAnqzk2ji47Lq6qpqZMezP4Hs2iI7Dw0ZPaBJRoLc8q+1UI6Yo7/eMIv0IfSj3Vx9MDW/zLWHaNDUwsUJXSvBk7PAw9AaQpzWQfjCWolmj+ZoI3yiKDn2ljlZQ0bk4Okb7OdtjZw/pDLz7t4lW4W1t/RKCCqSUXK5aL0RUfRPyt8W5G6GSb+s8vuu1y/hV/pplP19fk/o3zmfDDVOOuo3dVPmt79Hj7ZRv3Zw+YKRW64++9Yc18A5uWD6Sc8l/ivH6cjuI9GSSp0XHx91RiuFLjzgvrqaNXaml5noHyEW4j4N+tekEIR2nkv4pOmRx50nA9QEBN6GgDJ9Ht+Gg8KXzRDUXC2tVHg15EYBK5bGU65odowMhKIzmG824LiZd3nIqYMfWfFAG42GXUHiG6Fm+C4lrwyZwDS4Vnr6reC3Um/b4dOxVyg5ch9C638P/DfeTxs52GW7bT3cSt3iJOlHRp+MJHIzbyO0uJ9tH3wCnA371Gwcx0sJ2hTjuef8tMHmfD7tg3+v9jviE5u2bTZVOPhG8mRrZbPwz/5vg9RmSnZhM7zMSDhYzXMTHM6Rl/OCfYYakxcQgIBcEpD+aMulgCAUEAACQgIsYxvyAv+Ov1Vo5AqivgIMtRrPBXqrJpSwcCfBb0SmnfC5j6+koDWOpPVGBj6eik8ZZMLbtr/SBnltRUe2vm9zFB+44r3ik8+Wz8Lj8nhdTMjaaZZrm9Yz3MJM2aw3rOSm3+MWO+vx8XRCMtBYTVU87rNr1I0Nk/pQGeAFCMgdAZgDJ3ddAgIBgRYIMPSYiJOe02yqaJqTOC3r+vGtW7+Ly21krZHJjUy1opzniGll2ihWXA+8iwm8LXwKcGPju73w6dhLmlsiPtKNRsfnu4nla/ldW2zz1+c3GPrvvLSEq+G/Hdzhwfluw5gvYwhEvEYo4PfEvJwX2ZlP8R++8HEQz9xTxk0fGbp6TBZLVxSoU2vEEAOjk7MTgu0R2r9kZHAibNQi5gLvckYADDg56xAQBwi0SIBlZofyI2/iH1px4F7YtWzZstUXSxDv2n58dVq00xj3wdXY/Hx6XxPSbCAqcXKleB4Ugaemc8UmAD4y98b5dGQodQyYuGp4b0igg/AR3kYEdwy1k8i1/auXLdv6qH4dQHvhswaOmYCOxyQVkv1XwLkRFfcmDxyBnXQxD9Jwn6OC9Ds3Rfn5t06HJvH02C5uMxYHbF+B07g8puEQNgrccpxTSuD1rTRaDefW9Yx6URvCUJK7+o+BlEJY5wlOeGjZbPy58F04fuPkOeEZzfwjJFUELoFA1xCAIdSu4Q6tAoEOEBjoNRU9CLuQMGWRaB84lvt8f+sKvKMEWRlBEHoW1DgQP/PvfGQ91cuEasPCI2DlKF3RDDdWv5UrV2oJs2FLjvPXNR4aP/N9cMC9sTs6Bh8xLBasXMnDFhHVAEHQeouXDLcdvqD8NuKMxiY4+8PlnmuneQlnaFEV2vNbW8GiZTPyP9ivNtExQKwelZ94dnh1wOerEXu4O+d2LEIrj7lpIePFR4OvuPmMYQchth3i4MWqdpFpowyIcoRuN2vpiKtUxnfq3x1dl7n3ThQMnhvk4/ZZ2KMjQ2G7PWXsaoXWCQw4he4+EL57EWCYj59vHxby85HhdhvYlEXWw9ymRxMGZc+w/aY3631zYQrLpK9o2zfyntWXLb7jP/9p/zVkPnWSTdPpP00q7fYRHYPfALg0w/bA7/fhlZgJeuRwpq7zMc6N6CsJxcho0MjB2sXPefrUxEjpmqWvmVbb026MiUnAz8NAN1fDqtzXNPxUsD6JThqe9M+TXOzMXbZz8GC2MfkAMC3Hn32WmHgvMeO1QN/UxMa6Pznzrd/0mOjx/ZTsASEdk6hZ01dQjQ3WYonBajZm1dW9eWM+PznVwS8m7VtHJeMg/ajAtQISgMPsFbDTmhM56lVR9Kui5lIgriMEZLwKdaJRD0+jppZYc5Jz037cGJRi9tFX//VoyW1W9Cjq4iurWR6t/rQj/vUft55KMVi+7b8OIu9cc83JNk7eD7OXFfx2HWafcW77MN+jzXSU99fp383E5xZDwASkD7MnSl/cSXxp7OJq02TuQGnG/cRs5DLMWSqFSItPyK9EPR0HsXu29JlrzJilpaulLZ5B2DgR7oFA5xAAA65zOHZ5LWDAdW4XyKcBx+Px+Hw+nnXducrKT23ybsDJilS7DDiCV1pSik9maCIcjWmgCy4jERZpA64Jqc6PAAOu85lCjU0INP3QN8kCEUCg2xMoOL/6+KawRhisNp+f8iHz+mDP+5O/Wr7bGy8JFIa80E2ntp8ymH9odoBHZ33ASkpKnj9/npuba21trcQGnBghvLeDAI2payCeV9eOYpAVCAABBSfQWb8vCo5B2cQn+EVliKXDYDTo39qyJynRz80/9NRu6ziAsnHpuD7UTHGrybN19JmEaMeOYi28q0cND59hgF5V14mrLogkrTfkGjD9v51gvdXW1mKjDZtupaXkQkIIQAAIAAEgAASEBBr8wAMUJSFQ+fiHUTORb6jfUidpjYjsOzHbQ2dP8tSWjoXrNhHAmwuMG75zh0Gjnbz4/6jj4uJ5RiXXvjm+9hTqv2rh4SWsRjnb1Ep9JjxamkkFPGZaHwtXQAAIAAEgAAQoAmDAKeODoMle/Gc40rWs162GqFWjqWrgUT592PqvHktnXVWQW6Vy448cW3EIoaWfnPxM7y2sN8loaV2dxK/XWYJCPUAACAABIKAkBMCAU5KObKBGTX7yzp16Gw/Z9sBjpdyMn786H3RKnGGc+KL596LzmxIE8zxn2pLJ/CeXB//X7M/Ttn1ZBRePRPkHFlCFHNb9OmrucPzoVCVfuDTL/ykVOWTP+eFe72HrsCjyy8h7ZqNG0v8JOVHR59MPN0+RTA6jMiroC54MHvbk1NlCFqohNahGLMf+498TfX6MtCrSLhzzCURo4Zz4/5LU2x9gtLT9zJS2RDaBUgn4cu7M/tWoq6uqkR3S/gR68+nGnakf1NUdCcjuge6OdLtKZ355VsIdRhW5mdGr0NXngy4N2XHUpr9mwcWjMcFvkIngZhRUS3ZBIorRk55VBPH87HH/wCF7fvNia3M5F6+fTa2ZOxw9v/DjLH+7dYcWTnDgPQg75T+N0St+sEuPWm5xQeixs6G2Q3zxZDvNN7SnUMl3v1onJW+A1SOxARfufyycTBnxy2dGHdK4rrr6zp07xcXFUvU3f1lYWIiXajafBrHKQiBDUHO1tFJZtJELPWS8rpzOYIIBJxcdr9RCgAGnjN0rGb/jP0ncfslqc7j7NNKjZqCRFhMc2QGFa6l9L41s+vXo26NHX9t5XmQdWdE/ov4B7tNH0Ame1shJw1FgCicTG3DY54fQqsUPPtOWiNGBJuWuCFZq2LSY7810UY3QvqUxmzrabi1YZ3zlO3PDdn+sVOh0Nzc3PHj68uXLnJyc6mpyo9FmQ8+ePYcPH95sEkQCASAABIBA9yHQ7l+a7oNGGTStISoQsn7PTKgLIfGsta5bkyFPurGjM0IRM4bicmZjFw78dJmNPaOE8wSlBh4discNRcEKkRP6EapA/XsylMp6EyqopamrS9NsZr8tPHL6yYMvai9sOr7p1Nmxe+bd+8KgqXEnrKPVVz0qsNnsgoICbMnl5+fX1FADtq2WgkQgAASAABDohgTAgFP+TieQyHBTbUNv40lsBU/zahE5mw0fsSmyQ3TeG/XosUsa53Ua5/nZzRGzsufc+5q00HyOrlw1UuSSwosklJ9lCxqOtdNSQ/RpW7zzMs4eOHZ8udGSo0s6vIOqqqqqERXw2abYhsOWHLbnYEFDC+ghGggAASDQTQl0399c5e5wkeGlqY+PM78VconaiIKbH3ejfseLFvSvxfGhd8pIvw//1ZWLwgUK1Vm30xILtW2c+nl9/P5/N2IfW20Ny3TibBS8OCXplSo23dRogqx7aYk5LdSq9NHCEU+a+dJDH8xEKCHwyPYLLQ6CthkGPgC9d+/erq6uHh4e9vb22D3X5qKQEQgAASAABJScQBt8MkpOQBnVqxHgXV+NSL+bqdOhVXeXrvshXDL7fhhporUcdJ3xBLfNx5yOSbKQA6/lqRELPkHI1swVZSc8QZODemgi+sQVo6NPxcx1j0G2BugJXqBq4H/exsW0tuIOSh2pZBtg1FbjsejiZtDVCHACypZs5Muy3Rxb/sL9Vqj/Qabm8gCPJsPREq7tuGAwGH2pwOVyBQJqT+F2lIasQAAIAAEgoIQE4CxUJenUhmeh8kuS09UsbbU1SQO9Ku125j85qoZ2Zg4m3OxibVur1ieoVT2/l/nwhaqhlZlz36qMPIaVLYtBVGU9yX+axa9EmpaOve1NxZ5bojz5QV5GgZquro6FlZ65EW6vOvdpCaFvZN62o9nlFX+jNWv8rAe5Oeomg99rgo5bkJjEZ/bBTOpV4ee8fPCiFmkYDHbSaNtcwHYcZl/fDFwpLYGGH2elVVOWijX6RL/rpuET/a4JQ/2YABhwSvIYtOcbn/tkvdNf1LYXjZR32BPl4WXVKLJ73sLXfffsdznRuj0fZzkRWd7FgE+0vPcQyNd+AjCE2n5mCl+C1Xd9/KdrmqhRg1R1dJrEQgQQAAJAAAgAASAgdwTAgJO7LpGBQHQdxR7flAEiaAIIyCeB2rInKdHPzT/Eu2TLp4BvLxU/72J4peWYfjbwNfX2MKEGZSYgnsukzDqCbkAACAABJSFAZN+J2f49t+X9AYmsqDPeXxbIzTkO+Gy9M4FRoq2M2tQJRN6hdX/eymxTXsgEBLoxATDgunHng+pAAAgoEIEaAq+DVtXAK5v1W/vi5hVnp6bUtm31jCy056Zkx+c3s4K7ubZrScOURtdDBnThruDNZYI4IAAEKAIwhAoPAhAAAkBAzglwM37+6nzQKbGU44QXJde+ObbikPDaYOzScRtX9dJ5en3GZhxzcs5kg9QnJtSypKrkC5dm+Qv3dByy5/xwL2qbbnFdTd75L89/H7qJqrb/uAlbtvXXjj+1OsHti/GvQ4/cTrWbF/KFAfHk3u7/3gp/gssazNw+ee3Heng8l/80do7n3VRhfcNGH/rSyd2iOu3sr9vvIHTnoHcoSnWeE7/DqNmyeKuixN+iF2zOxqX726JUZDW2iVwQAQSAQEMCYMA15KGwd7YMtV4GWgorvtwJrqKiMkJDdjx1m2xPIndEQKCuI/AqdPX5oEtDdhy16a9ZcPFoTLBIlFoBw3ndd7auNrSqjH+2LT2103L5vnFW66Y++ipl9NKAnppI3cKAeH7hx1n+dusOLZzgwHsQdsp/GqNXPHVmcfP65J3wCf3qzpA9v9raaOSe25gYl2PtUVGQeurPBaes5q8aMlJbFeXEuk++O3bV7MifWLyUhBmLjzGNVgZ4qCKCNjTgwy/c9PRR3p9fxSz9old8iJGx0+iZttdC7SYFeKsT6tqMnNihzZStzYo6umCzwcyNsz8aLHh5L95/Z/PCQSwQAAJSBMCAk4KhyJeGqkiz7u03/1dkBJ0qu7o6Q9DyifKd2hRZGUtVo9PrhAqVhAD/SeL2S1abw92n2WKNDDTSYoIjhar1GP/ZqJrSkmfZ1TRdlhk+IQVvKK1r5jYIoXyzsSMNqFHUrEM/ov4B7tNH0Ame1shJw1FgCiezRQOO/+TuV3es1p1393qPbCsgnM0najM5+HrSnw9s+pLnwxFpv91F6AO/+QY9Ua3a0IE7pj7a9IAb4KHNsB0aYFWV+6K8uFzTBp+bvC8vo7SXvZUF2xz1H9R36HD8Y9NSWe6l7xEK8N68gPwY2NuWu+5MxBcQgAAQaJUAGHCt4oFEIAAEgEDXEqgh8Gkf1u9hA40M5Mko4vAq8suTa4+Rd/2HWVEHrakgVEtlqMXH52niBG4J5wlKDTw6NJDMRgUr1Mr0MgKXs3W1FGXF89EYNOr/wmG6pqLTfQVF5OEjf304WJIHoXHcSqRRePm819JsMpY8skUSahGZXzgHroWy3Ne3niDfAeJ/Yvh4IhxTUh4ugAAQaIEAGHAtgIFoIAAEgIDcECCQyHBTlXxn8/+5sfaY3ebQcTOdyLis3771kvjgtZB4EQP57nN05aqRqIaqAZ9c3IpS1OLWynJsxYnMtfq8VBK+VdPGqyiGzY4N6cUiF1VgG0+VbIP/ZMfSbNeAT777dw/yAJinFxw8ycSGoYWy3CI8W+FVKa6Nko2G6+M1LAh3QAAINCXQ2me5aW6IAQJAAAgAAZkS0NQ3QehWyCVsVWGPWn7cDYREszPxygF9C1PSeuO/SvsjErlKjt69VJDJxdG1iGU6cTYKXpyS9EoVm25qNEHWvbTEHLKmZoOmoTlCt0OjhduUEK//SYvPbJSRpm+GFyU8uHC7mqpQlZ+TcfFeNSJq8MYlfcx1SOuNKLh25am4WC22KlMLKeEJ1ebLsoxGjEOhl14VkSZmVdqtpwnggRPjg3cg0DIB8rMPAQgAASAABOSVgKnToVV3l677IXydWMJhpOuLYWY5Fl32cb8tjsVDmXU4up+7M0IxM5xi8CQ2/9B5n6wYHX0qZq57DLI1QE8KyMjzNi6m9YUaXBk5/xF0e4b/kfDNBv1RQSqZuc9QPAZ6RzgGivOqmnjM2bHw5KZPUr5CwjwIbVz+aLDp5IXIf8X3ofXVCUd7dZ29ENp81GEfHlqdGR/ebFmDiZ9abZ95alSYpLBBtUByDRdAAAg0SwDOQm0Wi+JFVpSXcitKFU9ueZVYnY4XMVBeA5lIyNLS1dLWlUlT0IgCEGh6FmpV2u3Mf3JUDe3MHEy42cXatlbkwuWa0rybt4sqka6Ni3FvVPSSMLAxJUdVKnOy7qcjmrpGP0cDQzwYSpQnP8jLKFDT1dWxsNIzN2r9H/faspzcR5zKSnXN3paGthZ0/qtXGeV69lYS/x5uofr105x/0gQCMo+BVR8Gg6yyPPl2TmqBukk/Ewezqow8DStbDewkxP7B5w9evihU1TEzdbHFlTRbFpVlPrt1l4cMew0bxCjNEOha6/WgCpMVdEKAs1A7ASJUIWcEwICTsw7pqDhgwHWUXPPlwIBrngvEyoRAUwOuU5vlPlnv9Fd4M1U6UPvGNZOg+FFgwCl+H4IGjQm0/p9Y49xwDwSAABAAAgpOgNV3ffyna5ooUYNUdXSaxEIEEAACckoADDg57RgQCwgAASDwjgjQdeCc+HeEFqoFArIjAKtQZce6q1oqeHTxVMRj0SYEXSXEm9vlJ0aERnMKcUaCW1hQSq6howKfczUs+OChXyMeVzSIF6e38E6UppwKicyG3Qha4APRQAAIAAEgoNAEwIBT6O5rk/A5CV/7LbkrMYialkk7t917S2RXmzpEYtDqBVfJPQuSDrsMYAcLV2QkhawdM3flX/f+DoviJErFN9WiUQwv87bf2n2vxJtXNUqFWyAABIAAEAACCk0AhlAVuvveIDxBEDQaTUPLArHp5F6bLYWK5Nhb5l3oosPbDWA5tfSRPYPcI77/nBs3p2tRazK5D46dc98RfXaxHY6vyHcVx7ekCRUvUhsvd9OH57tVUpAIBIAAEAACikoAPHCK2nNvkLvwcdCiiWYWVr1M+7z/eQzqQ2XnPd3l0QfHUH+zg6++wLEVnND3195GnK3WHhN7ma5PIj113PiQ7eJsftHpre1OwkuP9PbwCw7ZN5aqduHuSA7n+hpRK0vCxWWJwvu7Foma9j14UVJjdvwJb9M+ZhZ9enl86BeHLCgxc+/9su7nROwR5JzeGcBBsZtW4crXnE6RxONcBY/CFooU6bPrnGSAmHv14PpeFlZmpn0sR25ASJuqD16AABAAAkAACCgbAfBQKFuPUvrkBzlMCkTTg899Y4Eyw39ctr9MqKaAOWL9L7tG9OuJ/g7d6Td3rUvaKUdTl53z7DYeZwdv+xdLQDNloKSjflM3ZX77e/RoG/VrB5cvGLnl6rNv2S2cTUgIimM552LXTvj2RKh+dtSCtcuivkPeG38Ic0Rn/rXMZ114+pm5WsSL7Q7TDrN9z9yYpZN1xW+uz3QUemW5Ky8jcvD0DfbztkbOH1KZeXfvkq1CKYki0iOIN2EzHeQ5H50M8Zy+aRFb18yEuCmKR+lhAyau9N4RfGeyY9G9c15LJumaJvoO7ZkU4vfxzpiVe3+dbK+RHH7E7zthffAKBBSMgC1DrZeB6LgFBRNdXsVVUVEZoSE7pLrkNn1dE6rvplYnpHZN29DqWxOgu/anD+nfxmrAgGsjKEXKVsG5hE+u/iXh64lmuH8HaGRM2H+Ykp9p57/NuiD7RU5xmbHdcISCEp+VujhYjXLAY6xDxo1wI400XsrqTTGee85PG2zO59M++PdqvyM+sWnb2A6tbDM7PIxzZCiZbhWw9mjgitADy8mzrHX2DA85ht9RRdqtw8gu7I8AMo/1v3/c+/D9z09yFrlWRe5DaP3vgf82wJkc7LLdtgrFJMsgcsxXy3rYIDf0bMzoMSPIIVTOTVH8vQsHEXv9+tkjtQleL48pAWj32ceZvgNf/7gWSx69YRaZ2V4jze+7C/gCAhBQOAKGqkizrlrhxJZngdXV8dbcskPKUtXoKhrYeuMeaG6Xv64SCNptH4HJYMC1D5gy5h5uIp4ARlSXCxXkZVyc6+YTS97YubvVK00gMoNkDpwhQiFrp1murc/wxisN0T8CTFM35G6kKcxv2B/biOQ3ZkUhPr8nRXIyjvkgd4TOVtVwH19JQWscSeuNDHycVV94Wf9KkOWrJaIJE7jPHqUgzu7BNrslGT2ROj6rOw+hD5zwWY5k4EnaE97DKxAAAkAACAABJSIAHjgl6sx6VUizB4ld+DS6cCoYP/Ibn1i39Td/8bFh4X5/utB0bH2J+iviNUIBvyf6j+iJFwPgaLy8oD7xTVdUw6JMTLwpKIe81tLFu4MO1xGfi1NRmCPMQcfRuSW4DaoBGl50UCwq+oY3nBOt+DV7/SgkPG1RKCL3MY7miw1RGrkcAgIQAAJAAAgAAeUkAIsYlLBfaRp4l87bl26QaxSI0qfXo2Mo1xZRjRco9LMwJ603ghNzMUqsugCbXZyCEvKWIJiGQ9gocMtxTim5gpVGq+Hcup7Ryh4k4kpaeWfqm2F5wm88pfKU3jgbhNijLVisgWMmoOMxSYWkmVjAuREV19QD12ytrGFT5qDvPjmTmE9JSONmJITHv0Qs/UEI7TgcQ62Q4D68fg0WMTSLDyKBABAAAkBACQi0w7miBNp2ExWYluOC5yGfhSPxTDhRYFfXINYw78VoyTLL4+JI7K+ixhn7uE5BaMNg0yA8tBqWFr34aPAVN58xbGxm2SFOCo6MTBtlWV+o4RWBh19vkyYYFarjUOxY8eAlgZdOMPBGbDSzMWE7JkxdOHa/2wT7uJhkhA5eno9HTg0+XO65dk6MliAAAEAASURBVJqXwzlxaWRPCSQox6tiRwt3cJOuUBJvOcVv54WTfpNd/ZCdPUrBFdpvjJg8dMCiE/775662PbtaXOFwiWDiGHgHAkAACAABIKAMBOAwe2XoRaxDk8PsuUlXrye/Epg5DnPoUfGiXMve2hhb69mP4hKSX7N6Ww1yNi9+lqtvY2dArlxApen37zwroOuaDxlqR67U4hUm3kvMeC3QNzWxse5v1pNFZmo2cPOTnlX0c7Ci1ncReZyUciMbm57kcCnBfZmciezZvYX/JeRx4uKSXlbTjQaNdbfRFf/nUPoi+kpCMTIaNHKwdvFznr6NZU9GRfbTZzw9R+ueuI5sTgphREbiCqXiyeqzHyU+SC9Q19Oz6GvV19KY0gN78uJuJL2kG7GHuZi8ziwxZVtJmmpW/JYi4TD7lshAvAwINPk4y6BNJW+i+3yiKw6EwyIGxX2aWb6TtXwnt1F+MODaCEres73Tb/yMc9uH+R5tBoH31+nfzaRMt2YSFTqq+3zdK3Q3Kavw7/TjrKzQWter+3yiwYBr/UmQ89R2GXBiR4ic6wTidSkBsw9WPb7vK1xr0EAQGlMprbcGOsINEAACQAAIAAH5IwAGnPz1ifxJRGPqCkda5U80kAgIKD+BvMTIawX9Pppg14Hv64JHFy9lmnw0aUAHyio/WdAQCCgyAViFqsi9B7IDASDQDQi8ur/Pb+G1jq0Fz0n42m/J3Y6V7QZoQUUgoMAEwIBT4M4D0YEAEOgOBNTp+shNuDJIuDljm5QWZtXQwueskOeaQAACQEDJCIBbXck6FNQBAkBA+Qhoo7izQVti9h+JwboFHIn2n0SeF4eXj0fv3bLgf9RGPJ6+kf/zd+lJfaUXPg5a89/AKLwHEBU8RyPiRdDskSVzr2yfbkVFEbf2LttcMj1ym5dw+bYoJ7wpFwHVJYsMPn9P8LhMfYCJCkJ1rx8Vex8QFCD6t1v0J5gIda2ryC3fsafqAg/fqoybpL/LS12LNPjreDWo+O8Cj59q8VZQ/v/R93ER+nsEsX8UL4mpQ0h1/kz9zz1o1AOEK6nYsaeSqkS5EMq1NuCBk+vuAeGAABAAAgjhfXxuX6oadCY8NHDJ8MAlE/9I52Ms8Xv/teB/nMATEXdu/LbyxQEvh6BscufD/CCHSYFR7OBzETHnfljpiRDekJHWx93d7rDviQzh1oiliZv/FzNu9CCw3pT86WJoqyAWfQCLFxFVEZurYuigf2QSVlmFThCPE8oOhpSGxNUwTXQ2LSZNAQMn/f1T1LVKuSGnS0/H1SA1FX1cHKku+U9PH5e6x3HFa/eXXXuu7j5Db4s1Qk566z1oxZzSvSGlpxNwJYwBRkoOU/7UAw+c/PVJhyTCX9ypBPRmh9g1V0ijrq6qRnY8+xPIrjkxIA4IUATyEHvrn4H/xou+R7h8k37E7cT1tBlm6If/pXgfuPHJmD44z4bff9vv8HEUx3c27RLewfuXhK8nmuEHeIBGxoT9h8k6Bs1cjf7nE/G3r+/Qnpw/jySjOT++b0xVDi/KTYBf9nFA1UOs4/nacwd0rOzUUAR/+Zd8Awv6bDtVflktdr3RaKShNtsDH0BYsXYD9wIJpK7vQD0XhD1tGlMHIuJ56Zd/1rJ0iG+iq0cvVX/PFllVYjcdkZVefSS2FsXytv2k3BDlUzvZ/UTJp/5KI1WGoOZqaaXSqNPlilixNJ5yq2QmBp3BBANOZrQVsyHyBGAqGDh5olvkFQ375Zzt8JkmVNA19ibfhR624Sb6ou92ohqflUIGmpnbt57I78dbnw4d9tvaGPc9ETbw9S9Eo+yv2AgThpoCLrIibTLmke267pTDjODXUo8MlQdf8WsyRZlV1IXPhzHNSA3R+vb47StxNagWCdDT+5XPpmm5TjFMnoI3ba9OvFm68DwebIUgSwLwCZYlbWgLCAABIPCWBHhF+JTjwQJUg/Lw722V0GLDlpsALzUlB1YRPtsYIfGyBRpdm7wlA+uDT9f7TT+4/+DDw8jujNcAYSy8dh8CqprkkTYqVhN03I1q7l8omhtBmlzzVxmvpywBOvVaIeJRJ/pngDT4UOb1V56/IeFuUgU8oUXInbyKN8WdMdKW4fIe3dVTd8vj4m3posLwJhMCMAdOJpihESAABIBAxwlgI6ycnGSOUF78Hxs5yHuQBWIZuiO049S1Uio+7cafUQhZ67NoGj3ICXM3sJWHiNKn16NjkD6VAyHdoR+sRCmBO4+iJauH4ZPqIHQLAjQ1Cz2sKF6gwHJmoJxMfMw0tsBqMp6T1puVvfbcfohH/htQl/Yan16t/fXH6m7WjPWLtJ1ZlAmXz3tYhCxGaa+3r8OmWwFPdf407S1OyMpd59hMdCG2cs1PxbOicYVqZjAiL+vnCTxwsiYO7QEBIAAE2kVAgIdBObsHmO62Z6NkDkLzflgwlLS//nP560CPlbbHD3q6pUTFIc8dodS8t3HB85DPwpF4JpwosKvxbzYV+szcO2f/5ye/ne0GX/0iJMr/pqa15yutPUI9i0q3h6KnFtUViDl9pfF0ifLkHLjaC7+Welvruo7qETxKkoDjq9cf50eu1JiP/2rq8MoGbOo9+aP8OGK6emgke9Tx+CpM7NjjVv4cKykFF7IhAJ9i2XCGVoAAEAACHSTQb+KXV/FPalk2J62EZTlg1FArJlWTFntm9iOXyzcSi6vpPjuGjWALXSCsyYHJMR9cT34lMHMc5tCj4kW5Fp4tRwUi/1kiXg/xAVscIYqHNyUmUFMZfKbGxFylOo+/N4YowJpmlnrtqt44Th272B7e4d1E9PfpwulrvIWbeVYW6vZ04kK2Rvg32qYEdq2hguQSVz91f08mu0ddSTmR9E91SDIZvfIVc6IjTY9ZW/KSdyiCeKrEDOVUNTDg5LRjQCwgAASAgJCAlpkVm7yyYrs0RkLraTVRtLWbdBLLcYyXoyjC2FEytFWYsPm7lJUnvHSl88K1khMgBGFXeY2sq4LMKr+fqsSK88g1qjgYa0f9V70wnZ9arLFokUY/NUEEXmEqDDxB0HmB6Fr0VnvpQeWlBw3j4E6mBMCAkyluaAwIAAEg0FUE0m5cSmb7/gS7h3RVB8i+XT420rgIbz/TpsCvrSJozi7qzjg3vzrmdMkasM/aBK6rMoEB11XkoV0gAASAgEwJ2EzfnFc/7UmmTUNjXUKg9sjh/CNtb7mEO30DHJvbdl5dnhNWoXZ5F8hAAIJfVMTni7cbkGqQmxSVfO2J2EkulQCXQAAIAAEgAASAgBwTAANOjjun46Jxn2xflpwm/leq8vEPo4b+8PNjXF9R5JdnAqMkphz30fcxK+40mtnQ8WahJBAAAkAACAABICATAjCEKhPMsm6EVv3wEv8jcaua7MV/hiNdS/Kem5IdbyZxuanS9VF/Ol4WDgEIAAEgAASAABBQIALggVOgzmqjqPy07d6XU9GtTbOOe9scX3+2uiY/eefOnFKiOu3sr9vvoNSdB70nf+uw6VXDk7eqki9ccLD5lvqLjfxHYuS1sVXIBgSAABAAAkAACMiMAHjgZIZaZg0xen30uUPoUsGMz96z1qxR703jl2cl3GHg5UVmTqNn2l4LtZsU4K1OqGsz8PIkUSCeX/hxlr/dukMLJzjwHoSd8p/G6BU/2AVv6Q4BCAABWROg0xlIS5n3+sh4kWnZx0KWWFVUVOh04fZ5smiW7MEuCiojbNXtqHNOu0gAJWtWRVBTpy4+me7d66ZioN/2RsCAazsrhcmpbT/CqD/iu44xt6G+RPj/CEVX1bGyYJuj/oP6Dh0u7HiJAZcb/SPqH+A+fQSd4GmNnDQcBaZwMsGAU5guB0GViwCdwcR/yqVTA21evMgcMMChQRTcdBKBun5GAqMuMx87SQk5qkadzhBUU4cMy0Qoenv+cwMDTiZ9IutGCPLkHAE+O7Hxx7gWkScVNxke5ZZwnqDUwKND60/fsULqspYa2gMCQAAIAAEgAATaRgAMuLZxUshc7ehc0kHsc3TlqpGohlqiqkaD2ZEK2ecgNBAAAkAACHQPAvAzrZz9rKaHUuI5pG6UQSZxxNVWI5RaSLmDCSk/HMt04mwUvDgl6ZUqNt3UaIKse2mJOcqJBrQCAkAACAABIKD4BMCAU/w+bEYDht4Q24Kgj8klpU4/82sEpfhgFMqzpuvshdC+o+RS02m5lai2Ai9KrcDHFetNXDF6LIqZ6/6tw+TjDjY/eH0c/7C4mYohCggAASAABIAAEJADAu0YZZMDaUGENhKgmS89O881vrgMafa2U9fUnXz6vJolCxdm2H+87E/2yxeFqjpmhpoIeUbNGa1P+ufUjJz2caySH+RlFKjp6upYWOmZwzqmNtKGbEAACAABIAAEZE0ADDhZE5dVewwDl5EG4sb07N8TXyJGX6d+fcV3JlZSZhpN236wtr04Cd6BABAAAkAACAABeSUAQ6jy2jMgFxAAAkAACAABIAAEWiAABlwLYCAaCAABIAAEgIBCEyC4BfmFeEOpRqHg0cVTEY8lh2I3SoXbFgnwUtaY9unl0acXfjXtM/ajJbuORmYL+fKebsaRK0LJnbrEITFkPZlty8WmXSDO8lbvYMC9FT4oDASAABCQOQHu/ag//oh6JNldlF+Um4bD89fkBpCtBm5ZmaQUXtr06DKuJ6Gs1SKQqLgEKpKCBzi7PJTs2C7WJCfha78ld5tEi5PhvSUCNcRrnMRB81f4r1wyRz8uZv+mZYMnBWZgA62mKhMn5VZLPoOcc+u91p5EbutPbhr/jnblBgOupY6CeCAABICAPBLIunzocNjFyh69hNsDPb/8o98X24NwCNz82a4/iloWmfv88uq1a0M5EoON0dsIXQz7OeiPtJYLQYoCE9CynX318o33JPtIIUQQpN9NQ8sCsemyOx9KgRE2FF0NkYsBPb/esX7Vhm27z+YkHVxihzgHLqVxkTBJR5Q/IyZwjO9JxPa/c2ppr3e21gAMuIbdA3dAAAgAAXkmwOUcPZOuN3r5PFdDUsyihP1nHpiP/s/XP/zwpf9UlHXxUFRWM+LzOVuXLVsdeAYnSR+x0sNhRoCXef7Fn+5LjLpmCkOUohLgvf5742e/ZAnHSgsfBy2aaGZhhQf13v88BvVpVSnixa6PZu8KObFGNFzodzWDctjxnu4SDyD2Mp0dfPWFuJbS6IN+ooHFRUu8P9rOEfr3SlMOrJgoig84QXqqlCFIjtbS9Zo9Gyt0P1n8oSsjjz/Ku3Vo2MIDCPnejFhl+c6sN9wuGHDK8DSBDkAACHQTAmnRp/OR8SfTRAeJZt2/yUN606c5Y8dADxvP+fYo6/oD4U9nAyCMfp9u2LDBf3bToZy+U3Chkl//vN8gP9woBQGiKj+Wk1xFjurlBzlMCoxiB5+LiDn3w0pPhFo32fnlqXG396/doLEwOOz3H+azz33sdiCPZCJgjlj/y7mImzcivl2BNs5dm0g9bYkHP12w81zAgd+uXg79jw2KjcuqIjO/3MWeuIPrFRmXcO/yr4OObxi2+6JSTLyjS3yaD6PisJ7O9uakujiYaOVxwpz+tRuhxTFpATZNP2/CbJ30+i6Nw04SEappCwFrlgYy6tGWnAqap/Zllmpv8Yfk3eugoapKIpVVkGVbstIJ2nkXBLiP7uYj+/ls8Q9IRUEBYjr1Ft8a9jZGzyqba5hhYm6O+DzdZtLMx43W238nlTuPtAIhKBcBOlYH/8xXcC7hg65/Sfh6ohm+G6CRMWH/4VYVpYZXN4Un+bqQj8zA73eFeGyIy1g1w9LOf5t1QfaLnOIyY7vhCAUlPit1scndv/O2594r/tOtcGYb9TS/7y7gZnica/sROrhhob0hItSGLdo7PeTz+3nbxpu12rICJEZxHqa/0Kkq4tz8ffn/YhCa424j/uicXTnsLKnBpnOrHMVx704jMODeHVuZ1owtAOU2AiLu3vZ0HihTptAYEJBDAjw0ZPQAiVw0ckBUnfq1FcbhJQrSY6SSjMILQmoFQ32ShYsTulaCPTLv/henvlG4kjmB4Sb6ol98orr8ja3jHAzxo8S0sHdHKKOIx0M35rr5xJKF7dzdJHUQOPMHjr2E9zyBKL6ikGxl+UhHST6EJrziIjOFf86OTh15VKQUe86ZX7aysaet4ejwjumrB97/YYTxuzWx3m3tUt0Gl0AACAABIPB2BLiZd3nIqbWvbbEvrn3t4B/qlLwyZCKegt2+0pBbAQjgY7DxiTsiQWl07baJLDb4Xmdio22mTk3kNz6xbutv/uJjw8JJTxeajiXrIYdoUVmZaHSUKTH7dPHTODySc8qFRS2dQDRaa48uWYmChMVhN+bqCAQa2oZmZj0b6rT4ZuZm4uz6MZ+f/Mh519Vnm0nb7p0FmAP3ztBCxUAACACBziXAMrYhKxT/DuNLdW3ES8kRO9YqKvG5xwLq97QdDVO/QIZaHbP92tEOZO0yAjQNPMHm9qUb5JoDovTp9egYpP8GYbCJV1ZQQmUqvXzuNzxQOMySUY1nvPWzMCetN4ITczFKWAfL5AM2CtzwY2J2YV7G42OHf0WINBCZ+niw9PbRM3EV2HLDgf/yakSC9DZpb5BAbpM92QOtrdhsO8vG1hteoMo2oSH2rB1n1uDx5aNj5h2iJg6+K00a2o7vqhWoFwgAASAABN6eAEOPiZLScxCbMuTwj+ngoSjyzM2/c23cTFDZo79ieXqjHYV+tKzrx49eLZ7w6X/cTOpNM+pKyv6jJCrKeY6YVqb1ud5eTqhBPgiQY5u3sWeMaTkueB7yWTgSz4QTBXb9jmXiqAbveJwzcK6bJP+mc/ssaSzkvRgtWWZ5vD4nnxww7TnvaPBfbj5ernjppTBY4Dea2fiYvYsnfP7x2U3Ino2SOThua3qOqyiLAr9Vi5yNzahAeToRbcTnRw/m2i8/vtspwCQ9cKpWMzk7IQoMuE6ACFUAASAABGRCgGVmhy5G3nw9xcaQak/NZMR8p/CQkO13L+ihEuwvsV6JnSFk4D64Gpuf79RXaL3hbUT89udTCfn7V19Dxsu/3uogmopUduN8OjJ8D34MKDxK9aJlMz0menw/0jRnTQ5MjvngevIrgZnjMIceFS/KtVqfioZ9bQEnIj7QLMusRP3sB9kYk7VYTtp8L3pcQvJrVm+rQc7mxc9y9W3IVQ5My/Fnc1IL8kvUdY1R2s+2E6OFJo7jrM3po+feffiEK1A3tOhnZ9PnHZkyMuq2GgHpUXvRnO3bOIk1IzAh95nrjuMrrTU007eNfxeKw2dWRv0OzQABIAAE3p7AQK+p6EHYhYQpi4T7wCGG26dfm9y/9Ti7DGkaDx7hKnK38TP/zkfWU71MhE0yLBasXMnDw1jULUHQeoun5nA5f13jofEz3wcH3Nv3jtzVwDR2dDAWS8VyHOMlXlBg7IijeY99+02iFk2Ks4jep8c88MG+Ox2DvmwHlvAfAkkOMwc3MwfRnYGDaFlzBSds26ncUaMd9QSX9i7cirz39xebh1rGVmMmWEmKK/YFq//Oc7+V6ViJ1JZWRpik2Ucqydj3eNzgey8ESINHIK13YG29gyqlVYJrIAAEgAAQ6DwCDPPx8+3DQn4+MtxuA1u05kCtr/Oovs4N2ih7hu03vVnvS3beYfVlN/ohpvLzn/+0/xoynzpJsg9Cg2rgRqkJMG22PUrc1kRF7DzTY5W8hxC9zQYCTUPz9a3dPkfIurzX7L+37F0NGjYRVsYRLPbQ+sW3DdtuLonZe+iI3g2zdeZdm/unMxuFuoAAEAACQKBjBNTcFvk/2hh0+Mjlr/7r0ZLbjCAMRn+0iC32grTQ0v/ZOw+4Jo/3gZ8QSCAskS0gK0BQLDgQwQqCg4LWSd2tWrWOiqPW9a9Wsa3WWlRaRx21ivOHsypFEBUVFVDARZAhCooyBSSakAT+974ZhCmbJDz34ZO8791zd899L+F98tziRv+zN5lms+Bbn/rKqScjRCsGAapet/p6vltgjuSUhY83Fg+h/hPVBPmPlwgSjSAABlwjIIFI5yFQmhZ+JUGF4eXtKJxiJMjPfFbMRzQdEzP9hh+GXLyKXktLLCN4HXX+BrIc7O0sGsLqPAihpW1OgM74ZtvuhmvRdfSZ2LAEkUr1+GaTx8fFQAIIAAFZJAAGnCz2CujUQQRKz2wKiiw2Cxg6gVSg6MLv/xeWLtLFacKyb7xFS/9qqSdgXdgUHGbz6+5p4kEtXc3ipIN7r6M1273N6vuNW6sYiAACQAAIAAEg0DgCsA9c4ziBVCcgUJR4KrIY+a74jqlF7LPwOuogtt58AwJ3794+d5hZ0qmg20V1UGCnnZk//9vgMHxApbrU9gxUl1nfu9PQqQMReDEXBCAABIAAEAACrUsADLjW5QmlyS+B/HN745HNJF9LocOMfe9mOnHLxGOpVGc/f7xm63pcZu3m0c09161bM8EBIfFmqmIZXf8Fvig37GommHBiJPAOBIAAEAACrUQAhlBbCSQUI+8EuAVpCLkPd5Z40XhcpNPbQHRLNemtg26WVD/uTthkqq6xsW4ZcYh4TQRUhqsTCrv/OGeUZX1jrzWzwD0QAAJAoCUEXvJRKh+e7C1BWC2vWmXlB0H78bTlI/tq9Td0035qNaQFpAGBjibAzUkvRjp9rURz2ETqEJuMVwXxzllVMVJXNf1vZJK+ixM6/F64paWULFwCASAABNqGwHOe4FrJ+7YpuzOWak1Xy2B/aLeWq1JpjTfgYAi13foFKpJpAnx+dWOtlrIqeNvLWpEfjdDQ1+GwXtRp3H00LwgAASAABIAAEKiPABhw9ZGB+E5GgDDgqKi6S7o4763oXHBBXmox0sZGXFMDD9FsesAy1KZiA3kgAASAABBomAAYcA3zgdTOQoBu7qCDcnOKRAYbPjrQsb8hSo5ILiUI5N+PwduJuDpbkTjY0X///stfUWRKw3xKE+4Wo2aYfQ2XCqlAAAgAASDQ6QlUdzh0ehwAoPMSoNA0EbpyI9V7oujEIcaIqTaRQbtWztchTwmnOU0aIlygWpoaHp+O1zsIp8vhbUSWB0WS3CKXz49Ehr5b148S7eebn4hPmexvixewQgACQAAIAAEg0JoEwIBrTZpQlhwToDL8hxkGRZ5kjVwvOoCIzvhue2Dcrbu57/Ep4b08XSyFK1KLMhKLEW2mr+g8Z5rJwIAApuiUcD4+tEFPfBoDijtzDiGHIQ66cowFVAcCQAAIAAGZJAAGnEx2CyjVEQQYflPNIoOC/47evshDNGuNqu/iPaqGLum34pHZhL5iq0yZbsxk1nFeVinrzMEkjtP0SaJ95WqUArdAAAgAASAABFpAAObAtQAeZFUwAlTGvAXDaMkn/onOrr9lXGTgPn26q2S7uLolBZmHgiN1nCZMcxOeqVq3FMQCASAABIAAEGgeAfDANY8b5FJMArqO47btHtdg26guE6c1KEAmKlsu2r3742IgAQSAABAAAvJCgPs0qt/IR7Z2KPWptMreZ5KYlPA/P1/lfTLJ0UE8iUaQdW+Z962raNChmH59DKTlW+saDLjWIgnlAAEgAASAABCQJQIC9ociroq+bo0n/YfkqMxXRvbDesIYXNN6S8AntkhOfWrvP0MNIWKLdhoHvUV0GqWCU47vBGQcWWZeEmm92a8710bWG66lRreS9cILEAACQAAIAAEgIOcEyp8c/GvqDv/YtO7q1VryLnFbxGZ/60c9YYvKalw+eqNM7grltXnouvE1jKfyNOnMJcmB7tevIutVx338e0ontO412N+tyxNKAwJAAAgAASAgEwRUbb6YdiZKX8pMqxAQbiMK3QzZqnaRCR0VTAls13GfbZkaEYpMFx72m9qvTZsHBlyb4oXCgQAQAAJAAAh0DAF+YcL1VSGlhM2GUNGT2MUjg52Y2x0Zh9deQaYNqsTNiB4/MjmNLRTiZ54+tfo0MUaIUEHkviOODFwI/os6eocsm/0q9GdhzHbH5c8ySwg5QVbM+OlJsUnPDv58ajwjOqzapDFCQH7D1XOPz11IPnea+As9/jytSNIUVTXum6NL/g15ajp7z5h5A9vawKrhBZSoARdAAAgAASAABICAHBOo4OS+TE3hE+fL5MV6jLmDRvsd+lUbZacdWhRf1mC7BJz81KfaPKHphyo+lL28iNAmhC25I8u29P/1uC9Tk82KjD6dKpg6sOjo8tDN2cP3X+xhRXlxcPG/n2+cdm+rnuBdUerd+Nn+yGXSwGEzqOp4zpjChLvX196VNEZvGdOCIdpWKmL5l+T6BrvB87zbwbpqhyokzYQLIAAEgAAQAAJAoN0IqOKasB+oPC3qDkKfR2y2MsYP/Z6UrKHxIQ3qUGOfJPF5gBV8wg1nwLDStdTVtbSb5osHDJ/Gbr5ivS7U1slUwKVYT16KQua9zFirZ02U7/jrRW9fuwZrksNE28UzQuao8zmVpO7KdO2qNohWpz49tv70/E3jpcauq0Ra8QoMuFaECUUBASAABIAAEJBNAq4a2qInfgWvYf9bvfqrGvZ2RujSuAFYwtRrxiffzGdYI7xA4lGg/5+BNXNxETJjNDxSWzOLfNybdlNXp6qiOswz62XH/WZaPfx6wPWLqy4Y6Y9bPLhNR1HBgJOPDwxoCQSAABAAAkCguQTICWxiv5qSisZHyiFGXRFSEVkIFAr25JElaPX0ePS4TxorP42VeXrdpYkvp8R8i3fWGLg/dsAAXeEKCSVlMhf3JVGCeBCWuO4EwWIQUwnRnXaFl/TzSdz/dYTJOViF2gm6HZoIBIAAEAACQKBtCCjR8CStu5l3snDxFaUZWdeuIJ0Ga1KmYBMvPephBZZ/n5USehS5EKOx5dl30hIKNRlOVr6TP/3uB4TKKij6xrbozpZjBaV8bLopKQsKYm8UE7ul1eWharBOBUgUCA1WqrVH9HE8hpwSOCbmek7btQs8cG3HFkoGAkAACAABINBxBIih0rvYCKOYefn5o0uLvPFMOFGwLRdO4RLfV3+n2jkudA3d+WXwTkk8Id/lXeqlr75EyM7UBb2Me4pGBumqG+ht3/Pcd94R9x1IdESB3aTYwUjAw4tRDUSrICSFyPmFgBx7flkXOh7hoeRL2qvb77OwPSd858Xjk7X3x/Qb0CYnMXSprGyoE+UcNqivOAQuXbrk5+enOO2BlgCBTkwAvs5t1/nheUWX88QbW3Dz8jLe6dhZqxKDp+y8mJsF+TzNngMMdN6VlGnqWRo0OEOLWxB7Le81T9O2r7EFpfgVX5dhooT4H7Kf5mZkc98jdYve3R1wDBm4RW+SEksKeVQjo24WDE1dfJwUtzg5XdnCTlNdvv1E1nS1DPYHcX+xCxIecjWtuzNqGWTvc14lvlBz7K+rVdVebvaTvJxSJSzvUEteXGKN9xEGuj4GojWtNZJq34IBV5sJxMgiAfiPL4u9AjoBgWYRgK9zs7A1KlM1A67hHNwn4f3GpNQhM3pK7FaD6oc31CHVOaKqG3Bt3uYmGXBVpmKb6wUVAAEgAASAABAAAjJCgGrjER3rUUsZPORKBeutFhYZjAADTgY7BVQCAkAACAABINDWBKhqunXshdHWtUL5rUWgwRHw1qoEygECQAAIAAEgAASAABBoPQJgwLUeSygJCAABIAAEgAAQAALtQgAMuHbBDJUAASAABIAAEAACQKD1CMAcuNZjCSUBASAABIAAEOhQAnZUZSO9jx200KEaylflXbp0GaTWfjy1qeLjMhqBCQy4RkACEdkggLcekA1FQAsgAASAgIwS0FdC6pXksVcyqqCcqaWiQuWVtx9PupJa4wHBPnCNZwWSQAAIiAjAPl7wUQACskmg7F0JuwwfggChdQioqGIDjts6ZTWiFLqGtoamdiMECRGYA9dIUCAGBIAAEAACQAAIAAFZIQAGnKz0BOgBBIAAEAACQAAIAIFGEgADrpGgQAwIAAEgAASAABAAArJCAAw4WekJ0AMIAAEgAASAABAAAo0kAAZcI0GBGBAAAkAACAABIAAEZIUAGHCy0hOgBxAAAkAACAABIAAEGkkADLhGggIxIAAEgAAQAAJAAAjICgEw4GSlJ0APIAAEgAAQAAJtRoCbcCn0MquwzcpvnYL5JSknQsJecnBp/JLCwhIOX1Qu+9Xlkwd37jp4OSGnWvzHqi14FHni0mNxKR+Tlqt0MODkqrtAWSAABIAAEAACzSHATwha/tW1rPqzss+smHOCxa5foD1SOFl3lqzckSdAiP3IzrGP3e5HZK2FOz93+2rp+vh7J/5NuCMV/3GVcuK2LpkT38Gt+riazZGAo7SaQw3yAAEgAASAABCQFwJ8PqJQKBpdkQNVpX6dKWX3I95Nrz+91VL4fOxgo1Fq2h98Ph9rqaaKUFciie5w78Zl1NWSqLbw6UYWOpT4YoQhvuGu9uwpiifS6g2i8jTMEVO1CSeM1luezCWAB07mugQUAgJAAAgAASDQKgRexh4db9LD1LyHkffnS24jc7LQ5xFbjEx6CP+8Zm1JyMUDjNyLKz5fwUIbl4zz8u7htSi0DEuWpOxcNEIktuLoc2JYs96QdjbQa1bgzk1zSPkROyMeJ1zaIcq76KAk7/NbWB9rUytrU5NJh2NfiYtjX9u12sgcR/awGLwGIU0inv/mf6vWx73lI07G946TccSvU7Ayqx+WiOMJIXZsSKCwFiOTJZfTxWeIFT4OmjXC1NwaJ326NAL1IEQVL9S0gBWvhdAiIAAEgAAQkAsC+IxdudBTlpXs0cNcv5voME3O87B+Y9c4TFsfNr3/+6z4bXPWCzXn8ahzN+4e42an9uHZ8e9n+662TP/b32n68ulHZr+fsniyHZ2nYkpDr35hjgj2WRZ2+7DBh5Qd3l+6qhm83DCsPqOBX1aUHH42mb761MWZDw5u2DjDD6GBW/4JNXt7ffLS9X+PGx44pHsZ66jrF2t8vt9909/uaejm2WPdVKOSJzHpD0OWTP4pImDb4ZEOaskX9y35g1ST+y7m9h2tD3xEMxr9w/CQn7KmLFtjra5mgsTxCD08sGT02qzt/7vsyVC5vmvBV4N/vPZsO5OWG+TotwWN3X/2d3OUdfGv+cGlstxjzdetvr5ofomQEwgAASAABIBA8wj4+eEHP4TmE5A+zD45bAdCq/+3ZaYeLs/R/qXb+r1kwQy/xYH8kudp2aUq2obYO1VajqecmToOdmSid27eg5hULMVhHQ1GaNeaGQ76iK/sOmvb2JCliW82DDOtV7U3iLk+/Y+ZGgi5an258fTh849ODOiGpXtuCd35DysPDTGMP7cGy/y51BfLMJZu/+miw95rqZMs1f5aGeHz6+U1E+2xtINa2pI/LhCVVI160vsNH45+Ou0+woOJbRbOYyIVB05K0Fqc8dyYfmZcLuWzmcuX7Jsdk7bBjHJlC0KH4raOMMXSvdSeDw8WNluYS4FewYBToM6EpgABIAAEgAAQEBFgP76agr7vTVhvROCW48ll5NXDs4HDFx4gLpkDfcgo0ljiYwFETE8jDLiywnf4dcHg3vhVHIbnsZEpXXxXxzuevkYEDg+/dFWjkTfkS1di7h03+z5yGO+ErTcyUO2H2if/FFvy1aA3CH3mZCaMJfOKJCRvfB6hGo+LUHWbRR+hkJVjLFZKBCUXA43JeXT4nl9ONEQhQ3UYCtlEaBQQAAJAAAgAgc5HQFULodfFeIIb+aSnYPPqLYbAebxh4YHxv577fbozYWI9P2rkRphH4iCyCmja2IwbGMY60YeOl0DggNcXiEWa+471SWa95iNnsiRBXloKGm9OWIvYuENkJbiaBlZZ1KyXn4/Qiv8lLBvUDa9XwIlCFctYZHPEDjyKKjmjrmZeRbiHRQyK0IvQBiAABIAAEAAC1QnQPxkyHB2JeFhIGDcFrBvht0UeOGzRWFuaENYbJ/fi8QvITeQ5U+2KTt98QhTC59O6miJ058Cp22XYLMKB++rapThiZUPzA73vqLHodMR9Ys0E4ufe/zccjffqSaN37YvQxr0R5AIE9oPo66JFDJK3WjWKLDKafn8m2vLjEVYJsXqVQhGwbkU/ZyOKmi7W/MqNF0QtJRnRlyNEza5VjrxHtNiilncAoD8QAAJAAAgAAUUkwPx8gc/KMb6OZyWNc+DyEM3Kywet+MIFTxQThxF4DhweObVyx2Oa/kY/4evVT3PmRWz7evjSyafXIgcm9pzhyPXpOS6EYF2B9+4OYnmS5WC7CY9a3iHMNDKU30YxXsSoKuOzpSuYg0c7n3X3GRgTfgcxl90dRSwQnXV0WfDU5XanlwvlseePyCvg4T3rSol81Qusijf8+sD+q26zhzCDENMesVIQsg9L87CwGLp/Gpo9Y3BVA5nEJD/FC10qKysVr1XQIiAABNqUAF4tCJPN25Rw5ywcPlct73fpRQxEaSUvLl+Ne4sM+g7up/k2k9OVYdGNih1TCVdjUtnI0r7vJ+YoNYvvwOxOunO4rNi7GSVI38y+L9MQx5TlZsQ/eMrmqeibW9kzemjT6nX6lL3MeMbX6W3RjaiUU8hKyzdh2muT4gXpj/NplkzR7LmSh9dikvPYGgbMT4f0Ei2XJRyEt288fKVqwHTtY5yfVWzCtNamcJ8/SqNY2ZvSKWSBwkhculQ8WVfCvYTn+byuJsYMG1vTbsI5euyH16KT83imvV0ddctevNNwsCGa04ygokrllePJd+0U6BraGpoSKh+pFAy4jwCCZCAABGoTgAdtbSYQ03IC8LlqOcOaBlzLS6wqgX1mkcOC01X3kqvpO6/+NtZacqtIF7JswDXPJFWk3oG2AAEgAASAABAAAh8lQB/+U8Lj9bXE+EhFu7FOo1qZIaL5BMCAaz47yAkEOg+B7Ozsly9fStqLJwzfuXNHcmtqampmJtoFQBIJF0AACCgYAQ3tbuJNQBSsZXLZHDDg5LLbQOkOIFCaFn4lQYXh5e2I9x7CQZCf+Qwv0KfpmJjpN7QzUk1VBa+jzt9AloO9nY1rJsnwPY1GKyoqklZQ+tbGxkY6SbGu2YnhlzMRw8/HUbTfQdHrrMIyRNGxstQX71TQmBZzH0VdSuOZDvVxwXs7QAACQAAItJAAGHAtBAjZOwmB0jObgiKLzQKGTiAbXHTh9/8LSxe13WnCsm+8GY0FoayrWZx0cO91tGa7t5nQJGhs1g6U09fXV1ZWFgjqWMuF43FqB+rWplVnR+3Zez7dfeanwq7KjPpry6kkUY1mw35eMw7vWNC4QO1ugHbtOvjwfdf14xr9aWlc0SAFBIBAJyQA+8B1wk6HJjeZQFHiqchi5LviO6YW4XN5HXUQW2++AYG7d2+fO8ws6VTQ7WrOqYbLp7rM+t6dhk4diGA3LChjqfVZafXFy5j6zVKHzTpwKl3Hc8E0F9JCLYoLPpVk5jl36+7dPy8bjbIj94RnN75cXcdxK3zNciP/TlTQkxkbjwIkgQAQaDkB8MC1nCGUoPAE8s/tjUc2k3wthV4Y9r2b6cQtk3ioO/v5G0YGXY/LdPOxrAZCkP3XD7tU3Dx4t88nFeMUw0lrvvcwEw626vov8I0JCrua6TXKsinDr9UqaO8bW1vbN2/wmTc1A46vGaUo92mXT+Yiw4AxjsIGZSfe5CCdsWOccZ/RGT7THc6HRCexfUSdKml0ZvgfwXdRX+N3MUmEeefgG7BoFFOYajlqukPYL4f/TXSe5iyRhwsg0IoEXvJRKh+e7K1GVK2y8oOg/Xja8pF9o3VvP7UarRIIAgEZI8AtSEPIfbizZMITPpJPp7eB6JZq0lsH3SzBBwhWD5yy18XFuWHnbTwnzLVE/x08deLAVdf1o4Q2IJXh6oTC7j/OGWUpN6NpmpqaKioqPJ5wY01RY3EMjq/ecoW5Yz+Kz0UO08mjvYlGlRUUIJpTd/G4t353Q/Tsfe3W8t+/4+Rmx6j2n77gszfXD0eG7Y1z3+YiGmo1G+qpE3w3lT2NsAIhAIFWJ/CcJ7hWUsfHstUr6iQFWtPVMtgf2q2xqlQaGHDtRhsqUnwC3Jz0YqTT16r61PNqZgwiDqWpEcgfR/3n/jzLmXh0m/LT14Wk5nCRyIuH9F2c0OH3kr3Ka2SW0VtjY+OsLLw7elXAMVU3infFQf09e0maRZ7SqCKx44nzG1GdBze+QzTPrWsmEiaaFeXm8l2puaUuuqLPj3kfJ3S9GA+iggEnAQsXQAAINIMAzIFrBjTI0rkI8PnVjbVarcfP8Fr+N0IIP97pNJG7RouY5l9QJmWwaejrcFgvsIwcBQajpr+wdowcNecjqrKz4jkIbwJffxD74uqQEBt2FAreIEt8I5TDdylvYBpcHdAgCggAgSYQAAOuCbBAtJMSIAw4Kqr+IC/OeytakCnISy1G2tUf0VKgRFJCy61aGfhMQpseDZgAUoXIyiXeTERNTU2iDb7GMZJbRbugGzKIJkl53FQ0EScFu1GFoew9Pn2bV8e6XFG66E0sLrolPwP6GvLV8dVbBHdAAAjIAgEw4GShF0AHmSZAN3fQQbk5RZInNd2xvyFKjkgmnSj592PSEXJ1tiLbwI7++/df/ooSulcafEaXJtwtruGZkWkKYuXwnr3iSyR9LYlUoAuqDg2x0nMkLbLqNwCh7Jv3XxMxpY/+i+HouPYWjoxmRx9Zv/6P269rWGuEYI2PQVFOJqJZm9SIJQQhAAEgAASaQKCaR6AJ+UAUCHQeAhQanqV/5Uaq90TRWkLGiKk2kUG7Vs7X0UHFxXhe+6Qhwqltpanh8el4vQPxUOfzsX+GLRkz5eNpxXjfX3HIT7yO51fZGorv5ebdysoqLS1NqC6+lhu9m6Mo3dQeRYbdzB/FIDcRQcrGg6Y7XQwJCYy/QHY8sgn4TPiRYCddi8nNdbI0Juwy/vtixHkvdr1W/xig0hvn0pF+T/jP25wOgTxAAAhIEYB/I1Iw4BII1EmAyvAfZhgUeZI1cj1TOPOczvhue2Dcrbu575G6YS9PF0vhMFtRRiI252b6krtO0G2XBQRQzEVT1Wnm3gEBHlbiietxZ87h/SWGOOjWWaEsR+JDtPCy03fv3uFXfC3LqrZct098R6Ok8xfiRs0S7gOHqG7fbDVOvPX4ZSnu+H6DXEiDDc92zLqfi2xG+xqTVZp7rwjw0BatWaBbBQQEaIg/BmzWf9hwH+Yv2ha45RpCCUAACHRaAjCE2mm7HhreBAIMv6lmKDf47+iqETKqvov3KBy8xdYbLi79VjwyG9lXZJVRzZhMY7poBpUy3ZjJFB28UMo6czCJ4zR9knhFahM0kQVRCwsLrIbwVRb0aTsdqGbDpjug+IP7WMJBcaImZUtnD2HHi6w3PJr6DNtvOr6fmgk1oRtbMs0kpjndksnUF34MuJl/B19HZqP9GGJDvu1Uh5KBABBQdAJgwCl6D0P7WoUAlTFvwTBa8ol/orPrL4+LDNynT3eVmvRel6wg81BwpI7ThGluwnG5umRkO87c3FxVVRW/yraaraKdstusZU607L37oqps91oF8/l6nhNmibyztVLFEdzof/Ym02wWfOsD89/ETOAdCACB5hPoUllZ2fzckBMIAIGmEyiPTy2PS216PhnKUUZBGlUT+mRIsXZQRdXFVrW/wh4+0Q4AG6ji0qVLfn5+DQhA0kcJhOcVXc4rqltMwP5QxFXR16019aHk+bkrNPeRRvrw46ImuXbeyHeEga6PgcR/X1OZGve1+rFGOtwCASDQ2gSw9cbeebG1S23X8rrg9RntWqFMVTYSDDiZ6g9Qpj4C/Ozwc0vue4b8n546IVL+5OBfU3f4x6Z1V2c/DVwumLzVQTia/z7z1tpV9ieHggFXH0nZjIchVNnsF9AKCAABIAAEgEDLCHDevkxNqRDP6lC1+WLamSjSy0Ypf3DlvWSHcmUVvN00uHNaxroDcoMB1wHQoUogAASAABAAAm1LgPs0etw6hO4emzLyiCMjKiyDX5hwfVVIKZ+bFjg+KhXdWjvxyHjGkdWny8ljY8TKsF+F/rzdkUH+LX+WiXdDgiCjBMDmltGOAbWAABAAAkAACDSfANXIetXoR5tTPOet6KaOVMz1Kji3sEOOL6AaTVjqGDqPN+7bnjbqApXuFKmzAPOOLg/dnD18/8UeVpQXBxf/+/nGafe26sHUuOZ3QxvmBAOuDeFC0UAACAABIAAEOoiAtqlbX4RyTb0G65GjqOVpqlgTPO6m6TDIwBZxXYaYMUjTjPtEpCH3aezmK9brQm2dTAVcivXkpShk3suMtXoOeIgVgswRAANO5roEFAICQAAIAAEg0HICFeRS8Qq8BQ65iEGqQD5xUgiPU+ukN0LwUaD/n4FSsnApqwTAgJPVngG9gAAQAAJAAAi0lIAGEi9iqFVSbQOAOPJv4P7YAQN0KwSE9aekXFumVjEQ0UEEYBFDB4GHaoEAEAACQAAItDmBKwVZxJ4/FdUrUtZBKbEsIo401EST3Kj6xrbozpZjBaV8bLopKQsKYm8UY5sOgkwSAONaJrsFlAICQAAIAAEg0DICqlbuzghFjHOKQEhvWegXA8rwolTSkqPq9LcrCJq8PQhXsGJ+bH+81tSA8LgZOG3f89x33hH3HcjWDqU+RchuUuzglmkBuduKABhwbUUWygUCQAAIAAEg0JEElM09YqOtEtMRRUXNiqGqZTLlpJcO4W2jmM07Pc0l9m0pUu9ur6KuPfLkOWUL4oheipn3hHuxb5ISSwp5VCOjbhYMzZrz5zqyQVC3NAEw4KRpwDUQAAJAAAgAAQUioG5i5m4ibg/dwMFAfE3V6zNYT3yj49BTfIkXNugaDfA2qrqHKxklAAacjHYMqNVJCCjNmau31LRk1DpuBm6xjmbUz6rZpwpnXEN6DlpHvlYzJ34TIz6bc/pAyYZk5Dak628TVLsSc5Ir81nFs3aUZyCihEUW708/UhnuqqpZUjJ9HfpmpZanJT7tisj6OOrtF6E1pr+QKfACBIAAEAACckwADDg57jxQXREIUNW6IG0lDWFTqEpdlZULVfANbdc3auZcdkgI750OdeRwmpMlQqq6+yeqlGWXbjrL1/5Ea4FH171f5nkfRrgEii59okfF62zeOw4aulDb05IXE86OK6G4uNH7mgstOUVgBW0AAkAACAABMQEw4MQk4B0IdByByppV0yjd8ESVEl7Yfe4DDvfPS6V4Pf+3i7Fl92FfCPchQmX/sfs5a7tY4i8wsZ8TQu+3/fhuXy6+wGL4lffgMXdfOnfftU585DyBBQIQAAJAQFEJgAGnqD0L7ZJrAhzOjTT6RIbO8e3YQhNkpZYF/sU3puEmqS1do1bVMmXKJ0IDjsu7SlhvOFQksPiIqb5gufoCVFmW9+HE4XdB6cIkeAUCQAAIAAGFIQAGnMJ0JTREfgnwEV7dTwSuxBXH3/B77jkHmm9PVWcHWi+m9qYpBefxKn9u6ezFH1Jp5Kgop7KAyKP0KfGKRIOwCN2OKHSIU/nWnfqJDbUvU332fN757zjEBDsIQAAIAAEgoDgEYCNfxelLaIlcElDFP6Lo1NHmWHnKnM9UCS8bDjr0fxbS9HM4m0JLv9jAzsKeNzWUnY+Xh9GX+CsVYNONU9ndib5rTO0vsNJ0f80fLXh/Xiqbs+PtkTRcaheJbScsG16BABAAAkBA/gk02QNXHp9aHpcq/w3vpC1QdbFV7W/bSRsvk82uOH+XP5tBm72GNlukX6UKnupGpfRx1HDZrM3nVlKo2N/Gi4gRhCaV+Nlou3jrJ3tX8lEX4rub9gG/EEYfISMK+ubqE73VJwoqOagLTRm9TeA+ECfBOxAAAopOwI6qbKQHP9parZu7dOkySK39eGpT6z34rHaTmm7AxaWyd16sXRDEyAmBkWDAyVZPZcQUTubRv+2vjN6V/3udr2NN4SQjlFvi9QtnzgBVs64IveP9d5VzgZjixpmxrnyUu5q3nZIqX5CewT1/n9gfJOpCCepaLrbSKoJ2FuYPpvY1VaYjASvhfVCSZFhWthoO2gABINAGBPSVkHpleRsU3EmLVFGh8srbjyddSWqS88eQN9mA+1iBkA4EgEATCTyIY8+JE+fJIs6zwaEgi7spiyu8lnqtuBDDvhAjFYHQg2SO2Hoj4zn8kAh+SDURuAECQAAIAAEFI1B7Co2CNRCaAwSAABAAAkAACAABRSMABpyi9Si0BwgAASAABIAAEFB4AmDAKXwXQwOBABAAAkAACAABRSMABpyi9Si0BwgAASAABIAAEFB4AmDAKXwXQwOBABAAAkAACAABRSMABpyi9Si0BwgAASAABIAAEFB4ArCNiMJ3MTRQ5gh0GWSnYm8gc2rJrUJdeIJKlSbsftnChnbRw5vzQQACckCAX/j4VNhrz8nDjJr+qC94FHkly3iCX6+mZ5UDMoqhInSNYvQjtEKeCFRaGfAMqPKksWzrqqKKd9qsvWVeWymtqqHdVkVDuUCgVQlwcuKXrDwRNq45BlxO3NYlayd9ltMLPu6t2ietWVh7DqHSulgLD+FuzQZAWUAACAABIAAEgEAdBCiqCJmrEb8W+TjUIVBXlFBSTcMcMVXbz7NdlyYQ1zCBFnrgzDXOfku308J1VJaxEYVdOnMd3hSeui9Q27aEnchXG2yr9O5Bgcdeys+LdcYyyeMauZyTB0s2JOEs1H9+0VSJLJh6jVDReki3CxN42wJL9+US2fsi3lu6qjEdp/CunyxaQMjQdq3U8rQUnvnIfxz19otQ4hwhCEAACAABIAAEgEDdBCLO7t2y8Ked+IQ+92lbd/7iTw6nllze9uNXv50lcvgsDPttWZ9upDFQ+Djo+++2hKeISvLxxBcPQ5YMv9b/8d9T9cjYkoSjdiMfX0vbxCSezxA6kkCLPHBqZ7/D1lt5TFTJrnBOET45my60rrqo07roMzSG21bk5PCLOErfLu46lln5LK74x5D3z/i0ifO0vjXEje6iTldSx+d2CwOew6KspEn8UiCy0wxUKHllIeGc11wVz4lac3SU5izU9rTkx4QXbztZFpOtbGNedXq3uAh4BwJAAAgAASAABKQJBP+UM/do6Kmdy2KOLF94KBEnxW774qvfWFuOXrp743jAi52+jkEvCfdcbpCj35Zw5v6zlyLO7g7wQaiUKMaqX38UviaMxSZuEPu/P9eg8a6WYL2RODr2pQUeOOshGnbUiriQt3OIkxm53B5qS63Ex2Zjt2t20eCfeQU4hUYP3474aYUj/8YOM25ouvLDDTTvfqV/Xqq/5VQsX+DxO+Fg2/SckjyPNsyl7AahKu/BY+6+dO6+a8KPUv0lQAoQAAJAAAgAASAwMCxtex/C3nIJex3meyypZKrK7t9Sxu+88eWQHjh2zf+OBztODmctnES5sgWhQ3FbR5jip20vtefDg/cS9DSYPmuZa1acuD1lwzD0MnpJOPrpsieNSIHQwQRa4oFTwT4w3r10YQu6VJuTTUH8MgFhveGgTTFAlRkp4uHOEl6OoItdL9HIOk8oU/tVMlr/nFdGpFYksHCU+oLlhsl7DOICNZfZ1M4DMUAACAABIAAEgIA0AcL5QQZNYyZ+V0YUbM452wtHRPEj2nA8kSp85g407ioS55e/IzPhl26jV36N9m19yEHJ/+5AaNlIR1jYIGbToe8tMOA0CMW7dBMZbpX1LwKr5KMuBobiEU+asq4yepsv9NV1MTQSxZfwxN67Gjz0lHFFKirodkShw6qiXRfYMSwBxUB99nyadQ1JuAUCQAAIAAEgAATqJsAve4MTBAI+fuN+EHtJ+Dw8okU+wMuJbOJlCxRVTUkppoO/GI9SgnfvCfopZfq+MUaSBLjoUAItMOAePCvnI9XxM9X8bVSmD9eeZis24Ws0KJf7oBR1tVcbRfhcu4waRtVAguTHIoecvo0K8TNAhxboJqWfpHVhAABAAElEQVQK/mDRhJ8ilR9H41U0vLinStP9NX+04P15qWzOjrdH0hCidCEtyBqVwS0QAAJAAAgAASAgJvC2lEPaaiUpx1feQYOs6HR9d4Q2nrheQkqk3fg3HCGbrnSKmi5Cd67ceIGj+SUZ0ZcjkGTHQ5r91z8MDP9tUzgaO8ubGHiFIAsEJL7VZiiTXvrbbb3VblobltfMrE5FlKodQ7ibT5WfnaX563aNtdwuGnh+W/bb1XE4C+/uM9SL2fXGHkl28TisAFEsdZNF8ZVZt0s2paNlo9UneqtPFFRy8GoJ7MNL4D6Q5IMLIAAEgABJgJPyvdWIEDxSxCJuHdyGD/1s7JdTfU3x70dOxjorr73jt6b/4S/59ZcQstp35TGHOfvDNgwjfmJCAAKKRICPnWopExytEdMesVIQGns+wAM/9edGbd3iHWB3ZJePW0r4beSzMZSc9zZ0/zQ0e8ZgPBNOFJjlAvFln/HzHX660/WHKUz4noiZdPh7Sww4VBFyOC/kX8ook8rkZDT6O73ZopWh5cdCSmi5ko5HGXFve7+h/TZUVV+tMj/t/fcRwiRB0I7Cd2PU3btX5j//cOSRsrd1xfkskgj2vuW92x/bpZt6ZWHah6AkYnQ1aGdh/mBqX1NlOhKwEt4LIzucHygABFpIgM8uKORoGHar8V8RtkFvJlcBPx/nZKHpi5Z15by5v+9Y8O2I4GML715aYSH4QPx/eV31TGKdJaw35Lb62Fqw3prJG7LJMgENK99rlwdSKB+epWSxVfVdPN1MydWjGkz/l4/6RN1IeFuuOnuj6yAmsS8EQvSRW5IjPotOzuOZ9nZ11C178U6DFCfSSvKe4Y1IDo3vQ9xAkA0CLTLglL6d23Vs1/KEZxXew+jDGRKvWEVoDKdm87I43/9dKxLx950r3ScS5T8QWm/4Fq+BKOQEXRKvexAKcPghEfyQmuXCPRCQawJlD/f3Ghl0Pu3FAMl/SrI9sA16M7tVGREgfbZuXO1P2MQbVp358YsF+3ZeSVs4m0EmEdtWEuF5xJYhC48h5rK7J+Y146AhYSHwCgRkmgDdkOlIGGcMpnMNPSndrEeMta4RiW243kN8e4tiDXsL7Trilv3ftvVofLCHYYtshlrVQUSLCEhNPGtGOSUcJX1LdT9vjeHMimcJRV/urW5yNaNEIkslnlL59kMzM0M2ICBXBDTsJl2LutFTahE3bIPeGh0oOVpL23fSJFxgYnK2qNhShGG/ubXHdcZOhBbevLTYAh5JrUEcylBkArkPQsPRlrmwe4hsdXKLDDg8hJrfe16uA/FXMHIvL6N12sadsSbXo3VswdZRCEoBAm1GgJN//4dvD2ULF4ThbdBnjTA1tzYy6fHp0gjU8FxhPKPLe8QJ0e6aiJMeOn5RKLHlDj/3xKY5uATiz3vO4dhcUnd2bEigKNJkyeV0cvoy/8Uv3pP230q8vCtwvHePdWfxFBmFCaoSk/gBnuODN01wMBO1zVjjDeu80xebEPo6Im0Fo8bQtcIAgIYAgVYkYOh2OufFl7B7SCsibY2iWmTAtYYCUAYQ6NQE+B9yY1jJH4hpoXVvg14vHcGHJ6yUMvH5hvwPZTGnCfvt4aHFS/6gH7p49WbUue1D352/n0NEHlgyemXM9v9dTkq8un0O66vBP7LwhAbuu1TWnR++GPPV1Q/uI782p6vVW5fcJYSzHqS/YD1KPLNr9ejfIhCa4s4QD1GfDnD1DsANWnt2cW9xnNy1DxQGAkAACMDgAXwGgEDHEsD75OBZn6iMVfc26PUqh5f6SAfRV5n/OusO9i1Z2fVg0CkM5gli+JCTErQ2wufXc2P6mXG5lM9mLl+yb3ZM2gYmg8g/fefl38baS5ekENcHRg8+IGoIc8qpQ+uJpXPYZpUKG8cu/yRx9yCY0yPFBC6BABCQIwLggZOjzgJVFZ5AndugN6nVlL6+6xE68CkDj8OOWLjpKKuEGJ3VRyh85RgLKwc7pq2d22xJiXirdTt78diiJFYRLr4+f+PqtajLd+MSXkZtGmQqGVDFbfv6ZtaLa9umIBQxwfkXwhMJAQgAASAghwTAAyeHnQYqKyaBerdBr7u5xKgr9t2JvsI0FezJI0rQGzDzTZov62kGK/HWn2vXDHnb9WWgeT5CK/6XsGxQN+EKCYowF4ec1y8ehCWLU5QXH+YnNtZ1T2/zYRpTkMbEjadyMif8dmDINIOkU/OMFKXd0A4gAAQ6D4EmG3BdBtmp2Bt0HkBt3dIuPEGlSo3BsDass4ueZGvtNqwFim4GAck26L2H9xBvg+7ZUDnKFGx2/Bf+YAbTDbFfnAo5jNy+xPPabp38V2vo5737uDH7uBnk7ZyQxubQ9Psz0cYfj3x2ZiFTG3/luaxbMWrOHhbKqOqsnIZqksc0fExMfYE0lBFl0NIDu147LDiyyWmFcfqW0ZKtfevLBvFAQC4IvOSjVH6Tn+xy0bQOUVKtsvKDoP142vJR42e0NFmtSisDnoH0eESHIFWcSlVUqTzJjgdt3yxVDTiEuO0pN6kGPh7GvIOtDZpFQ9ug11Ekzf7L7weO/m2y6W+SRLxFLf/Z3uUrli5HzIHurDsxCAX846aBDL8+sP+q2+whzCDxhuz2YWkeFgJeFkKlPEl2hbgQ8N7gdryo2q23qlU1k+jjtsS9fuay8UiAjZp6+oZhYMNVsYIruSXwnCe4VvJebtWXOcWt6WoZ7Pbb10yVSmu8AdelsrKeQ+TrwVj2roRdRu5BUI8ARDeJQDsbcHQNbQ1NsOGa1EWtL1ztS8TJfZhWZsW01iB+TLEfXqu2DbqDTcNz7LEvLerBK56pQ79+VpTMLD6D2Z3CL0l7+OTpazxqqmPdrx/TULzSklOYcC/heT6vq4kxw8bWtBuO5z5/lEaxsjelN/mHXOtDaUGJ1b9EbFbsg1It6wGizeWlyyWT1HsMcOxeFct5FXvvBQ+p2bs66zUOA3yJqui19tWlS5f8/Pxau9TOVV54XtHlvKLO1ea2bG07G3AjDHR9DPChtI0KYMA1ClPbCVV/9rRdPaKS4dnT5ogbUUE1A65hec7jhVZ+p+uQGRuRth12wRCCgS9RHR8Q+YwCA67l/QYGXMsZSpcgywZc435ySrcGroEAEGg3AjTGhkcJG2pVh4dcdcSetVqJEAEEgAAQAAKKTwAMOMXvY2ihPBOg6nWDKafy3IGgOxAAAkCgbQjAPnBtwxVKBQJAAAgAASAABIBAmxEAA67N0ELBQAAIAAEgAASAABBoGwJgwLUNV3ku9f379yUlsNBYnrsQdAcCQAAIAAFFJ9CiOXB8dmExn6anXXM2dcGjyCtZxhP8erWodEVHX0f7OCnfW40IYSLEIhId3IYP/Wzsl1N9TfGO8pyMdVZee8dvTf/DX7JbVULIat+Vxxzm7A/bMAyLtDAIBILc3Nzs7OyCggIGg6GtDbuNtJBovdlhp8160TQrQZZ32mxWgyATEGglAgL2hyKuir5uk57FFUVPUqLe9BjnTW+/PeZbqb2drJgmdWtNNg/39vH9bdnTnMU1HvU5cVuXrJ30WU6vGvE188N9DQICfj6OYaHpi5Z15by5v+9Y8O2I4GML715aYSH4gPdcRa+rtidlnSWsN+S2+tjallpv2N+G7bacnBweT8E2da3BV1ZuYafN1u2Jdl7n36SdNlu3pVCaghAoTQu/kqDC8PJ2xMcU4yDIz3xWzEc0HRMz/ZoOkWpN5rJLEU2LKjKsiljRkQ9Le3v5MvXrNrXKnxz8a+oO/9i07urVimn4hv/mXkRg6CQ/b3pTcjVcJqS2BYEWGXC2U27cHFtta3980iI+ZlFNwxwxVev+QLVFIxSmTGVEfHd9tm5c7U941DasOvPjFwv27byStnA2g0zSEjX1ecSWIQuPIeayuyfmGTW3D7G59urVK2y6lZaWKgxCaAgQAAJAQLYJlJ7ZFBRZbBYwdAKpZ9GF3/8vLF2kstOEZd94M+rWX/D65KrA630X7J7mKBTQNTfJCz4RfLckcNs0oSVYI6OqzRfTznyu1dSF7MTBymYUMleFgK+kXOMZw6/gIkSlwASsGrTb/7ZFXfD63qFVBxM4Qq0LHwfNGmFqbm1k0uPTpRGox0fa8vLW0fEmPbCwkcmkGRNG/HIpA2fgpJ/38l59OTY6aNEkI+9AFhvxCxN/mSUU67FwV6RwZhYhZhKYJqqYe/HHEd+fTCGzh403mbPzwBYvsmSvFaFv6j8Q8SP6dWSy5Ggtbd9Jk7AiicnZInVKEf5Ovbm1x3XGToQW3ry02KLGN6sRauOzN/Lz8xMSEq5cufLkyROw3hrBDESAABAAAq1DoCjxVGQx8l3xHVOL8HK8jjqIrTffgMDdu7fPHWaWdCrodh3HKLAvrJ8//9vA6xxkqCL1T5/OWLBuEuLEnIh+Xady/MKE66tCSsnnYEHkviOOjO3kX9RR4vi+BsOV52f2nXJkBDsxj6w+zhaIZItjj59yZAb3YwY7Tn+UkCOMLQr7+cjin+/tmE8WPvLe9SdvIv8UVnRk9aFibO0Rgf0q9Gdh5HbH5c8yYZq1EEuLXqU+Ck0vh1+UHHPLDPcODeUGOfptQWP3n/3dHGVd/Gt+cIM+HU56aL8v1rjP+SVs0ifvn8Vvm7P+/mfEWWN8Xlky69hXY4/5zFkWMFSLwn8R6DhmL3PhqRsTtbKvLpk6eywKvbrAhRBDye9EHyk+Hq+/b058Gvm8tzEoImYtffvRUMPi65MXLl9oYXN6gXPTW9axOVQlv5cehN/Gqjg7mCGUSehkrPGGdd71i00IfR2RtoLR9IlvXC436UHMR9coFBYW4i3RO5ZCw7XDeTsN84FUIAAEZJJA/rm98chmkq+l8N88+97NdOKWSXjQnP38DSODrsdluvlYVlee7rFwXT9+8X9bgtOqJygbe8x1D9974lT2oEVmtYa9Kji5L1NT+PiM5MzTR5Zt6f/rcV+mJpsVGX06VTB1YMOP/1uBCd5/HO/3/u65letufuri42tdnnb8n9nrrBf+8eVoRuH5rZe+8lA+k+TAoFew3xZcPX9LfcX4o1/mHv/51qIxCLnivJrF0efW/vRg5DAPd5O8o8tDN2cP33+xhxXlxcHF/36+cdq9rXqSR131RsFdIwk03IONKYQYKi1jXdmC0KG4rSNMcYG91J4PD97bUN4HF/YjtPrvDVOJSXJM+5du66XF999IHmlDjCWWsY7uRfbnz6wYgOVsZv617cGnS4+xZrlgcwYHadW7kjHky8CwtO19iNwuYa+jfE8nlSxwlrOpeOGsB+kvtD4UsW7+b8FvEQhNcWeIZ0WcDnAlj1Vae3Zx845RolKpAwcOxMOmz549+/Ch3gN6u3XrhsWqoMrYlYwblzJGC9QBAkBAZghwC7AF5j7cWWJr8bhIp7eB6JZq0lsH3SwRjS5JK62lb6yFdPVpqIYBh2UcPDxQzOUCNjITz7GRyogHQxEeaKvgl+MLA4aVrqWurqXdNF8pkbovXf1jdncnCnT0Pr3jwVusEj8nbB2y/WHEPB9cqO68rZ6RTgm30hwYTgjl4vgFm77C8d01p966eNQ/OqQ7cZ4n0/vCngepeajfu9jNV6zXhdo6mQq4FOvJS1HIvJcZa/Uc5OzhXDeqjouVtoJaqMVA466i0vjl7xosq+TpxRSH7/uIu46LP1nSFpi5qcheKSssQChFMq/erK87Qqc/iH259VUhaZKuMV7PiSTfk/rkZS/+wOjBB0RaMaecOrSeSaxCrabmxrHLP0ncPajhg86r5ai6UVZWtrCw6NGjx+vXrzMyMmAItQoNXAEBIAAE2pIANye9GOn0tapuakkecmTV9Y+s8KsLihSlGvTQQZwnr0qdtaoXK9UQVcPeeCjq0rgBOM7Ua8Yn38xnOHzkxHTxUC0xukWqxH33EOmN/IQwCYlA7TbYriAonjsTG3A4iKL5hHhXFak20FRVcBReDvEo0P/PQEIUQmsRkFg7LSyQsO4lthJFVbPB4iiqPVDyo9e4o8nqKbjn30pnEJtoGtr44zhQMgGzrDBHSkpTXF2t7GKhD2VvEPpEXJg4Vg7evz5/Y6oWj6emqW9q2q16D319M2sd//TqIUuPTXD+5dqzdYRt16zQpUsXEzLgTUOwGYdfm1UMZAICQAAIAIHGEuDXbYNVZcfGTvVf61VJ9V5RDetZ9SCVQ6unx6PHfdJY+WmszNPrLk18OeXeboMmjmAqa6CC1DcVpEsPr5x9/+wpGll72Faq0qpL/nv8LN8fO2CALl4VgaNrLYyoEoWrxhNo0SIGSTUUNWzL37ly4wWO4ZdkRF+OkHapScTEF3TXUWNR+K5TsS9KCl/dOrljyW1kLk6Tfqd1NcXFXryRQUaW3DgdhJie5tg9R3iDI5LSSnB8Qfrdm7ela3tbWkbMmcSrH46vvIOG2on9fNIFy/a1D/MTG2sm096ipvWGF6gyjSmIOXHjqe/x+OaBIdP2YBO1hUFPT2/AgAGDBg0yNjZuYVGQHQgAASAABBoiQBhw1GoTgBAqznsrcjQI8lKLkTbhsWpK4BZmfUy8PPtOWkKhJsPJynfyp9/9gCcoVTTZt0E3GjEaXbzyOp+wwCryE1KvIvtPHaq7GOrRg6pvbIvubDlWUEqsaVVSFhTE3ijGNh2ElhFoFPz6quC9u4NYnvhjoGExdP80NHvGYDwTThSYVTuWiaOq3i1Gff/TBbclYwcvIeLsiRdVUhM+HnutWh1DMR1yfuPw0TO8gt2GO9yOSEZoV9R0PSzMGDwXoRUjeq8gchLBgStxLadMcLYVRuLZYxEL3MTXcvReTnw/6g6kpxNRBi09sOu1w4Ijm5xWGKdvGS3Z2rfuTI2Ixdv29unTB5/BgOfG4RlyjcgBIkBAJglwn0b1G/nI1g6lPpXWz/tMEpMS/ufnq7xPJjk6iCeVCrLuLfO+dRUNOhTTr4+BtDxcA4G2IEA3d9BB13OKBExj4eweumN/w8jIiORSN0ctlH8/Jh2h0c5WZNXs6L/3xPCcvv3GW3pktA7/HPttLkKf6tTlT+OVIXQX+8zQu9RLX32JkJ2pC3oZhz1nQbp4ULO+IMlFCgji0MtBxBNW1ztgoK13qNd5Uy/Xl1fvItvFM0YQvpeKsrsodXClsLS68xo4bd/z3HfeEfcdSPTdtJsUO1iYA16bTaBFBpzV51cjhuuQLi76yC3JEZ9FJ+fxTHu7OuqWvXinIf4fWZdulO6z/34xqbCQQ9HQo2YutBrh4ES4fzSsxkZcHmZVlZMy4Ot9SW63bz98VT51Wl8vd4Y2qTDNOjDtxpCIuFyk84mbi/6H1/kUM3E19vsv79AvyH6vYuzo2kuvRe0TF9lu7wIe4VF7UZftWzOJPm5L3OtnLhuPBNioqadvGNZyGw7XrK6u3qtXL1tb2wbWN7QbjM5SUT1bpX9Ijsp8ZWQ/rGfrOMk7C008sEMM1mDrzd5/hhr2xONrGgdP0aDTKBUc4vcPXpAnhpGXRFpv9uvOgfUmZgLvbUyAQsMTjK7cSPWeSEzRxoExYqpNZNCulfN1dFBxMaI5TRoiXKBamhoen47XO5DWG/vCL8vDhL+srwfPv448A36dyBTZdZlxVxAyNNGtw4BTtR495aQXNu1UHaZ+E9YvNyOb+x4N+K53dweTBv6xqFqQuUQWHt0u7KIpxYjQlWo+4PQ9y5g7BfnsT75YZe7eU1iljk/4lKFdhdeq1uOnnRysKdKFbvfvOVOaBc5KMfOecC/2TVJiSSGPamTUzYKh2YAFSVQG4eMEWmTgaJha966qgt57iK/41rC3IXp+NtB14YGqdMkVPg/qN8fgBYdMx3vZ6aHDf80+jQZ+aS60Aw17OxpKBIUXRky3caKPulQKvceQsZK95rQJt5wodDVn2Pd2JL164ii5eafb/nT2eKmWdR3DvsIk9R5SSYYLj9zud+8FD6lx+EijRT1ZjZAqGapFwU2bEahvq/R3idsiNvtbPxL9i2yz+hWuYGVEDEB5bR66bnyN70R5mnRjS5ID3a9fRdarjvv495ROgGsg0IYEqAz/YYZBkSdZI9czha4KOuO77YFxt+7mvkfqhr08XSyFrrmijERszs30Fe7ZS3efvsymDFHIzzTeMF+HmEtEBkHmmfPZtP5zmXXYb9jkMjBwELqWKWpmPS3Mqj7qxWE//7PyH1Eh0m8jNy/YNF6ci0hQM7PDv4XEQdvA3aeGs1rV2LoqhqqrJ7U8Qs2yZ1Veqq7RAG/SEhQXBu8tI1DjX1zLCque2/SzxY8TF9YY7CdEKDQNSoE2PXPFnNn4zsFn4fEb3xAbhbQ4UFSwH8pSpclD+y2uuNUKoDMH1DfmW1cSrfuAQd1brXIoqCMI1N4qXbj1OYVuhmxVu3SESopeJ/6nx322ZWpEKDJdeNhvaj9Fby+0T7YIMPymmkUGBf8dvX2Rh8joouq7eI+qoWX6rXhkNqGveKmorhlDfCktKIg7FJyOdBZMwGtMmxa0vL/95up88VpAqbwUKl5WCEEuCLShAUehaevR6oNAX/jHiYV/1JfazHiazeg3OaObmRmyAYGOIEBulX7f89j/6eHf3UVPYjesvHNVPHnL6yNzRCqKku5s+CGelDd1sUN2336+wkcp88KJ5XFu/zcsP3TfnVT7aSH/p8vBYv7xV4nm2S/bM2SmN35s8LHY5w997/0fOfDCTdsyPsv2d+8xdvzM8HOfn7dYZZOyeQ9emaznv3ns/42XvzOtr557fE5VFZFzRnnl6k4jLMSPP1U17pujy/8NeWo6e8+YeQMbGEjqiI8D1NkJCFAZ8xYM27jrxD/RVt94SCb/1Gg4Fxm4Tx/jKvTG1UiT3ObHHT8Yz3GfuQLPn2tqUKJqq9V5/FZTCwL5jiPQhgZcxzUKagYCckNAslU6QnmxHmPuoNF+h37VRtlphxbF4/nHDQRBzh0P/3g06fOjv2vwX7J2zkt8+hbPI67glxWknvj3qxPW0xf3H6ypJMi66eGfaDtv/L/+1JxrEfPmhaLj02b2I8RQini6JZ/z9Onr7sTksAr+25foysvN9OF7jquXRJ9bueo/M+sJoq2eGtBG1pLuXl97V6KT3jKmxICLWP4lub7BbvA8b/j3J0EEF+1JQNdx3Lbd4xqskeoycVqDAkSivsu03S4fF/toOSAgpwTgP5icdhyorTAEiPEK7AcqT4u6g9DnEZut8FYxqCcla2h8SENtLH8WGY/QmKsbLYif0XaUUUMTQ5BkyNXv3ySGJTFLBp9+k4js/A9+R2yqbvmV78ZHh9eeKJjST/iLXdr/JOUud50Uu9WImGLcb1LutRMXH+C9OuucYNOQfh2bhtfHhcxR53OEK+OU6VJTNESrU58eW396/qbxctaujqUKtQMBICBLBKT/gcuSXqALEOiMBFw1hOussSeMWI3fcMCWn6u6eCpzdXlXbRNRAq+oEKGnFeKStD4ZiM+9wWcjNhwk/xdohsR6IIld2HAuGUo17aauTlXV0qaSfxSpgSjrZccDHsV6uiB0cdWFHTckZGRIeVAFCAABINAIApJ/1I2QBREgAATakAA5YUtsaigRK3IaDLzq8qi6vNhEU9HEuxa4UsWOJt7b11KFaoinMBMWTh37S+GpcuxcLC/a4Ukqp/xeWgxiKiFdp13heNb3y/1fR4Q+kd+2gOZAAAh0ZgJNHkJ9yUep/Cbn6syIG267WmXlB0H78bTlC/dNblgpSO0AAko0vMjsbuadLANP84rSjKxrV5BOQ4sYKPqmWD722A2v8b24z+PiAq8glzrkKcRxJnfT7mQYeFojVJJ1EW+kuUIbD48S9t+V3IwSAwftD5mxWXGI5iVp9Vsum4vUqXiRxJPAu2j2ArH5JxGQ4wsBj09oT7X2iD5e6jE5JXCMpn60u6eJHDcJVAcCUgRs6GrIoK4Vq1IycNl4AmpKSgTS9gpNqqvJpsNznuBayfv2aovi12NNV8tgf2i3dqpSacSQGATZISDeuJxi5uXnjy4t8r4j0c22vAHXl5K+95SNM46t/TojSJKBcJV1ERcojFUy9vBfNTR0kU+8y1C9uCt4YelnZ6YQ/42sB2EXVNTEflHi3HrlkuNMnp726iWOnjRlJh51lZ8gIMeeX9aFjvRZkodtk83R7fdZ2J4TvvPi8W4O+2P6Dajayqrlrc1nRd98WMoc5svUJX2qgtLMZ7l8ROlmblnXfqv1VljEio58WNrby5epL/bN1isLCUCAIIAtgCYZAUBNfgk02YCT36aC5kBABglItkpHiM5YlzTF+2ZBPk+z5wADnXclZZoNH4poMOb/lnz2LbtUoKav9XrPmNB4Yt+46ruo4xZTuk/dPcflzssnOYLxk40Guelqkd967IKKjepxPf490jHo34/OecOmYF+dMNj5nfxd/e1LHsXIsF9PNfmyHNQZnocOczWta3sNVS2G+e+xVbMQTxskd4f3DzuXl1OqhMeZWzEUxf0SfILjMGkEab0J8uM2rjtIDEUTwXD6utVuxrW1E6bWfNU1N8kLPhF8tyRw2zTY86EmHbgHAp2bABhwnbv/ofUdTqBqq3SsCl1ql3MDA/zE5j4J7zcmpQ4lR0+J3VCy78c8E4/u1nrci2H/7Xzaf89AYkWrumTv9apsdMZAO0bVrehK3dzC11wcqy01SNBV29rOgGonTpKvd7pen3pchuom3d1rDpVSzXqa1bcVVzPbLYg+eJCDnNYt8iBNRfb5oIO5tP4rNnxlrpxz/KdfQoLP9do0sbH7dtEZC9ZN+jbwxIlo70Uexs3UCLIBASCgiATAgFPEXoU2KQwBqo1HdKxHreZU4Elc6pT3WmqZgcviiVTXQX9c7FPLOqmV7+MRShS8GMJCSbwG4uMZQKI6AUF25Il01H+uv8ja4mY9LEbuCyZYamFPptnYLz1jgpNesCc6VvkBifzczKj1W2KdhpnfjYzBq0loZsPWrBwnHDVVNvaY6x6+98Sp7EGLzOTLG1qdDNwBASDQugTAgGtdnnJeWmla+JUEFYaXt6NwuEaQn/msmI9oOiZm+tUfOA02VK4m7rATwy9nIoafj2PVsBaXXYpoWtSPPC3ZpaUULS1xLu6jqEtpPNOhPi6Nda40yFCcSFWrf86UxcyN+E8s2TrvFMtRSx7VPNWndYruHKXkZb/A05CGiI+D5Oa8wIOnTMk/WgoeFS9Oy2E7Mqp9ofj8kmKUfT2yfNikuUYfEkPOR+6LdF7jYylk5uDhgWIuF7CRWat+tjpHh0ArgYDCEoBtRBS2a5vesNIzm4LOR2aY9BCuYCq68Pu367YE4fDLuuV/RVU7CbzhwomJO9fDgn85nt+wnAykZkft2Xs+8r2ukdgOQ0jw+uSq5StDkxvWjp0ZtXzlylBWqViM2t0ARZ4/GHSmCaDEeeFdcQgUZz9HhrYm4s8Tn08sDVGniX4M0M2Zhgi959Tp4dSZ++v6cR7Obj5Th+mg/JKqfV2oBj10EOfJK8mHTXFwQUuAABBoNgEw4JqNTtEyFiWeiixGviu+YxJjPeh11MGwdOQbELh79/a5w8ySTgXdLmp0k8mJO4gTcyL6daPzdIQgm3XgVLqO54JpLkKPI/vC+vnzvw28zkGGKhKfSS3FuCwstXzLKZwgvcgAH4+zwtcsN/LvRHjO1mLWqSJoTBux/YbbTRhwPLExxs1Jxw65+j5cYjOP2OhE6mAMPF5uWHsGY6dCCo0FAkCgNgEw4Goz6Zwx+ef2xiObSb6WwkcP+97NdOKWiS0bqrOfP3YbXI/LrIlGkP3X6tV/Xwj/a/V8MqyPzmYLZciJOzrJeOJOnb6GmgV1zH3a5ZO5yPDLMY7i6ukeC9etWxfQn4a44qg63qlW36xZs2bZpGqPWFLOctR0B1R8+N/EOnJBVOcggA1/Tt5byaeebsLQwS43ydkXhEOOZkuca9aUwC3Maoo4yAIBINAZCNTvZugMrYc2SghwC/DIn/twZ8m0Lx4X6fQ2EN1STXrroJtSYzqifJyy18XFuWHnbTwnzLVE/x08deLAVdf1o4Q2oMxP3GE/is9FDtOZUt4SLX1jLaSrT0OYRv2BaowXLnI5UudrSmTNhnrqBN9NZU9zrjbFSZJOXthRlY308FoBCK1DoEuXLoPU2o+ndoOTIynqmig5pQi5CZ26iG6EnWcxEbfHOvrQEfdWeCRCTkZC+60o8a8951UGfDXLWzTXrV4c7LfYb/epjtQntV5RSAACQKCzEGhNA67ifRGXT1XTqvnkqih6khL1psc4b7rEOugseOWmnXhkpxjp9LWq7hjAzgKpUNvhhMiPT/+5P89yJqbNmfLT14Wk5nCR0IsnmbjjrFW9WKkyO/iSg/p79qqlAzlrqVZsrQh+nV468z5O6HoxHkSt+TWQyq+vhNQryYOwpCLhstkEVFSovPL240lXktpxpZbSBvb2KCzyfvZUHzOhvaU/Zq5n/N7zy+dfpiEOHkp1nztOuED19aNbSdm5vpPJDYT5eHd0vF5IFHjFqFh4YgQZkRl3BW8gZ1L/chZxPngHAkCgExFo0RBqUdjPp7aES/7p5B0e8Jf7QfxU42eHnxr/cwH+j0QG/pt7EYHb3tX5uOtEqGW6qcKp1g2oiCd7iafxVJPCvUqniRwDWvrY6VBQJvlAyPjEHXZWPAfRW/MnjJAMRpXyBqbBVfuYdKIbOuPT/gid/98tySiqrvPEresWjPb18vIdvWDNr9Ochb45Qeq9ZKQzzMuSMPXp5iMCAlZYiax++rA1y5Z59xBRE2SeOZ9N6z9a2lXciYBCU4EAEKiHQMseX+yUl7GmeEsqYdAdH/WlnwZ+mPM5b1+mplRI/G0qeHvRri0yFcVVwHtbESC8TlShR01SRTE5lYfoRkFeajHSxpZJ3UH0qBJablUfKXLijk3dWWQgli6cGC75mLaOSmTz9YmvAYROSkB/wgL3+F2nDsX1niVaHIPoxo4+oyRTLUkugqyYdOQ001Nss+kzifmmoqBrxiB82kQQxB0KTkc6Cybgk88gAAEgAASqCDTfrCpPO30YH3Sd+tOu8SO3O67Ne4/KkkKuHk/kc59Gj1uHz88+NmXkEUdGVFhGVW3EFftV6M/bHRnk3/JnmSXVU+GuYwjQzR10UG5OkcRrQHfsb4iSI5JJT1L+ffysQa7OVqRy7Oi/f//lryihj6khQ4WcuGMsuxN3qDo0xErPqZN4DXdjdvSR9ev/uP26mhuZbHtN+68oJxPRrCW7SNRZOEQqNgEtR//p/Q3jD+6My5d8oWq1mE+xd/f9vK/YTquVLozIjzt+MJ7jPjPAUVanIdSjOEQDASDQ5gSq3CVNrYpi6OTpb3c91N5vxXgVvoomFbGLCYecgNrPetXoR5tTPOet6KaOVMz1pMfe8o4uD92cPXz/xR5WlBcHF//7+cZp97bqNWQFNFUvkG8WAQoNnwZ55Uaq90SmMD9jxFSbyKBdK+fr6KDiYkRzmjREOLWtNDU8Ph2vdyAeKHj7UWySS8ZMq8/jkfmJO3RTexQZdjN/FEPs+mBf+GV5WDYJ4Hrw/OvIM+DXiUzcUHbStZjcXCdL4RGWeBuRJcF4UjkOucHLryPDBVvXizfWL71xLh3p92z+94osFl7knADVbdZ6t1kNNoJqNm6aWYMSRKK+y7TdLtM+KgYCQAAIdEICzX/QKGlZmzPNkG1fywEDhaWwCX74OG1tU7e++NFm6jVYj3RPlEtW9HGfxm6+Yr0u1NbJVMClWE9eikLmvcxYq+dQ13q+TtgbHdhkKsN/mGFQ5EnWyPVM4aAOnfHd9sC4W3dz3yN1w16eLpZCX1NRRiI252b6kuNBdNtlAQEUc9EoEM3cOyDAQzSPRzRxZ64sT9z5xHc0Sjp/IW6UeKiL7j59mU0ZopAfaD6fryNsGjfrfi6yGe1rLOwgqvlXAQEcilAKG7GU7uL1HWzWf3gPuWH+n8JPkg78LEPVQAAIAIHOQKD5BhymU4HKyNeaoCpIl0wFHm5Sr5mEIx4F+v8ZWDMe7jucAMNvqllkUPDf0dsXeYjsD6q+i/eoGoql34pHZhPEIz9UM6bIY4fFlOnG4jv5mLhDNRs23eF8yMF9A+3XEI42hKTmHlW1u/QZtt90Jn4q8ZfQLcXtrBLCV9zMv4OvI7PRftVPSaomAzdAAAgAASAABFqDQPPnwH2sdg1Uc3YQzkGMsQ3cH7vkUVpAEgv/4QsncL99DGU7pVMZ8xYMoyWf+CdaOIhYZ7VcZOA+fbprHX0rJS4/E3eU3WYtc6Jl790XVW12m1Rb8CWfr+c5YZbIMVk9SeqOG/3P3mSazYJvfcD9JoUFLoEAEAACQKBNCLTMA4e3XkotxE8+VcSvqLGCEV0pyGIbMOiSNaqE+lR9Y1t0a8sx64Pz9LRw1dyC2NsUx8E6tRx1bdJWKPRjBPBhUNt2j2tQiuoy8eMzcuRp4g6d8c223Q02Gek6+kxsWIJIpXp8s8nj42IgAQSAABAAAkCgFQi0yIDTdvZFaN0Bxx0I2fnHXlQpw4tSB1fiR5mVO17yHjHOKQIhvWWhXwzAI613SUvOwGn7nue+846470C2dij1Kc44KXZwK7QDigAC8kuA/eryxYj0QmTjOsK1BxXRtbVpLfpiyi8J0BwIAAEgAAQaSaBFzwmqw+T5/zJfvShU0jLVx140n/Apnl2J8SNlc4/YaKvEdERRUbNiqGqZTDnpJdxNgmLmPeFe7JukxJJCHtXIqJsFQxPcb43sKxBTTAKFOz9328hCPj72yapaX41chr4/92Yp/gX08ZB2NnBVUr+jG3zFiyg+ngUkgAAQAAJAQDEItMiAwwiolk5WknP8jK3JQ2FIMuomZu4mYkZ0A4eqFETVNRrgbSROg3cg0KkJFD7F1tuhxBcjDDEG7mrPnqir5Bv1MTBlyTG3zCS7uHxMGtKBABAAAkBAcQi03SIGxWEELQECbUWAk/G942Rc+K9TRhiZrH5Y8uZ/q9bHvSVMMuxd81px8FbE0YUTRoxfcb6Mn3ti0xwjkx7En/ecw7G5ZazQT1feQaz1Nt5kXnIXnzr1JIqaFbhz0xJh9nUnHwvFnkdsERVo0sNr1paEXKJeTnrYeO8l+0N2eJF1zdgUxmJFf+9N1msy52I63viPDCUpOxfheol4rxVHn9fY+FgkBG9AAAgAASDQVgTAgGsrslAuEPg4AZrR6B+GI2Q/Zdma40fHmqB3MbfvFH0gDCl+WVHykfUTZhzu7u7b10L9yaHFS/6gH7p49WbUue1D352/n0Mz6fPTNHuExu7f8CORt/61r0RR4Qc25lgevxi6ZY793qXf3SokVOPxqHM37g6Lunrt4v5BL3b6rj6LJ6vyeW9jWGd/WPl47tHQQ79+Hf7H/CHeX74fv/v8/3ZPRxGzV13EMgi9+oU5YiPbN+x23L2ow32PrHHdFAmOQAIMBCAABIBAexFo6RBqe+kJ9QABhSRA7zd8OPrptPsIDyb+LnJEvjGyqdiltuxe1mJT4jvKv/zjbIS+trLrwaBTGMwTk0gJD0dzxOw/dJDbx+bAvUHM9el/zNTAuew2/7NvzIOckkHdtBl+iwP5Jc/TsktVtA3xyeml5fjgJ3KDmIHnWf/P3pnARVW1f/wAAzMw7LILKCDCYBhuqGBuuBBoamqZZZlLmeb6mqZvmmFp8TcrSzPTLJfU3FN8FXcTF1RcY5TFBdxAQLaRGeYO/M+djW1AZBmGmd/5zGfm3rM+53tm7jz3nOc599eu7O7aPnPmroueun3l5GB6Yv1N942/008iFp5YQciq+WMDHAlj0m3cd8M2zrz8+Iv+7mwiAgiAAAiAgDYIQIHTBmW0AQLVEWCkdDMeIqWb8VT+LRYQgYOtMpLTKWIR+XXRK77r6HTd8Knvfjz5TYENhyEFtGztpr7MlAKYmHpS01X5ybXdUQOm0AoJEXQPt2M/1dv7mSvb5bmFkFAnpZ+RY9vuhLDSFmaz7U7u2Z4towwDMkXEXflIDlUcPkEABEAABBqNQOU/jUZrCBWDAAjUnYBD1/cfJ0cIb6UKL5/+acH8Pk/t7kfTTXzqEljliwbxjS+mrBv+zZ5vx3RgJ/DubnYJYZWzSqF8FM/amgjZdJ4N1QC7HxBu7chn5Oqj6rFilQrjFARAAARAoNEIvLAC14ZvTpzsG00eg6vY3NiYRaqtoM22tNUnvWrHSnNvJKe3/W3d77X2HUMEHUOcMleOSBZRtwF28k6YlUuIJX1ahPIJrprLl49VN0EPfLzcWO1NnLF/yz4SMrh8thqOeXZ0sfTsuh1n2o4PYZdlRQ+OH3rQJTKYPUYAARAAARDQCoG6KHBQArQyNGjEMAgwdEbsrHIZVCZNo6ZoUrbj0gLqYdqbGqXJA3N7zew5M2fTtc5Q4dk4Qqb9zmpOrYKpyjW/s9tyuq66N/lQ12pWMCtUpW6C59E3nMx5Izha2QT9GMjawJWXh66YniFxfeUC0XQmn66+0jwc9/6x340fMPOtnQtIgIAkstNyi1IesnZyCCAAAiAAAtohYFRaSh+dgAACzYlATExMZGRkc5K4oqyFBXmiQtV+HOJsYXKum8DHhr2Zkty9nszx9nfncwrvp95mbNu3bqEsyuQlX/v31qMnhNj6dO4scFYqa3kpl8/dzjKz8ejS1b+6CbCKVYmSr9+x8vZ34XMIk5dwLC5JRLz8O73sSZLSmABBS44o49rtQu9AH3ltzGPhzQInX98WrNUcI3qQmEY1tpaK277CjNQLV2+JpKaOnt7+vq2a8OkRpmZcaTG1ItRS4FvaWFqxLh4IDU6guf+0GxwIKgSBGghAgasBDpJ0lEBzv8pXUOAahrFo19SAyTs11DVm5bH/G+ajIUGPoqDA6c1gNveftt4MBDrSLAi88BJqs+gVhAQBAyPAH/Blwo1FVTrNEFMbzBVVwdL4ETk5OUVFRS1btmz8ptACCICAgRKAAmegA49u6xkBS5sW1S2h6llPdbk7Uqk0KSnpwYMH9MDe3h4KnC4PFmQDgeZOAApccx9ByA8CIND0BKjSlpqaWlCg3KSl6QWCBCAAAvpOAAqcvo8w+gcCINBoBJ49eyYUCjMzM0tKShqtEVQMAiAAAhoIQIHTAAVRIAACIFADAaqu3b59+969e2Ix3Y8PAQRAAASagAC8UJsAOpqsJwHqqlbPGpq2uJ2HZ5adan+QphVFL1o3NzEukmlvAsyztORx4g2ZTLVJXzUM6eMpGMWDKqrJgGiNBJr1DkEae4RIEGgkAlDgGgksqgWBagkczMw5lJlTbTISXpCAD988VVT0goXqnn2gk31fW8vr169nZGTUsI8mdWLo3p0+PRbhBQhgG5EXgIWsBk8AS6gG/xUAABAAgRckYGZm1qlTJ7qQSg3g0tLSYAD3gvyQHQRAoAEIGDdAHagCBEAABAyPgLGxcbt27V599VV/f39TU1PDA4AegwAINCUBzMA1JX20DQIgoAcEfOSB7iRy8+ZNuDXowYCiCyDQLAhAgWsWwwQhQQAEdJ0A3baXhuzs7H///Rcbwun6aOmvfMUXkorjk/S3f3reM7PgtmZd2tayk1DgagkK2UAABEDg+QRatGjRs2fPwsLCvLy85+dGDhBoaAJUexOt3N/QtaI+rREYBAVOa6zREAiAAAhUJmApD5VjcQ4CIAACDUcATgwNxxI1gQAIgAAIgAAIgIBWCECB0wpmNAICIAACIAACIAACDUcANnANxxI1gUDdCDx7eDv2cM5TYt/pVe/2TnWrA6VAAARAAAQMigAUOIMabnRWBwnkXBzT63QS8enrl2XZGQqcDo4QRAIBEAABHSQABU4HBwUiGRKBnFtUe3vtWLK3oyH1Gn0FARAAARCoHwEocPXjh9IgUB8CktSjvd6lFZyZNOjvpA6jz39W+OuEv9eeU1TpP2V1n0lhXEKYOwf3zD7SZlTrG1E/ZBHiM+HH7hEWVz8df53d7Klf5N9f+3rZVCcFW/a1I20W+t2IiqZlHQZFDfvyLb4JIZLUuNHhF5TbRXXrvfqroFBPWknOga8OHCL+3vdPrz1CiF+PH79xlx7fOusHmuQw6LNBi96zpQIRUpS478ibs1LZQ9Llmz3dI9rBnFYOA28gAAIgoCUCUOC0BBrNgIAGAlyXtrP6XV+e/tKkObYWFlZcJo/4h/042bmlvfTuqe2zJhHPg+ERPiXM0/tJe+9H9Ruwegvv4aG/o6amriX+s34cGUBuTpga8+WByeveMtNQOxvFliVs2bAft1g9O7dn7sJ/XgmmdVK1kNN1zmv/DbG1I4///jp20n9dzm90sSAloqdZx/aetpgzfPO7GVu+Oj11KCHd2LK5J/cs+PLqoP69Qt2YO/t+eXOW/6erxw4IFF/Zu3XWUK7L+c4d7asRAdEgAAJNR+DlIMuZYaY2RBp/pOiCiNy5L0sVm84bZ+58p2DG8dKmkwst158AFLj6M0QNIFBnAnzX3v3I8j3ufXs60FkxQnyn/5fJeZj7+KlJC+9AQp4+Fauq7jYy7ueW1vTMu3vU72cnbAl/vzM94S7sdn2rKku1n+qygWE7f7iqqJPr13WOT9GjewVPCyx8uxLyw+O7eS4BdCYvg7T9bPLS96hG2NLq7dP7N488ubElq5sJwvatvpqUSULdHh36hbSdEzqshxkjtuwZ2Z1E3xSmQYGrFj8SQKDJCLSx2zjJjENKCmUmHUL5Y9qT2/syBsWYdOhk/pKdiByXNZlgaLgBCECBawCIqAIE6kyghCmmZUskhFjQZc2HVxb1OiHfRN0h2I9dLS1Xr6nyx8q1CibuDuaKFL4P1b3YGmoOqrIMzcaTZ2XSj+6JmHSfPfZzD5ZHlb0pp/MYNrudqaKAPJVnRh/ZLsoV3iJJ0eu6RqtL+BA8yl0NAwcgoDME+nWg2pto7qTCfVQkW9OJQnLnMiuclCEMg+k3nRmnOgoCBa6O4FAMBBqcgORWDNXeBmw7HxBAp7yYW+MFFzS1Uf6m2cTKiijt2DRlrTZOkrpq0v3gOe/++L69Bb0IpO4LDK82b5UEdq5wwrpp03sSGaviERMODOCqQEIECDQ1AZ/QFivCqBAWX63kf5OXN36P+UdDZT8nSivJFdLH7v9GmNmxP+vSJ8LccT8UpxLjMSPtZoZx5DdvpYWPChd/82yfejWgUnmcNhkBXHibDD0aBoFKBJiCfDofZuXCLlgWp59JilfOllXK1hCnjOwZIa08rFntjck6cUzhjlC7mvluA0eRteNvXss0pqqbCUeafjE54WHtyiIXCICAtgikpohviQiRFZ8+XRgTz9AZOB7X2EruhVQmQpD92jfNTB/mL12Rs+qkzFFgt+ZdIxJkOy+M81SY993GvG3xMp4r9yXsT1mGTHeOMAOnO2MBSQySgLSQkHMl8q7zBSEOZPXOXr5qEA7F8rvlcnlokiye3O+huouWFlBDuJqWQjSX5bsNGktmTf1pu7opuqLCHpcUniNJPZUVai5LbAdO7X1oa+zbobHEz4HcYp1bZ+3x7ehWVheOQAAEmp5ARtGB25Z+bcULt4hZg4wBVSUy/rgXtX4o+nWj5Bohhf8Tde5gE+zF8Umn03FMekrxr3ElJE78xW9VCyJGFwhAgdOFUYAMhkvAzGf4O9v6Ku+K7buPOrk/7dwNqambY6cAc9HjIo47RWPWesjobX1tqZEcG7i+u/Z4tmijOOG0fn30rpoM0CqW5fsd2O/OcaFlbfv/d/y2vg+TskxdvV0D3YvuPjb3YfcisQ0/OLqfneImXS5bT9UdO9/v7z3uvNZsuyZOQT8IfRKvPL6bZWJjY+3pY+uBG3QWDAII6BYBrvwvviUhVIHTFIxd2VVS85nzlUa1bB4TjuXlZ7eHWgYPdkwcTBhRccI/eWP3KG4yNdWBuCYjAAWuydCjYRBgCXDtHViLN2Xg2Pt5R/gpT+xtlFdVCyenALWGxOH7tuOr8htbuDn5ktwDX/0+93dVXLnPQV9PXjq8XFli7uGnvlJbBXT3C1BmNmf9T9lg5uqjbqmSbOZe7dRlCeFYBXS2UhVXlMU7CIBA8yJQkk0n3iX5E6YXJfGMWNHFpQpVb9B08eBQbk8/bsd2ZsHhNp/fePpFSvPqmiFICwXOEEYZfdRzAtZhH3947CPCWiFXDByu0qG0YjTOQAAEDJBAVVuL0vQndPMi/oyRkje2s3NsLwfxo1oXffvEcoGbaOz2Z/vinjkMcDr1uom7MyFQ4HTuKwMFTueGBAKBwIsSMObamONJXC9KDflBQO8JmNEVUq58ao0QS1N6YKQwj7DgEg475VayfUNeZBub4DDHxLBShhixGkFy0bfPeMFh5jRGLDHi0QKiZ+vj9B5Vc+wgFLjmOGqQGQRAAARAAASeQ6Bk78484ix9IM92NS53rbT0aCY9Kf5zY55thmJDIvHYhcWDQ83D/IzNGFlKqmTvpZJUcda0TN7A9hxbXknuA/HqGOZF3NSfIxOSG44AFLiGY4maQAAEQAAEQEB3CNCdRJarlz5zi5fHKkQr2R5Xfle3kn1xon0V5thKjlx5duSK7vQDkmgkgH3gNGJBJAiAAAiAAAiAAAjoLgEocLo7NpAMBEAABEAABEAABDQSwBKqRiyIBIFGJODHNXFxsGzEBgysaiMjox7m2uNpw63q7mtgxNFdEAABHSAABU4HBgEiGBgBR2NiUfr8J9AbGJW6d9fUlCst1h5PvnG57fDqLjVKggAIgEC9CGAJtV74UBgEQAAEQAAEQAAEtE8ACpz2maNFEAABEAABEAABEKgXASyh1gsfCoMACIAACICA7hAw6uFn6l/2PDzdEayZSmIklZWaas/s1cjBrvagoMDVnhVyggAIgAAIgIBOEyj1dpI6KZ63oNNyNhfhTM2oia1Ea9KaWSofS12bFrGEWhtKyAMCIAACIAACIAACOkQACpwODQZEAQEQAAEQAAEQAIHaEIACVxtKyAMCIAACIAACIAACOkQACpwODQZEAYGGIMDkZWfniRla1eOEA1tjb7JHCCAAAiAAAvpFAAqcfo0negMCout+gR39fr5OSWRe/mHG2LMiMAEBEAABENA7AvBC1bshRYcMnAA/4OKpQ8TOi2IwNbMjAjPtecAbOHl0HwRAAAS0SAAzcFqEjaZAQBOBrOt7x7q1cpG/luy+wa54MveWjBi1fNv2hSPk8WFRp4U3tn4+SpFnoSIPIXdjoxUx9L3vuOiEDPliKfP4r08XxT/Fwqkm1ogDARAAAX0hAAVOX0YS/WieBMQpe18aOI2/eO25y/EHfp23YkrkL+eziaQg6czZ6JmzyZC1ezcvCxeuGxEWOSO9+5bd26Mn+q+Z8uU1+bKoVMr9YPHPB44eO75/bY97KyPm7S6kECQFcWfO5hRBgWueXwhIDQINSIARZWVki6tUmHX98NYY+b1ilaRyERLh8b1rV63eEHOjUJSdlcdedJjsG1s3Hn5ssFcX8c1P6J12mPJ+u++IiUvWHbiv4CtOXUiTpm5nL8KqkLBxHnt3/fnhqkOgylKvTyhw9cKHwiBQTwIX960ignnzRvW04/ECwgbPIWTnjTQiX/Wcszshakz/rn1Gzl3cnea59dv0Pl2D3531eQA5eyONvZj6Rk6Pei/UnhRJTW2cWxGSXyyjsVgxreeQNETxJ8KTu7btE+awA8IGWf6dZBru5LzghqA5wpPbaD1PVPUoasM7CNSOQOG1tS916Hi1ihnsw/hlMyZeqBJdodJrG+f2eXva/y5e2ntQmLCm40uCtXmEiB9emDF32cMX/BpXqLdZn8iYJ1R+IRkzdda0iaPtzsSuWPBR58jou1RBkxWl0aRH8ouwvI/C3fMi5v5JQub9uaA/r3F6DRu4xuGKWkGgVgREt6/fJMKlnX2XLGkJbAAAQABJREFUqrOHE1N6XECItYXqV29GI6yUihnX2pOQYoa9Bb62O2rAlHVsQUH3cPnzV6C8sTSaPOTEL1mxVRwwaqA9OyCyJ/GLF67PUErlPGbhvBDX2m6Ub+/plrli64pzeVHfvePY5P2CAM2NgKXfqONHh3qU+7oxDMPhcMwtPZ9nHSu68vvu0MWHdo73p50uzAj+Zxj7iIBCDr0Y2Rmu3mBC+BRH+LLF80ayV+cvPt31+RuTf115JHnKBF95krXyK0LtW/pM+ZMIZp3bOsml0XhhBk6JGx8g0CQEWN1s6ob7D+/dT0tlXw/v/T7+JZUkmhcqqG7HBvGNL6asG/7NnrsP7z0+uvX3ZUvImWJFCt6blIDs5Pr1YhK0cGov9lpPRHuXr8/gdZnzzU8/LZsfapuxccWe/NrLx/edvHAUEcdtPfmo9oWQEwQUBMRPLn328R/pigtJ9o3l4wa6e/rQRb1XZsYSOmdffRBu+3KOkMQtmN7XrdUn224+uvjHp+sTqqwDis5vjFKZ4c44lEJn6AwkqB+tZRMxahTt8+XEdGXP8wnVlh+fXt1t7EpCpvwTM711o2lvtEUocAbyhUM3dZMAv9vg0eTHd3ckZNDbYhpEd+P3n39AZbWqXl51Ej3w8XJjbwTFGfu37CMhrDZIgzqD4hTv2iQgSz+8NYV0+WCkq6JVSdq1XBI6boSXtYkJ32PYu71J7pV7VdauJHeOzvtoybZdm2Z+xIaZS3apV01NXHt9EGqbuHVHOtZRtTmQetEWU5QRJ0wsYr85GcsDI6MPCtbujond/fO0cGpxUVMP3TqFj6Hp4cMW/LXhra6uTE5i3On7lRZOr62bMWRu3Pd/Hbpy+dj3E4Xv9fxcWEXFq6mNZpxmpp7TvHrwDO1HhwAPZW9cLR8L9wa9sZSQ8bHJc3zZq3MjBihwjQgXVYPAcwm0Hjzjy3AyY1Cwi9tAerPrFzJy+aWnRCal5hT5UmVpacFZIixQ/n3LkyQ0iefRN5xEv0ELtnLxDp7w41k6A8fmKVe2QsHnioIMDUEgM/0eIW36BNgrKpM8vEcXT03Vd+Ecuj6em/ywsgbHMHm5JP3E4ZRXRn0wZkgXcfrhXw/fUYsT0KsXIbezKhdSp+MABKojwN7U0W9fofBINCF/xC8b1PWl9l0jRg4cQJ5WV4SNt2nTrVMICe3Tu0+PXh1bKx6vXnFDIvHN5Qtiw7/5emhnD3Oe+6vvzyZkd1yyYUzCHRReTbknvH5516p5Q/4vlpDRob7y2XYKbue0bmHT6OeC3dPbq+JYoI0T1NeVxqketYIACNRMgOM84bfU8OsJV1KyTG1tPb18vFo7U1fS3w7FcLyVFwDv4cdi+1gqT7htfzl0yMqXvaS+u+baS8fikkTEy7/Ty54kKY1h8/AD1GW9XzsWO8BWcfWtWQqkNhSB3PS7xDnETXWHzjCsGm7BU1on8j0FzuTwM7FSG6/YqO0H3yzqwNrQBDw+eeGfvLLZDK5TK1si/vdBfgdrlYlNxZI4A4FaEOjuqrJeY4qVhhjVl2JYg4xizVYcilKOhGycO7T13Orr0NuUdUN6rlN2TjB6xx+LBHSmrez3yqYsHjb75cs/93BuXBWrcWvX2+FDx0CgIQlw3AOD3QPL18htHai2hCOWzj7tqVKnCBy+b6C/6tim44CIjqqU9gLFUVlZS3ef9qpUfGqNAE/QRqW/0TZZBU6qurhLHqbQCTlBNdddlZrH/mtWWHvhOvtqTXo0pJ8E5AayKi8njln97SxYf8w5fyXM6tGCOkZQZtQCRD/JaejV+L2n3raWSs2tHN3dW1Ts9vh/0hYyO+f1mfnniA5Ljt9eyOp2jRawhNpoaFExCICA4RGgV3Nx5lP1DBvfzdeWkGeMKoKdkOO1bfmCE2mSbLqkjgACdSbAMadr+mePnKLr+4TJSz15KJbI/dbrXCHhOXYRkOjPNwnzWLdWDkcmPH3yroGs8ocLXm7jIxD4t66svVGrQYErhwjeXLzjk+6ErOvzzurHdUf8/JJQ4J7PCDlAAARAoJYEOBZWJPFmjjo334VOnsXFnpH/tUlOHzxMiL+LQn/LufzLkkW/HS2zdVMXqnwgekrn7Vxty83rVc6BcxDQRIChS6Vn6fwYr3W/te+Q6LE9qcmsu6DvZwcJeVq2Y5mmkqT4DIljjW3ZUGZNq6qQEOfx69aGCpf3Efi4hA10cWvb540lZV97RTG9fa9haVmxFQCnx8x1q94h5MzSoDl7y2/t27BIKk7+NWzdqA0EQAAEDIyAk78/OXD4Uvrb4crdtxyHftD7wpq9sz86xCNiupQa+sHrCgfVR9dPX0nPiHjLiSXEPKPODexClDxIc0muVH1G7sQfof+XbvZQ4FSA8Fk7Apa+w2IP9fdmvzj8QdGJsa+eTMyUurfvFmhfeK9AZVaruSpu+NGYfk7Kpfsya9qyCqlS2H/n7YSEiwl3n0jt3Fx927R1Vxrqaq5RH2JlUnZG7Z4m3bdyEv/16PhHt4MXb5rWxtwi5Yv+lo3Qf6PS0tJGqBZVggAIVEugsCBPVGgY7lrVMmjIBFMzrlS9MVNDVqy5Lr6ljaVVDZ4hT377aOGFNiN++k+YyuKIiB5d/+fiXSkxbR0UEuihmH+Tnfz2461Z/ZctfZ391xM9EaYVegq8FP+AOenJ2RxnX1d5Ttmdbz+Ovt/lg+/GddAskB7FxsTEREZG6lGHmqArL3B5Ed+Y4h25U4OMw2KTv9eCE6WGlnUvquLlRSQ8fzXf2qcrdUaqHORJFq26BrYsSxE/OH/xnpSY+3fr4FC76bLnXV7K6qZHtauyQhGcgAAIgAAIVEfAccTk0AurdvwR335cMHXUYwPfNTB8cAUvFSJLi0shQe/3Vs5Z8B0FAmVmmt/ew1e5DQmRxf+xIoXYTh6h/9qbHBXetEiA5/vF9YQvqjRI535tld/LKmmGHsEXdA2phoGmJF7Lrj3K6XPVlKxzNBS4OqNDQRAAARDQQMA6cOSYLikb1698yWtBsKN6Gq5iTobjHxrRvZNKT6uYqD57Er9l/QVx6PtzAhXTduoEHIBAAxDgOrTAunwDcGyqKrCE2lTk0a7hErj5NC+p0ED8tbQxyuYmxkWyEm20JG+jrSXf366GJVStCaKHDenvEqro8sFDd4hvZHigQmOS5DxKyy4kHFtvr+p0fOX4ivLzOdbWKj1Lcv1oTLLUvV94cHUq/QssoerhN6jhu1RxCbXh669UI5ZQKwHBKQjoFoG7UtnxPGq0jtAwBHz45qmiooapqxa1mHF5/rXIhiwgoCaQfnT1mr0poe+/otDD7hz9JXrHFWWqR/+v5r9e3Uys6M7R2dE7Qqd9845AobBxWzqRVavWX3tmt+h1bA6oBmygB9hGxEAHHt0GARAAARDQBgGRcN2OFNvek99R2ETmxK/YccWj9wfLfv75q1lDSPrh1QfTNYghES766COqvdEk03LJ9oGvz4nwyDj82+X8crE4NEgCUOAMctjRaRAAARAAAa0QSD60LYM4vztU6cWSfvkfMbEdNrQD9ROw9w0fE0DST17RYFHB9f5w/vz5s0ZV3cnfazAtlLvh78taER+N6C4BODHo7thAMhAAARAAgWZOQHT9QgYJGCNQWbEVZmURXlBL1aljS2dyW6NBBdfVw4NIxJrMLT369bZdcS5J9A6rBVYK9xmSxOCfvRKVup+al5YWybTHsy1Dam+hoT2x6s4PJUEABEAABECgmRIQky69yx5tzGEXRE3LOSdLKq6RVuokQ5OrBs+OQeRELl1ErarAwcS2Kq76xOiyiS2WUOszsigLAiAAAiAAAtUTEKVdEBN+TVMlqrm46uvQlELVwJuPYQanCY3hxEGBM5yxRk9BAARAAAS0S4DvLHcWLTfjZmpFxDcfqibWCp/Rh7JIZS8olFwhdLSsm+73gm0hu84SgAKns0MDwUAABEAABJo7Aa4tjwhTHqq74d25KyHp/1x6xMbkX/9fnNi2W3vFHiHpJzctWvTjmUcq5U5eRq6kldP/5JE5D+8Qno8bFDg5DYN9q2li12ChoOMgAAIgAAIg0BAE+O7+5PCBf54M9lU8K83EtceYoP0bN0Zd2GdLcnMJaTPtVYG8IdGV43EZGUFernK9jG4jMmNFhjwhY8XsE8R58rJFgUqTt/xTe1KIYzv8fzfEADXjOvAFaMaDB9FBAARAAAR0nMDLEUPIlb374gerno3LDflwmevl0zfu5xML5849ghUKG5GkXcogbYZEuCr6w/V8b9o0MYej+JNmGE5L1YYiIuH/TohJ/5HKbYF1vPsQr/EIQIFrPLaoGQRAAARAwNAJcD36jwnYu3H9r9395yufp0BMvDr08upQgUz+baq/2b75iocqlu8lUMzMqSIUn5I7v604QTyGRPpW9UCtmBNn+k4ANnD6PsLon24TYO4c3BH40cXN324K9P0+0HdT1E6R3J4598S39FTx2jT928dPGEU/sg7/qshJk45uPsvGyjITf/hImXn4R9cTMnW7x5AOBAyNgEnIuFlBvPQ1vx6tYN1WEQPDOPQeMU7wHK1McvL3NYm8NpM/Dof9W0V+hniGGThDHHX0WXcIlDBP75Mj97/mD1i9xSLv5J65n/7Pw2fE+0ElUm6HT3/0C/blFN3994tJW79sPfmH4cZ3dm6aFd3lmy0RAiuR8PDJnUmyt7vnbP1P7Frn1zYftDUveHzg28SrDwM7OulOByEJCIAA4ft++N3PNXOwDwx/s+YcbCq314dLez0/G3I0DgHJraOdB11v60eSbpVvIGzXFQHn4E+vfRq27UpggEoHl6VdnBV2+hjp8Udc58a5JkOBKz8KOAaBJiHQbdT5ZS4WtOnOozKOb91/VfJ+kH3/j3vJ8nJv3y/m2PDdCSksLiWkhCmmmZx8ve297O29/N6JoGdM4YNzhIy1bdPK3oJjP31jQJP0AI2CAAjoIAGZqChHYupoX+mfvijx6J0HLv7922EN7sUGTcawD81IuuU/cqw5vfjSY56YPCV8HqdEzF6cZfI4eZ2ZV+Tam//CPY2kvdFWKg2rvF28gQAIaJeA+jLKc2Yfo2JESOaBr/6c+zsrRdtuPrbsJ400c25PzWZiXqfbEBD3vmNf/vAj3wB7136fkY1fbuj6OyF+/hPe7vz+SAdr/K5ZYgggYOAEiv9d/8vbP4w8n9ySvT8sCwWXv4v9eqTP9XZYhy2DUpsjE8I+R6Pv1/0WDq90kS1OLl8+LzEq9MQx4vPplvCR7conNOxxJRkatnLUBgIg8GIEGBHdNyCwVPLvqbm/+y/c3m9kEPsTTd/yfQR7e0es2/W6fqNjsvBJsvDOzoUxb94fffFnp47vzTj/alZKavb1Mxe+Xrgpz27awnC1RvhizSM3CICAHhEwa/PGO7tesy6nppXIGGMTDofvQdqa0XtChIYmQC/YktvRb8duJ+5TNkS+3bmh669QH67zFXDgBASagsBTiYg1bi7JufJv1DnSsy293tKXnacbq71JMpN3HSDBZvSwOP1sckK2lW+Qd8Rbr/znM7qwWiKTpO/ZmSm2cWjf3e/t//SaQEi2iJ3YRwABEDB4Akx2wolPN+Yrrgg5/56fPmhFkIA6PG1YcIS410hHknpy+KDEZJEiE3Nn5455O+U3kUSDHxURPdj+ldKPKnD27Tv02RJ0NTEtbviYK+ev3F7/1Y7hvicPVDAaq7FtnU88tufGnn2Je3ayr+1b7ibnqCU2M5c83jzj74233CesHjqpe2MrWOwfBAIIgECTEri1s6/6WdejRr/fnXDzWvclRyeEni0Tqx+1gTMqSIp57126VOoeTO7H3yKDlttbMLc2fnp0wad0pdU96dx9Qrr82J3V9RBAAAQMnkCJOON+0k2GdWzPPN9r6FkyJPKPb2xIevIfUy8U1khHJn6SdMtGqrwZLCkqvL+fkKWEanIa/Kg2z97+dfqAtftbeXPurZ/+92uL37m4zEFWkJN07sKEkSR4VPf+Y7kW1GZMb8K5Ewuo5bEyOMwStPa1V5zEzn5X7t/g13NSmBa0Ky00oeolPkEABDQT8Ivc9q3F0/tSjotz53bm7FNzbAKXX3T852zOM2Lj29G5Jcl5wFDbC+OAtz880DkjNV3yjHT9T/uWAW70Di/wr4st/03MzsgiZGLvoE4OjiofKM1tIRYEQMBwCLB3c/QqUZx8lN4Nvhb7tbcr/dNvx0nrd2FjjRAqPbuLtfxigwY/Ksmt818f8Vm4vW2Qu0zC8XlrJtk46X7qAgcfNn/gN/vDIvzYI30KbaeP3TjRghHTm2oaTPg2ZZ1Teqfe+nPRzo+WDqcLKY0aoMA1Kl5UDgK1IWBn4+PnxK14mTOxcekd7qIq7SR/IDb1OjL3aNfao6JVrImNffvuyhtAVX58ggAIgEBFAt0sbZT/+CXSmuffKpYrd6bBj8qHUAeJ61Ejf4oql09+SO1CPHxrXqmtXKR5nLu3sLDgmrF2LpWDz6wtke97Xxvf9cT+T/e5OL4+vWejrqJCgas8ADgHAW0SMOZYEtLaWL55rzbbRVsgAAKGREBuwKaaVzM2pZedGoPiimSq1BA4HDqTV40fVdzHdGeN7mvPd+1qTz0kaKXUSYKtWnKffVctwrLHBhBa9xAYE37QqoN5ncMvrx0f67anUb1QG1U7NIDhQhdBoH4EOF6DZ1xf7FDRyb9+VaI0CIAACFQgYMyjc/Tn7pxNo7El+alpx48Q+eZEFTKVPzFh7yxTjl4rofmfpd3cvrlaPyqOo2tbcjb6z6x81r/V2ESWdf5ULrtbmqYZqvJN6OOxTKGwcn16ndxC15BvRg2NO/Gw8TqKGbjGY4uaQQAEQAAEQKDpCLBLpeeoEsbx6Bs5ksRMDTurlqUtuzd4tYHrFzil2/aV765Yqc7C5tfkR+Xk8P3quxGTNoX+QJSPKPAbdb4nkUmpM6qT0gtCXUkzP5DJ157va0InZWcoGXV/7Tu/emD11ohJF6b24q6N69y1UZ6OY1RaWtMgNnPYEB8EdJHAwcycQ5llnue6KGKzksmHb54qKtKayAOd7MOdYHPYKLxjYmIiIyMbpWqDqbTC5UWSmZlaYOvnY8Yunooy4/7JeiK1atfVybYgr9DKwcupxjU4Sdb545mPpFZtO7m25uQ+YOx9qdcUU5R+S+FHZdFa6UfFopXkPL5yOS9bynVxadHa18qeulJJchNTTFr7WVk073miipcXUVbCNYmVT0vfKgrZs4cPLt8zD+xiX24fdUn6v5kP841p/oAq+av5Qr7Q5aV5k62GAKJBAARAAARAwOAJcJ2cylQHvlNouEqPcHJypCrWvwc7D72pAdKQ0eeXOVlwHbqGO6hSHWrwo6J5uPYuXcPUTlfyQlzbgIruVqqqmvMn36Fjd83yW7i1DHWrlMT1aOfhUSmuIU+hwDUkTdQFAiAAAiAAAs2DALdNr5Pne1WRlS65cmGVWwWLDkZAgdPBQYFIek7Aj2vi4vA8LzA9Z9CQ3TMyMuphrj2eNlyVL19DdgJ1gYD2CXDN7TXshaF9OdBi3QhAgasbN5QCgboTcDQmFqVyn/y614GSZQRMTbnSYu3x5Bvr057yZRhxBAIg0LwI1GjC2Ly6AmlBAARAAARAAARAwDAIQIEzjHFGL0EABEAABEAABPSIAJZQ9Wgw0RUQAAEQaOYE6E4izbwHTSy+o6fne47UxRShYQjosoktFLiGGWPUAgIgAAIgUE8C2ASungBp8cKCPFEh3UMXoWEI6LKJLZZQG2aMUQsIgAAIgAAIgAAIaI0AFDitoUZDIAACIAACIAACINAwBKDANQxH1AICIAACIAACIAACWiMABU5rqNEQCIAACIAACIAACDQMAShwDcMRtYBAgxLIPr5te0KGpEHrRGUgAAIgAAL6QwAKnP6MJXqiPwREaYtnzj6bKa5nj8R3DwwPixKK6lkNioMACIAACOgcAShwOjckEAgEiImpHSFWHB5FwTBM3YEUPY0TJkrx6M66E0RJEAABENBRAlDgdHRgIJahEBCnLglr5eKmeI1ae/yeouNWhFw/s2NhWCt3Tx8XtxnH7yuXU5nsy0vGKfNPWXVYsd2TOGVvX7eoZOWEnWT/5wM/2XaTiG8uCJtPyNkBkQP7urX6ZHeqoSBFP0EABEDAAAhAgTOAQUYXdZqAlNdj3h+7Y/45FfP9VPLZ23MT5CuefEI2LphPxq49sPvnMYLdbwX/8Jj2grkXFTh0xb0pO06dit28SPjlhGGr4tloaWEiSSyQKfrJ5Px781IhQ3iuEYuHEeL/5az5UZs3vNXBQacxQDgQAIHGJSBJiNl+SJjduI3Uu3Ym7+bWjQfus7ejTF52dp5YtQQhenBo2/qVq9YfSnhYIf55LWZdP7w15oaqluflblbpUOCa1XBBWP0jwPOf9cWETi3Ni4qkzv7d6YRZwm12Wo1qcQv2X4sa079j14jFPy0hZOXFu5LC5NNriP/eXXN6tGnVvs/7v3w3LPHLP4UqS7nyj1WhK7CE2HTv1YUQu9CBvXr06dWxtY3+wUOPQAAEak2ASVg++73jadXnF+2aM3FrU9vMitPOzpj7Qya9HRVd9wvs6PfzdbnA2StfC3lv5qILF7f+nXC2XHz1vVGlPIxfNmPiBb20BC5/zVd1F58gAALaIiC+e/jtkAlxbHP+oSFlrRYQwjVVnvI8Xw4lJClH3PlZFiE3papcHp1o9M4i5cSbKrbcJyPPKqWrr/ihl8OCQxAwNALUkpbD4VjakQD1ZUUDAk7hpdiCMRoSGjqKYehtJ49T+bJEDX6plOZm9LaTTeIHXDx1iNh5sa1n31osJH9cvjfQmZ5I5vVup4xn06oNyvosPYnATC8tgTEDV+3YIwEEGp+A5MC3E+JC5v2TnPr44aGdO1aFV2hSdX0T51MNz82aY2ljTUh3a64yU2H2w3LZrYjyEsWh17+nZQnq+LIoHIEACBgIgfvnNw93o6a0rVzCXptxhnjKu303Nlpld9uq77johAy6wCjZP+e1OUKyeMbrfcNa9Z26vZDmzLu5cupARc6+czbfVU32a0SXvDuq77iolUsnyvMPXBl7IyHmB2XZqevVZe+epvL4uHv7uLuN2nD+gaoq0fFV81w8aWSr1j2p5S61AaYrqI//+nRR/FOGiFM/CXyLRnwzmgoz71qeKp7NJDq/MUrVlxmHUhRWwVThu7F83EC5AXGrV2bGklZsVv0LUOD0b0zRo2ZEgCmmM/venh58qqsxwtjDB1Wy0wtYfh57CaUX1uMbVhAyulNrPs/Ona6x7j+VKo/PO7VzORH09qTmckwxIbFXktmLV1bKuX/OEPkSqjwXiU28w64e6KUJiKKHeAcBENBIgG4k1HnY/KfvLDpwKGbHrFF0xl4RpFLuB4t/PnD02PH9a3vcWxkxb3ch4QaNmU1n34aPnh71xYYF73TkkQdLBAMXiyIOnIm/eHRDp03zuy09XMNlhCnMSTy4bvHDTjv2b1kwnCweGxkx8Wz079u3fDclceei386yulqhcHO3N+ZbffLzP/HH1n5iNWdYiGLF9trGGW99+ee07zbEHtr+/dQBSiklBXFnzuYUUXNelyGf0Uj/0bPmb9k8zI2o4gm5tm7GkLlx3/916MrlY99PFL7X83O5SUnG8sDI6IOCtbtjYnf/PI3eFucrq9SzD9Utvp51C90BgeZBgN9t+Hgy8aPWm8rEldB1T5mULqFGvxEcTfzpmilNm7P5W1/6Y3Xvs3fxgCFj+64IGRBwJjaRkFVHx7C+Cb49P6B5Brafo6omgK2FWPr2oPEzwgJmEBLw2Z5jkzuo0vEJAiCg/wQSD/xAyLy/ot9nrxKB/vdDFq2Rd9o3cnoUk3c3OT3f1MaZzk7lF1NDDPfAnoECUhAS1kPATvKLhZvpjeOq+WMDHAlj0m3cd8M2zrz8+Iv+9CaymvCYCBal/Pi+JSHdrN9dvHPD3utbu7agedtFb1/5uzCT9HG+sGc+zfPTzAiax3fm91/uD1hzPGmUl/kvc2PDvzk0/016uSMB5skzftzHNlG26snvPGAA+XInNecV0Mug+AabSoP45vIFtOCeoZ09JBLOq+/PnvHrhLjkLzw4R6IJ+SN+2UB3mvsl87sDVii6rSilR++0ewggAAJNRqB15MKLh/rFJz7ht/Tp1MHj6e1Hdr42hBfw7dFDUlOSk377QS5p3SFU5YLA6Tr+1yshZ85ce1D89jud+ob62sh/wjyfqORTfWLjM4jtyyHBjkWPnnA82C5xWkUlnxkQn0JMTVv4tm2yTqJhEACBJiAgunHsJvmkPau9sUFCJ+oVc/PXdkcNmLKOjRN0D5dHyZUldiafsOZprAJXmE3vIsnknu3puyoMyBQRdzrlX20wU6SI2ftHO3NeWT471vZOkn6JBAwPotqbPHD9+/knfnk+770ejwl5NUh+yaJaGVu2cmCkrGhVzXkdqbf+3KGt51bOT01NXOV2dDSBKWY7opcBCpxeDis61ZwIuAeGuAcqBXYIVPiKclsL2JtR0kb+XrE3LoKQ1wUVo+gZv1WfYWpDDxvVJZvGt+zRp2WV3IgAARDQfwJm1Gj2US5d95T/06usY8U3vpiybvg3e74d04FVse5udglh1SNVUGoFPBuqxnU/INzaka/YTJz6F6iy1PWTypMofMSQDvKaZJnJN8lwT4VNr0Rl5cGhml5tA/OErjz8lTCrRwvFhucKEQuF8u6oJvA4ZnKLutrW2ZzywQauOY0WZAUBEAABEACB2hHgv9xnANkUey2bNV3LEp46qLKOpRqNj5cbq72JM/Zv2UdClDNnZnZk5z//spUzjMLidt2OM4VULaJB8uB4THwhm1bnwO80eBjZGXuJ9ZkgTMalvw+S4X3b8fh2nQhZvCY2j61YdPXkCaUTg/qDja8QlBoZz7GLgER/vkmYx3qvcjgy4emTd0WEY25PbYWPnGI3RWfyUk8eii1vFFyhomZ+Um+Nupn3H+KDAAiAAAiAgF4SELw2OXzu0IjA3eresdaxPO++4WQOa2KrDgOpDRxdOfUOpWuaI12+pMfzbj2cFPvd+AEz39q5gAQI6MwZjVyU8jCYzagpSAvOEmFveT1Ub6KrlmdZNU0eis+QuL7syqjvqzPnCHoO6bA7NLx73MGzRDDr3GB23WDc5lkr3p7tt3O2Ij+d+WPLyqR0z7p8xYpq+QrL4p3Hr1t7LGRCHwF15/InQmou7H8guVfr1v3WvkMmjO1Z1kEBa+Snf8GotLRU/3qFHoGALhMoLMgTFcrvNnVZyuYjm6kZV1qsfNSYFqTmW9pYWmFXZC2QRhN1IVD58pJ379Cx+KfEqVPPzlZP74jtfFu34NKJqYRjcUki4uXf6WVPkpTGBAhayqdzJMLz51LziKOHfyeBM40pzEi9cPWWSGrq6Ont79vKhlftpE/h/dTbjG371i1YocXZwuQnbgJ/hY1uVsqNJzwvgdJ6Lu/a8bjETJGlk+CVPi+pf0hZwjOnrj0wcxJ06+j6JC3XTeBjw5HcvZ7M8fZ3p076bIWKSFp7uXh5WwkXE+4+kdq5ufq2aeveQmGjJ7p2/GRiptS9fbdA+8J7BZYBbdju1CHo8uUFClwdBhRFQKBeBCpfYetVGQoTXb7CYnhAQMsEGvPyIto1NWDyTg0dGrPy2P8N89GQ0PyjdPnyUjeVtPmPCXoAAiAAAiAAAiDwAgT4A75MuLGoSgGGmNqop9KqpCKi0QhAgWs0tKgYBKohYGbGJZZ6e70rKCi0slJtFFANgYaNNjIyMjNjDbK1E9jhQwABgyRgadNCq79tg4Rc+05Dgas9K+QEgYYhYMbl0VfD1KV7tcSdORcWFkZdwnRPNEgEAiAAAvpDANuI6M9Yoicg0OQE0tPT6YZMQiHrsYYAAiAAAiDQeASgwDUeW9QMAgZH4M6dO7TPDx6on1FtcATQYRAAARDQDgEsc2iHM1oBAf0nQOfeCgrYp9bIZDI6FefhoXw2jv73HD0EAZ0hcJ8hSQz+2RtsPMxLS4tk2uPZlmEfgF3LoD2xaikQsoFAcyfwRHjyn2v5gv4RAnvVw1yIJD+fsbau6SGCbK8lonzCs+YqS+UITx6+lt++b4TAUV2PTrNRTL8pRExOToYCp9OjBeH0lMBdqex43jM97VwTdMuHb54qKtJaw9Q8uvYKHJZQtTYuaMgwCOTEL1mx9XCmtWeZ9iYT7ls6d+7u/JoByB5t+3T23O2J6lz2nm6ZJw6sWLKFPu+vWQQ666aWs6ioKC8PmxWreeAABEAABBqYABS4BgaK6gybgOzk+vViErRwai/lduDJuz766OMVBzKIs0X102iifYtorqgTYuJsWm5SnO87eeEoIo7bevKR7lMVi8VUaSsvZ2JimTJaPh7HIAACIAAC9ScABa7+DFEDCCgJyNIPb00hXT4Y6apCwvfsvXDh/BEBdHlUFaXhk99rysKFC6d14VXOZeLa64NQ28StO9J1/kl+dM20Us9ycnKoVVylSJyCAAiAAAg0CAEocA2CEZWAAEsgM/0eIW36BNiX4eDau7p6eLZ0JuKyuKpH1o6urq7ejpr2hgvo1YuQ21miqoV0K+bx48dVBcJ+IlWZIAYEQAAEGoQAFLgGwYhKQIAlkJt+lzi3ddOwUX9N828qdoxUdVT+k+vUypaI/33wHAu68kW0f0ydT4uLi6u2+7z9RESXD+7adfB6BTrUk0Py/PlGUX5+uVKS60dpPfE6zagqHcSAAAiAQD0IQIGrBzwUBYEqBHiCNhr0tyrZXiCC6+z7ArmbJmtSUpLGhhX7iWhMopHpR1ev2Xv4mb1LGbEqnhway4ruHJ09d+52oVph47Z0Iof3rl++q/IyrsbiiAQBEAABPSBQzmJaD3qDLoBAkxKgPydx5lM6fVS9v8KLyyfJTqPrsi9eTpslnjyp1lO22v1ERMJ1O1Jse09+J9hRLir15JhNnT1oqODJUakbEuGiGSvkuYhpuST7wNfnRNyMPvDb5X5LO1iXS8AhCIAACOgpAczA6enAoltNQYBjYUUSb+bUpumcy78sWfTbUfa5BeWDBks50VOqr7jals1Slc+vC8dUe6MzbdVJUt1+IsmHtlHX3HeHBqoKVuvJocog/+R6fzh//vxZo6qaC3oNHhNAcjf8fblCfpyAAAiAgJ4SgAKnpwOLbjUFASd/ugXjhUvpZdZZInYbkY+WH84l4sOz6dGifQpvhEfXT19Jz3D0dpKLKdq3hKbNZnOdWEGPtpUtDpI78UfonJSbve4qcHQDEftygT7GvtwZe1hYWFhlNETXL2SQgAGCct2qwZOjXHGuK90g2NPNplyU6tCjX29b8aUknff3UMmLTxDQMgGZqOhJjibP8Ly7e3Y+flJ24dKyXGiubgSwhFo3bigFAhoI8H1f6UJtsf463f8/YYpVVJ5b92nTBFSnYXPTPTV4DvL94WRJFxOJbf++Xord4vihY2a1KSSqXIytpyKePpTqzq696bwuH5RXdDQ03KRRVKGiQS1CTExM9+7d1afVHohJl94vVUnV7MlRNZvGvxrPjkHkRC61jFPhq1IOESBgSASY9IN7ZlzqvfG/DhZst4v/Xf/L2z+MPJ/c0kJ0K2q27K1lAb7y38qzO6cXfOq/rZ+LY7k7KkMC1Uz7CgWumQ4cxNZNAo4jJodeWLXjj/j24+SmXSZ8V4HAtbKssrS4FBL0fm+1nmHv4WtfORM9l8X/sSKF2E4e0UFDYrOOEqVdoPsdN/zlh9rF3XycT1xhBtesvx4QvqEIiJ/eT7pZorLJNWvzxju7XrNmlTRO8dUjkhGqZkxM6ZR2w/8cVdXjs5EIYAm1kcCiWgMlYB04ckwX5wvrV8Y/qdYsjDAc/9CI1zpp0tnKYXsSv2X9BXHo+9MC9U8d4Stca1V/LOV6XZ9D+T+QoyUmEeoDEWX1hoDk1snXFxJy7s/RgzYF+h49kMpkJ5z4dGM+I0mOGn40iZxe8Oam4b6b5u2kOwCVm9IWPdj+1feBvvLX7Nt38EA83f1CQOfW3bGBZM2TADdk3KKQcTXKzvV4/Z2yNcfqsjoGv/Nz8DvVpTbzeK4tj1xLeUgEGvZIqeTJkX5y07rjTwd8+EGIa5lqJj+qrP/lPLxDeD6a9uFr5rQgPgjUgQDXxefTIde/vtl70pwWFsTU06FEfJpOyDEyrsuImYHbJ0lf/7hdGwuZaUtOuX3GMzfP3v51+oC1+1t5c+6tn/73a4vfubjMoeyXVwc5UKSxCECBayyyqBcEQKB6Anx3f3L4wD9PBvsqNhEhhHpyzD6QLi9BPTlOkN7TvnlTQOceRVeOx2VkBHkptLdy24hkrJh9gjhPXrYoULkUnX9qTwpxbIeLWvXYkWJQBGzcQzoRkuHet6eD/GanONmM9p+uu1kF9HBqSyTBfTx85aqZ5F8lF8mt818f8Vm4vW2Qu0zC8XlrJtk46X7qAocATV5DBsVSJzuLa51ODguEAgF9J/ByxBByZe+++MEKY0HqeKDZk0OSdimDtBkSoTQk5Hq+N22aWOkVQt1COC1VG4qIhP87ISb9R76CyQJ9/+6gf7UlUCL3OC2h66NyJ4ZyxRjWwkNKJ7sr/1xoxutRI3+KKpcXh7pKAAqcro4M5AIBvSbA9eg/JmDvxvW/dvefz060EaLRkyP/NtXfbN98Rb3izPcSCDSAkdz5bcUJ4jEkUuFVpyEHokDAMAlYVr+xeFUFgHlGSPe157t2tS+RsdqfsUnVPIaJURd7DScGXRwVyAQCBkDAJGTcrCBe+ppfj5YzoK7cb4Zx6D1inEDtr1s5XXEuOfn7mkRem8kfh1eeT9CcH7EgYDgEjmSlsXsjllTssYktuXleyMbJFTXlD4fr6NqWnI3+MyufoaqbsYks6/ypXKrTIegkASjXOjksEAoEDIEA3/fD736uuaP2geFv1pyDTeX2+nBpr+dnQw4QMCwCZt6hdAui2NeDYglxmLX9ja50S+1zck2Oa9vFL2v5W98vp0DmfHS+C/U1dWJn3JyCvl99N2LSptAfSFs/knSLEL9R53saFrXm01socM1nrCApCIAACIAACNSegIlnr/MnvS+nEI6pubevmbXb6G195Y/l43hM2vlO8Pmn+cSipb+phc2gbXtMWrMT3RyPsBEXzz++cjkvW8p1cWnR2teqsv1c7ZtHzsYlAAWucfmidhAAARAAARBoMgIWbh6hbqrW+U4Bisf30QiuQ8eeDqoE24B2qkOaYu/SNcyl7BxHOkoANnA6OjAQCwRAAARAAARAAASqIwAFrjoyiAcBEAABEAABEAABHSUABU5HBwZigQAIgAAIgAAIgEB1BKDAVUcG8SAAAiAAAiAAAiCgowSgwOnowEAsEAABEAABEAABEKiOABS46sggHgRAAARAAARAAAR0lAC2EdHRgYFYCgIxMTFAAQIgAAIgUEsCflwTFwfLWmZGtucSMDIy6mGuPZ42XJPniqTOAAVOjQIHOkogMjJSRyWDWJoIQOfWRAVxIKAlAo7GxKK0WEuNGUAzpqZcabH2ePKNzWsPFUuotWeFnCAAAiAAAiAAAiCgEwSgwOnEMEAIEAABEAABEAABEKg9AShwtWeFnCAAAiAAAiAAAiCgEwSgwOnEMEAIEAABEAABEAABEKg9AShwtWeFnCAAAiAAAiAAAiCgEwSgwOnEMEAIEAABEAABEAABEKg9AShwtWeFnCAAAiAAAiAAAiCgEwSwD5xODAOEAAEQAAEQAIGGJyB6cGh/bEo2adNtYLdWXMK3seFxHiccOJHlPWKAPzSAhgeuxRoxA6dF2GgKBEAABEAABLRHIHvlayHvzVx04eLWvxPO+gV29Pv5Om088/IPM8aeFWlPDLTUKASgfzcKVlQKAiAAAiAAAk1MIPvWYiH54/K9gc5UEMm83u2InRc9MjWzIwKzF3hmUxN3A81rJoAZOM1cEAsCIAACIAACzZiAOPWTwLeo/N+MHujiNu9a3uO/Pl0U/5Sp3KO8myun0gyt6KvvnM13xWx68u6ovuOiVi6doYhfuO2GotTd2GhFDJt5XHRChrw25t6SEaOWb9u+cARbiUtY1Gnhja2fj1KW3X1D1aTo/MYoVfEZh1LyKkuC8xckAAXuBYEhOwiAAAiAAAjoPgGey5DPBhDiP3rW/C2bh7mRgrgzZ3OKVNqUUv4HSwQDF4siDpyJv3h0Q6dN87stPUxzMIU5iQfXLX7otWX/9uiJ/mtm/ud0NltAKuV+sPjnA0ePHd+/tse9lRHzdhfSWElB0pmz0TNnkyFr925eFi5cNyIsckZ69y275WWnfHlNvlh7bd2MIXPjvv/r0JXLx76fKHyv5+dCubKoFAQfL04ACtyLM0MJEAABEAABENB1AvzOA6gCZxc6sFefPsEOXA3iioUnVhCyav7YAEeerVe3cd8NI79efsxmfEwEi1J+nN6nY/C7c74OIDevPmQnzHwjp0e9F2pPiqSmNs6tCMkvltFY+VrsnN0JUWP6d+0zcu7i7kQw79Zv0/t0DX531ucB5OyNNBER31y+IDb8m6+HdvYw57m/+v5sQnbHJWMSjmVd5wAbuDqjQ0EQAAEQAAEQ0F0CjLSYCieVEFLNX31hdgHNMLln+3J9GJApIubsuZky0sTUkxCF+ndtd9SAKevYeEH3cDv2U2FIR2uxtuCx5zSw5ayUBnZca1q2mGGn/RwJ2Th3aOu5bBaEBiFQzag2SN2oBARAAARAAARAQFcJ8GyoYtb9gHBrR75cySIcjlwpEFYUmNXyaBDf+GLKuuHf7Pl2TAdWWbu72SWEVRBVodLirDJaWZYwTwiZ81fCrB4tGHlTypZUhfFZBwJYQq0DNBQBARAAARAAgWZGwKqKvDw7d0LOrttxppDqUzRIHhyPiWfN2ioGdUF64OPlxmpv4oz9W/aREOUsnTpDxXLsmTKJ59hFQKI/3yTMY+QtyYSnT97FRiZVeb1IDGbgXoQW8oIACIAACIBAcyHA0Pmvs8qZMZk0jRqtSVnRpQVnibA3NV/juPeP/W78gJlv7VxAAgQkkZ15W5TyMFidgc2tLsjz6BtO5rwRHM3GKsJA1gZOnUEeV7WshG3Uefy6tcdCJvQRLCcCfyK8Sb0rDiT3ai0vgre6ETAqLS2tW0mUAgEtEIiJiYmMjNRCQ/VqIj/54JEEU9++YYHUzIMG2ZM7t3MZwrN183Dkv0DNskdH954iXj3DOri+QCkdy9o8hkzHoEEcEGgoAoUFeaJClXOAOFuYnOsm8LFh52okd68nc7z93fmcwvupt8W27du0UDRamJF64eotkdTU0dPb37cVfVQDm4Gxbd9akUGUfP2Olbe/C59DmLyEY3FJIuLl3+llT5KUxgQIWnLK1UwrpLXdzrEMEDizbTKiZGG6la+/i8JATpydcDHh7hOpnZurb5u27i1e5PKokFXr76ZmXGkxtSLUUuBb2lha2dSyMShwtQSFbE1DoDloA/m75s09nOsx7Zu5AmtquZuz79v/HkhR4goaMevDMN9as5PE/7Zo/YXcEfO/D/PQ5DNW64qaMGNzGLImxIOmQaBxCVRQ4Bq3KYOoXZcVONjAGcRXEJ1sPAI5l3ccziURc/4j197Io6PrqfYWMS3q55+//6C/x5Udy8/k1L5xbvC4T0J5ZMe6WBiH1J4acoIACICAARKAAmeAg44uNyCBJ3vWXCBtRkV4KSbMRBf/SWFPBXQtldshciR9gM2J+DuV25Ol/zJv3m/7Dv4y7yN5WHQyXa2w2Y+cHEEyDhy7o46pXBrnIAACIAACIAAFDt8BEKgHAUlWMiGhAzooNz2Sb7lk6+Wk2gPJrb0teZJXZbtxceGj3NwLB/YWBo344P0RHiRj67pjaiMLrm+3IEIu3XhYD7FQFARAAARAQM8JwAtVzwcY3WtUApKHKbnEtpO3dYVW5H5e6hjV7pbqCOWmml0++GpcB3sa686kLNyY9FBClLN4xDE4iGx4pnlTpXK14BAEQAAEQMBwCWAGznDHHj2vPwGGqaisVanRlO6XVCWSRtD5Nj5P6aZg7UjXW7MKyylslo62YuE99ZycpgoQBwIgAAIgYNAEoMAZ9PCj8/UlwCpw3EqPqcnNfMrujUSDLDMpl9hQJU5zUOZSaG4VJsOlhNemVXN1Q9XcWcSCAAiAAAg0JIEK/xoNWTHqAgEDIMD3DLAlJx7myASuCrM3fmAX58OHYxPzQwKtyZNLcXQ7kSEdvOUkRCd/Wx0nDfr4wzC64FqjcpafcC6XdDMAfOgiCIBAQxMwM+MSy9puJNbQjethfUZGRmZmGgxhGqmr7PDVOkCBqzUqZASBqgQ4PPqgmCOnksLeFCgSfQe+3ebw8lVzP7K1Jbm5hBc0qo/CtC0/6eCFFOrvwJrLMQzdZ1OkXjNlnhFC9/1VhSeXT4hJl7bUgRUBBEAABF6MgBmXR18vVga5mycBKHDNc9wgtY4Q4PqO7O+8/PA24aBFAsWm4nzf/3wfFX/6XMYzYuH8Uu9gL8XUXE7qZarOvR8RyArObztr2jSOp3IXcp5n2LRpvbxVe5LH79pDSECfANa/AQEEQAAEQAAENBKAAqcRCyJBoLYEfCPf9ji8fMVvJ7+f2ks59811DA4bXKl8yukLxGNEJ6VWxvUQKGfsaDYTvqv6LF+4a/0VcdCYUSqP1ErV4BQEQAAEQAAEWAJwYsD3AATqR4DrO2lyf17i1t9PpldfkYQ4hY4Z0025P1x1+WR3/lhx2DZoxDsh1C8VAQRAAARAAASqJYBnoVaLprkkFF9IKo5Pai7Svqicd21Ia9VzmV+0bLPIbxbc1qxL22Yhai2FxLNQawkK2UAABECgPgSwhFofejpRlmpvopX7dUKURhCCzkTp+yOlBumZAtcI3wJUCQIgAAIgUJkAllArE8E5CIAACIAACIAACOg4AShwOj5AEA8EQAAEQAAEQAAEKhPAEmplIjgHARAAgSYhoN/2rE2CVJuN6p89qzbpoa06EIACVwdoKAICIAACDU9Av+1ZG56XztUIe1adGxL9FghLqPo9vugdCIAACIAACICAHhKAAqeHg4ougQAIgAAIgAAI6DcBKHD6Pb7oHQiAAAiAAAiAgB4SgAKnh4P63C4Z9RtgvfldU4fnZtSQwSikj/XmcaY+GpJUUZ7836eYD7ZVneITBEAABEAABECggQlAgWtgoM2iOqP2geYdunJa1kVYo24dzTt04lhWX/blQH5wIM/XuvocSAEBEAABEAABEKgXAShw9cLXXAsXM4SISx+w4hs58GrbCweeEc1aQMsypTWUKZTS1Joy1FAWSSAAAiAAAiAAArUggG1EagGpGWVxCLDeNN7ck8+KzIjEO9flfZFIiK3F79Otgl0VkUVb1hUW0EO++Q9zrTt4UZ2s9Knw6ZAfpFlsOmfWB3YTOir0emncrqcTY+WqmDN/93RLP3s2BxvkT7fyCW2xe7R0TVT+Txk0ynjiFIexJCt0ZQlVCuWZ5G/OFpunWHVwkh/ni777qfDXtLJEHIEACIAACIAACNSJAGbg6oRNVwvxVn1o7ikTbdyYu2pf0UMON8iLSmr+1xdUe5PGHc1btU/8hMcLZSNpMOvgJIk9WBiXbmQnsFkaSmOMJ37QYkLH0htnns5dkX/ijmno67aft6HxvM1zqPYmjT+Zt/ZgUZrq2aSWfBOOibEZl62LBiuekV3lyTzeX3OsOrQo2r0tZ+7Gokd8/syPeTUZzykqwjsIgAAIgAAIgMBzCGAG7jmAmlUyj9OCqlN50gOXJFfFkp9i8qn0Pn0sX+KW3NiVMzGWnol/ijH24ZFXqVomKZjwn2dnaNwJTsLXXBt20s58yMuEuZP31d8lfGvm20PFvSeZtvMjPh6WHfgll7fljD1O80gKWpnP9KYHpJB9KwvFZYfKI58+Vi/RgvsKf0s0cpaIfj9vPi+EN8RTvByTcFVYIQIE6kqA+iRZve9SNH2DYhK9btVQ5ySrKV5FC3+TptatApQCARDQNgEocNom3pjticWnkvlv+tpu+Z4QmSwtqTDqF3GGKV3QlJy6qm63JFWsmHctUU6lqabQiDPHyYRwvOy3fF2WmUiJpSnNX3yJLsWywUidXXFe4ztdTuV0GOy4b3CNuZAIAiBQdwJynyRvacv6KXCsc5K31PI3ad0FQUkQAAGtEoACp1Xcjd0Y88W3GXsCeBHtzDoE8F6iC6OjJdPu00aNW1gRwlqq1RxYc7e0k5nhW4jCsyFLzMa8PIC+GRGV4iZR1aFwRC1WnpdKqHNDpa+TXPPbvezpf1MUrhKlWWJVYXyCAAg0EAHWJ6lGv6Ka26HOSfSH+VznpJorQSoIgIDWCVT6x9V6+2iwIQnY8n9/W7Zps3hpIlWUZAdXW9qbG129T2+pzQZEmq5k3RSMBw/gd8sVPdLYaob4ao55aC+reVfzl7LzbSZjhlp43y34IpP+P5gNH2yyfKWMOPP6e9J/C7Z8oZROsJmF9zT6aTt5OdhqVFsiTlLUK/d7ICT1PsMQs8Fv8mK+FZ+hEtnyvhpW8teW4rLZQEV2vIMACFQlUNn3KH/pQ8uDX/A9lbdSsttnng7aIKtULqSP3f+NMLMzodGlT4S5434oTqW2reMcZvoXX842q+y0pMk5if6ov//cboDc54lWUvioYPE3RfvExCHY/tjbJftimYCuFj5OsvPbsieyNhUIIAACTUUAClxTkW+MdrmcjoGWwV/bMJJSDpeunEpj40pIYt6qBMfJHe1PrS5liBGHlN7aJcqm3gZsBkUw4hEjU1N6XDxvk+TANPMx9CUrJSY0A81cQGILYtLtIwMdElerSkjYsqnHn90eauUd5pQYpornsPGW7KKtfKU1Me//zjjMC7FZ+70NIyMc+qciy/9riyozPkEABKolwPoevcSlvkfPrj7jDougvkf5JNuI5Iljr0tSsowDgq16h9j9mpo1Ma5cFUH2a980LUzPX7qbsXnZenIvuzXvZoZtIFwrI2LN7WAijj3I8NtZhrJOS7Sg3DmJT52Tnl0rMhvwijm9NZMHIzOGuRH/7NStUisf/lsh1gvGS/atLGlpa8Lhmg4bzBXnFKdllopUzkzlmschCICANglAgdMm7cZuKyOv7xLxxK5mHnZ0uzbp/46J97HLpiU/rclMCDIf1t6EL5WlpIo3xJe0vJ9H7FQzYRmFS7eJxXLT5azE3OAZprPCeQL70twC5tq/xRvZqTjpJ19l3xtp0dmp9Ely0e7bnG7OUvkecs8GfV7y1etmLTmya/FFR4vNXjGjc3LkalzuWmnp0Uy26Y0bMs+cMR8XYurEkd3PKI67KMX0G+WCAAI1E9Doe0TEBeELjfsFmbV3Ks14xBAvE7nvkbom44970fuwol83Sq7RCfL/iTp3sAn2opd4+SxdFacl2oRG5yRqMjv5K4mDp9kof2NJfgmdOufIb8zkTktMHCbe1LxxAAJNTAAKXBMPQAM3n5UmWZqmtlJTV1565sqzM1fUpyQrUVxOkWI2HpeviSrSxdLle6oaMjM/bWd9WuWBOZOiOswV//c3eoVXBFWducXLWY9XZUhNKfpvSpHqDJ8gAAK1IKDB94j4BNlumMSld2d0alwso/Pc7P1SuWDsyu7jYz5zvnlZpAnnZYUCRyo7LVXvnMT7NcomVL53IyMpkV8aFEYRtEXZVaUzU1kLOAIBEGgiAlDgmgg8mgUBEACB6gjIPYQq+R6ZvDGQam9Fa5flL6d3UDzrhO8r7btYkk21LUn+hOlFSfKHptCnrch35zZ+pbpmNDkn+QywDnWSXd6X83YMqyCOme48r9zfhHrfx2qrRAIIgICWCCg2lNBSY2gGBEAABEDg+QTUvkcObFWDDa8AADSLSURBVF7qe2T1VbCxPVXYZLJr7Py38Zhh3ErqG52WS39CbVv5M0YaU/9x+moZxF81tNpL/FWVcxLbQjnnJFoPbebuHVZ78wmwetubiOWzcPJ4Ni8CCICAbhAod2ulGwJBChAAARAweAIafI8KViaWRrparlit2MCHIiqV+x4RM6rKsT5Jpds35EW2sQkOc0wMU3gsEZLMWi+oMiioqpyWrlTjnHSzuJDwhk1zHqYehErOSep4HIAACDQlAShwTUkfbYMACICARgJVfY9IFsmalmXxZoCxNFOy67zM1cdEzFqklezdx/okyf2KxGMXFg8ONQ/zMzZjqMeSZO8ldiLtqDyD0uy1zGmpGuektLyIJcWf9TPlE+bqOfE/pKpzkkaBEQkCIKBlAkalpcpNu7TcMJprKAKFK/eLVu5vqNpQj5YJ8KcMspwySMuNNmpzMTExkZGRjdqEvlaO33KzHln9+y036+EwBOGrNZAwhM6jjyAAAiAAAiAAAiDQHAlgCbU5jloFmY16+Jn6y33+K0TjpI4EjKSyUlN2I3vtBCMH+bYQ2mkMrYAACIAACOgLAShwzX4kS72dpE6qB5U2+940fQdMzbhS1QNetSCNmaWNFlpBEyAAAiAAAnpGAEuoejag6A4IgAAIgAAIgID+E4ACp/9jjB6CAAiAAAiAAAjoGQEsoerZgKI7IAACzZUA7FkbduRgz9qwPFGbrhGAAqdrIwJ5QAAEDJQA7FkbduBhz9qwPFGbrhHAEqqujQjkAQEQAAEQAAEQAIHnEIAC9xxASAYBEAABEAABEAABXSMABU7XRgTygAAIgAAIgAAIgMBzCECBew6gZpbMiLIyssVVhM66fnhrzA2mSvyLR2Qf37Y9IUPy4gWbZwnxzU/cWrmEtXKh726t+o6YuGTdgfsKvuLUhTRy6vbCcj1L2DiPzfb54apDUC4XDkEABEAABECgvgSgwNWXoE6VL7y29qUOHa+KKgv1MH7ZjIkXqkRXzvb8c1Ha4pmzz2YajH4iY55QKEIyZuqsaRNH252JXbHgo86R0XcpAFlRGk16VCxTURPunhcx908SMu/PBf15qkh8ggAIgAAIgEBjEIAC1xhUm6xOS79Rx4+ealfuuQwMw867mVt6EoFZAzwfysSUPviJy2H1E0XNTdZV7TRsQvi0ofBli+dNn//F0p0Pr62a6E+EK48ki4giyVopx93Y6D5T/iSCWee2TnKBb7d2RgetgAAIgIABE4ACp1eDL35y6bOP/0hXrJVm31g+bqC7pw9d1HtlZixp9ZyeCmNW95UvFNL8n6w7I59kk5zfFk1P2VfYxK0JGbQKK0LSLv69ZEQrec0TD91tgHm950jW9MnqR2vZRIwaRcW5nJiuFCqfUG358enV3cauJGTKPzHTW0N7a/rxggQgAAIgoP8EoMDp1RgzRRlxwsQidlUvY3lgZPRBwdrdMbG7f54WTkh+TT0Vp2zvM3Fpv5Xb/zl1aMfKWZf+d4uauSWse2/IzJXTVm45fnRPdI+0NScf0irojNSaubOfvvrz3r9+Hk5i34s6YADrqWbqOc2rB89QCB0CPJQ0XS0fC/cGvbGUkPGxyXN8sXRa07cMaSDQdARgz9p07NFyIxHAdEEjgW2qas1ow3RQC4VHogn5I37ZQHd69pL53QEr1tQkEiMtpsnt/X1827TwbeN/bBgh4psrFpwNXxwzf9hLNEnwxaE3xHRm7yadcJuzO2FW1xY0stXmKTvfTkgXj9RzxeWg8GrKPeuiHOE/f03+v1hCRof6siurbNg5rdtO9nPB7untVXHsOQII1I8AI8rOZXgONpW/VdQh6Uia64jIlxri2p13fFusTe/XOjqr71DqJ7Quly5nz2onfnzp1z9XUJPWP6eci5nTGvasujxwkK16ApiBq55Ns0/p7mqnvMgzxQU198bS7eUPCJkQ1pGulg4fF7X/ejY1cqNl+oZ4qQvyeGxtNNLaQjnRZOvSkpA7BWozfnVWfTtYN6Rnzz4Dh07+klq5jd4Rv0hQZaZt8bDZpzMaws33/9s7E7imju2PjxAIEDaR3YAsBgg2FlxYhA8KuBV9bmhrrXa1fVrrUp9FbattUVvLa33Y1fYv1RZt7aNurfKUilbrhlq0LqyiqLgjAhIl5Eb/c28S1rAKIQm/+fAh986cOXPmO7nJuTNnbgwNHfrTRgKnv+33hHhtWYPa7bYhiWqWXuhCe5IQz9rgvYQMfScAB07fR7Ax+9kZNRpor0w8Uxq61mSyeSL+Wt6J9G3ff/mhV3nS9BGLTnOxbcXlGhdIVZ6K8qU9ZgKatK3zC1/ZfmDvvvTdR49lFqV/FC6sPV3xyp+XL+37zxRC0iYGfpitkVbn2w8L9I+Az5QDfx6ealPL8HbekEQ1G5u40z1JtZroAoeIZ+0Cg9xluggHzjCHmmduR8iRPQcu0e4xZQX7d6cRun208VRReHhHRrFQHDhi/HPvvfc+nWhjzBzCCEnYsOsG56ZV3jy74yCrrTlPsPE29LdkpPjJ3t5isZ+HsEd9b3Wk2IVHxM8s++WtUEKSIqeuuaG/3YTlukTg+onvF63LVN0RtHJDUvGZ1FmqhxeOeOur1GKG0F3Sqt1I9DmFLydkqmeLm5mZ1yUg7WQL4lnbCSTU6ACB+t9HOmASTHgMAuyy5xHqcZl5DF07lUx/MYJGwqmSuOaJZeqsWq/3cqePf5YQv7BB5NDhHBL7mY/AySf9s4ToOQGb3/YXk6xs4v/uztGB8st0O4RcXVHdnPrcUF+rVFOOGvrHzXQSXvibSV9d9399w0cBcS7nE8ZaapBEFgi0ggBTknXooBvdS2Sm3JBExq/d+qk7ubzjm5mfNbMhafsTI+b4T/0w9Yv+93N2T5y1euILMXZy/mvLvh43yNf8wYWf3poes9jz/HeTuuK7FPGsrXgPQlTXCcCB0/URapV9lqLxabuHebGLIoLRCVlpT+3PuiUX9g2R2FVcumdZPxy6lmpLybSzhweeybt8V0refO/JEElP9p0hHluUPeCvzKzb900d3D36iHsRnuy73Tt5XipNZl7/SNv9lE8Tems1oZeHCjk7o3ZJk+9bv0gwIeHY9QtByzbM6W1ucf6DYV3x21Evx1iXjWaf3djKDUnMiZQ59Ik2PyQ8J6Q9E/vdeGoGY0Z4o+bGM2WF+VfKTWyc6BOFyjW9pXWZRLvZRuNZk1TKaDzr91w8a93IBxrP+uTJr8Od8OXYbtChqIMI4D3aQWA7Sa2ZU1+Jk7ptQd/ImL6qE6e+NLvy7CyvUdymSbWI6nV8Wn5iX48nIj3YDae1E8+mZ3Ak3alQnfgekhoZnqBnX0l1kSEeCHyWb/2p3Nq7diiSqp/KIotetYqcZm04PODEJTkxpxt2LXFtGeI7opP61PINSbILe+hk+TDWe1MmMz59J57eGj98Fue4iENHctEU6vhYtVhXeaXxrM9Zy+XmVg7C+hERNJ51KbN5ceSbP9J41n0Xljbcq9RVIKGfekIAXzJ6MlDtYqaZ6IMzmR80UEXXB20NeBatQX9bkyEQBw9qRF5TkVnP4PDa/m4jVZENAq0g0LoNSaa9aMDDZYYE1ny4V579YFZS7MfbPp0WyO6fLtzoPEi59N8KIwxElItnbbCJnOscF89qSeNZr12c+G8az+p46pcZzgbSbXTDMAlgE4NhjmsjveLb9+jR8M+5Rw/Nn2iNaEE2CICA1gi0ckOSoP+I8WTzT+nnuW3kTNnBramFMnbvkbenK3uZV97c8dNvZBD7wEiaut6epJbFs04l5DCNZ91eocSE/yCgkwRqbtJ00jwYBQIgAAJdkYD83hGSPYQ+Y9GylRuSRLFvxn0b8UKEPw2AI9k5hISm5n8TNZLEPR1Us6WJjGCf3qiouyfJsDHXD1qt1dv6RYhnrQUHhzpMoNujR4902DyY1jyBintl0oqGz/tsviIkNBIwMeXLq58VpVGiXTMFljaWVrXi6NpVeaco27lz56hRozqlaX1vtPa1XFFUcKHStm/vHlynpKf31dmQ5N+76Rh7aX7m3xeul5rau4v9/JxtePRhQpl7D+VJiadf/yfdSd5lxl9MNyrJCs/k87z8hALDvJOvey1LszP+pvGsweLqKOHq9wtXZNErWFIr/qHyagYXz+oXEmjfMjyGdy1XA8KBbhKAA6eb49IKq2p/6LeiGkQbIVD3Q78RofbLNrwPfThwbX53tPxaLtwaH6LclFCvsdhPzn/eJZ8PUo8Dd4prWRMV5BkOgZbdWRhOf9ETEAABENB7AsKn5p49OYv92eN6iWeG59fUQ4JTEDBUAg0/AAy1pwbbryKG5DEYx3YbX/NHjx4otMfThyF+7WY7FHUVAjwzG3vsPOoqo41+goBmAtr7otLcPnIfm0ChXLGv7P5jq4ECFQFvgXmB9IHWcJjyzeDAaY02GgIBEAABgyGAx4gYzFCiIyAAAiAAAiAAAl2FABy4rjLS6CcIgAAIgAAIgIDBEMASqsEMJToCAiCg3wQQz9q+44d41vblCW26RgAOnK6NCOwBARDoVALl+bv2ZJqIoqIlDpwditsXL5QyxMzW1c2hNT85p7ievv0A8YyIDnRpYX8Qz9pCUC0UQzxrC0FBTE8JwIHT04GD2SAAAh1BoHzLR6t+L3WbM3Qip73kt0/fST2vaihg4vx/Rota2qqxnVXpqXXf/kHeTox247e0FuRAAARAoGUEEAPXMk6QAgEQ6AIESk7+8nspiYn7l9jamHb3evo66r3FzIn/+uvE14a5nfpl1eGSllPgB738VpgZ+SUpjftd0pZXhCQIgAAINE8ADlzzjCABAiDQNQjc3vbtcdJ7coyncsJMeuLP8+ypmK6l8gNHTaK/wfTHsYv1USiufLN48Xe/7fpm8Uwuvb//SrXDZjfp9RhyM3Xvxeqc+rVxDgIgAAJtIwAHrm3cUAsEQMDgCMiK8wkJGx7ITr5xSS4jtp6OqlO+a19bcrusUl2ofq2suF5aejx1e0XAxNdemuhGbm5K2itTF/JFIQGE/HX2mjoDryAAAiDQPgQQA9c+HHVUi0L6oERm4mCHYdbRAYJZukRAdu18KbHt72Vdxyh5nTMNP3/AXV0DX1vxcqAdFRUy55cm512TEdUsHnEICiA/3GfqaMEJCIAACDw2AczAPTZCXVLAXNn1S+yKYvXvMlSdW/dNVPBN9akWLC1JXfFLwq7Wflm1rZYWuoMmuhQBhqnrrDXovAkhDebfWCE63yYwU21TsHag663FFbWuAUsH28rsS9Vzcg20IgMEQAAE2kIADlxbqOluncq7RXk5D9UrQKa9n566Jd1BmxvgpDlFGTcfthZQ22q1thXIg0DTBFgHjl/vF+JLb91VKGspbuWVEhvqxGlOKiml51ZnzltOzHr30uZVqNlA5IIACBgWAThwBjSestz9E5YScvTHKaM3SETpqQXMncw/FiWX068UxeVDr0zL2LZ5/yuiRIkoMXbFlfxzWQnT2GOJaH/qObXLJb2askKZmShZcOFiWVN0FLeyVs9UCcfOPJN5qyp/8w/xR0ne8q9iRydKlty6T0r/+FStTbRh7qc3brPfbszF3zbELrmQeSBj8TRqyfXT9Ws11SjKQKDDCAjc/W3JzWslKleMTqtJBjqRrLSscrbJ238dOk9ISKAX1750/3effvhNOldCnb4mUnnm0VLSqNvXREUUgQAIgEBTBOrcKDYliDLdJ8B39l409szKnCEz4npYEBN3+4eVB+mEHEO/jxT3So4dLTh2NHDpmkkvl2bOWLR5wnoSNXfc93Pv7Xk/feFK3yHJzhbk1sYFKSuvDF+7o5cX79K6ub+OWTb1xCf2jXw73dr0r7S1TmM27rI1v3cj9dOsv6/1iQ0YMsn3jxS/UXGxJoyJFZ88kPMDF33uGyTiPSg898GMTcs9Xl8dS5iK4rxNv76wyXva3IERViZO9WvpPmlYaJgEeGZWhOw5kBf9jFjZQdGI53r/vuqrhTNtbUlpKTELmBypDG0rz9t1/Dzd78CGyzEMvdGRKmfe2FMaskCf+6tOt0/+UUkG+tANrG1PD8tzc3ZfdBszkl5TSCAAAiCgJAAHzpDeCTbCQf0JuSmMirDnVlGr8k1p99hZVu409PuM4H5snDV/0baCLREzV7/Kfh30fufv5OdvX5U6uxdlrNzjvTTFJ0CokPG8n32TJM8oKlhi729DpRokpuLqUUJetO3dy86CZzc32Z+TcBe7EZ/+nsGhyjeW+bA3BivKSi8UVfFsBEJCKqoeEdKNkxz16ymRp+q59kZ1azVoCxkgoBUCfNGkYU6rfv85e/T7YuV7UyD6V2L8sYNHaSCphdMTQ4I8leEJJQUnqTv3UoyENUvgM3/OHJ676s1s5h49Z85gL/VPNhzbso0Q/0h/9rprc2KKjqbFp0weNZL6l40kaW78AsWzn/iL1A03Itfi7LYopDG42+b9NST5HXuLFrcDQRAAgbYSgAPXVnI6We8hd+P/kMZLN/gApXl8dZw1Yf06S6UjRfjW1EFTyNmatNKZ+ElfxLekbzyXoe+S5OU/BK8nxNdv+nMDXppkb817SCpoZfWCLLmVuuLHhVSAEJ8Qb1v2VdUoCbFxrfmmqVeLlUMCgc4gIBr1nNvvqz77bn/i7MGq2S6+Q1D0P+rZcv7gceI2sb/KK+O7iVUzdlTMWOBSfVaevWXdqcqAaZPVO1LrqWnBqYJ5aMwzMqdXbPcm4114VX/vkSl/PKIFWlsg0iaFdWNwW9AKREAABNpOAA5c29npak1L5XybJvNqFnZql6r3x7FrP6FrM4KD7R4qWEkj46beHub9XpiX8VTx+YI7Zw4fX7l0Q1n3OUtH1lZLZOcOLFzvtzRl6KQAVtGVnxJjqmoEqgONarJwBAKdTYAvmvH6sGVfbVq/3+ufg90asUZGHMOmjQtRbxZqREpx8fvPfrcNmDh1EN2X2oYkLVy3ctuqTeqaQ5UHNK50/ew1ymP7qBlD353r7KDIj49NzyNkyTM5JJf4rHz6o1hF1m97nplfwMkN/HhbaEyfJvw/5sqR/e8/f+YYKy2MmhH67oz7Xz9TR+H7AcenjDxOm2BTyJA1KwLC3OkR3T+eekI4OML0XPLGCuEYmy3/ppk0Btc+L9fl413RMd6sOBIIgEDHEGjqG7pjWoTWjiawp/iy1FEkqJ4GU7bXRPBM9UyDiw85mPCj97oZdC6NPhuhOOMwTxJh22Ayj1Mou7JtBz9itGPfUPu+oRbFazZfYKOAHlIPLe8O9QhNCUMNoJq7u7uybzLZrfwtqSQoRmPn69biNfFNo7E6MkGgHQnYSSb85+sJTSrkBz0ztUkBrtDYc/bXXzcv1ojErZQF21btGbgsSeRjUfx7UtpaldxDTXGlzhPflKTMkE94o09vC4VJT3Lxt2+eme+3aM2LwyWVp7Zvmj+O75wxgAuf0NTatYyY589Mi5/ybhC5m5+9Yvb169N96yrkEYYXHDfmnUG23cmNX1emzXjHOYONmn0ovVucsn5ziu/AWTQ+z8Vp0dhztWJwNbWFPBAAgXYjAAeu3VDqgiJTr7BAQtImBKQRYj8/5elguqB5lPXkFHIaZ+3ITqux6WEF3SsaQcPR2MQVubBFjgGJawpjZmwIW018fEleLl0bnZwRwQk1/MeUJi9KX7KIro0K844WETLw81C6zGMTSF20pUmS1bTupIyNHlEkfXrYkZraQ9kYOLnaKnV+3Vo7emp2GdXSeAUBgycgy82MpwGpO8LG+dK+2pvnp61NVXbaTlNcqZV/uKMPkQVFuonY27Era+YSn7iw8eGmTKVlxKhQkpCTfblRB052j/6+q8RHbOfpzfP0dtxMf42CpjoK6XlwnPeD65fu3b1nIQomZPWNwjJnNjqW/kTY3FdOvWHFzUYyF+mlXRODy+nBPxAAgY4iAAeuo8h2jl5j98EZ+71Onic8E3Mvkam165Sfo2zpR7qxePTP24w9VGFntqN3TQm3Uj3ZgC+K+XkH35vdqcBzi554IuPGqZNld+R8Z+ceHiKrRn0pgeS/J3qey7pzs5iQV4cE9Ld3YJXz/Z+d+av46qU7RtZCBwubnqtOOPx5pOQ+sRH1c+pJSq4ytFEjj7GsVbU0163VOeTQKgjoEAEFQ12h3n2ESpMY9a0XPW0krpTda07k9DHD9GqXlmbnkryEpOCE6h55N/EgE76HZFbItiWTziyhsapDQ6e9EjhuAJ1Br6WQMFfSt8XMoPdp9MZMGFStlR5UEJ8efPVachMxuLXr4BgEQKBdCMCBaxeMuqTEwtUtzFVtkMDR35E75tv691FnElMHb8fqsBxjgZ0/e5evSnw75+BoZ/VZaeqK9cpdCOoc1evola9/FGvXN1QVxl2rlO8Z4OWpPje2cR4yslqbo4jLt3BUW6UWo187tWvVZOMIBLouAYaoHDej6s/ppuNK1c8gZh2q6Ulz5kYQLpiV0G0QTVHke8xInhlbUJyXf/3Q9oNLniXudLs6O5NH7+m4/7KCr2YUBcU9//lLdMs5IQW/SepGu3JC6n9NxOCqRfAKAiDQHgSqPxjaQxl0GBwB6+g3/rl3poZdETw+u5MVCQRAoCMIWHR3IeRg8h7JR7F8Ir15+ADdNq5shzpWGuNKjW3J2YzsAf4DiILvOmIyWfhKTuQh/77s/ZvsyonLt11F/arv6+paLCvI/d8tj3GhPR28e4a4FSbvuXvjLiHOtRRWKu4T0svNmvXemOI/9tK9EW51ddQ6q4nBbdJrrFUDhyAAAm0iAAeuTdi6TCUjvo159Vxdl+k1OgoCnU3ANWDN3OMzFn29Y5HakhA2mJUv1BhXSgtsB/oWr3o2cRUVipt5avaQ3ZvSngtLI772JJdGOdjP39aoA0cqzyx5/n9LiDAopOgYfbjj0EnhdPcoU1vhlFUvkvmzv0hR20KLucnBOtG0dOtS3RjcqS8F1FTAEQiAQHsT6PbokSqWvb01Q5+WCOy6VbL7Fo1CRmofAt4C8wLpg/bR1QItIxztRjo2XIhuQU1dFdm5c+eoUaN01Tqdtqvetfwg/8jlc9eMHPyEEhdp0V0rX2822kxRdqNuXKm9yJWb65IVZ2bcLScWPf1cRI5GhLmXdepGYbGxjY21u7etm2MTN+tMybWb2dkVZfdNbNxcBgSYK5dP6T70WgqlWUeu5RWbuHi5SIQPCm+Ye/tSsarrBaVMd0e3Wm/g+9euqGJw+yrjYjuROK7lToSPprVAAA6cFiB3bBP1PvQ7trEuoB0f+o85yNSBe0wNXbZ6N1fh7ybsZqAOSNLcxQH/26FBscRwH9iGa1nDeCPLgAg0cVdmQL1EV0AABLRFANNvbSZNb8ZIR82mCzwXZ/zzrQamKYiRNfuDrkggAAJ6RwAOnN4NWX2DffnGzvaqAOf6ZThvPYFu3bqFm2uPp031MxhabypqgEDLCZha11robHk1SIIACOgqAThwujoyLbbLwYhYPKI/gIDUPgRMTPjyKu3xFBiZt4/d0AICIAACINCVCGCjd1cabfQVBEAABEAABEDAIAjAgTOIYUQnQAAEQAAEQAAEuhIBOHBdabTRVxAAARAAARAAAYMggBg4gxhGdAIEQED/CWBDUvuOITYktS9PaNM1AnDgdG1EYA8IgEAXJYANSe078NiQ1L48oU3XCGAJVddGBPaAAAiAAAiAAAiAQDME4MA1AwjFIAACIAACIAACIKBrBODA6dqIwB4QAAEQAAEQAAEQaIYAHLhmAOl3MSMtvnmnUvf6wJTlbEpOLdJBy3SPFSwCARAAARAAgYYE4MA1ZKLHOZWFqbHR8dlSVRcqTq99IrDf3+pT3elY5eUj8xauvqXQHYtgCQiAAAiAAAjoEwE4cPo0Ws3b+uDuoewsubFK0NJ38r70A334zdfTngTDMITwzE0J6Y4t0NrDjpZAAARAAAQMiwAcOAMaz8qcJdFvE3Jk+KgRUa693tpaUHn7r3ff+P4K9ZiYSx9OnLzq55SlE3s5u/Zyjo4/mH1203uT2WPXXku3nqUiXJJmJMcrM51d5+0+X9Y0neIz21/kNNAqH6qV5G+Nj3o5/suP5qmU/3xWrUS676vFzu7eQtdeHhHUTit1Pl5BAARAAARAAARaRwAOXOt46bS0mUvMsvGE+C2f/3b8xh+eDbRnHtykE3IP6Eql7F7e4SMJby4gY9du3/jJyOykidGj5l0J/WlrSsKrft/OWn6aW2Y9nTRv7MJDif/dferk3sRXs1+IeC+78TC1yvPbnxgxR7Bs7dGTx1L/b/Fns0Z9k3GH8mEqSrJ2JS275vnTDk75m/86yGaT08nznl3+45z//JC2OyVx9nCdJgnjQECXCOhwzKgsc2fK7mzuCtclYrAFBLoCAThwhjTKNqGDB9KlybARg8MjB/fzsCGErlQSdqWSW1SN25oZP21YcOSkhctCiXhx7ndzI4ODnp//nj85cvaylFTmrFqSNvLjleMGuJmbCZ96aQEhWw/lNzoJd+K3r6iSxZMjupuZ+Uf/I46QzWcvczRvEPH75z+fG9kv6Pm4lf4k5+9rZVT5Nwup8t1vPzO4ryRo4qQhhNzjhPEPBECgGQItiBmVbol7dVN19Gsz+tqxmMlcteCFfcoLvx3VQhUIgEDzBBCG1DwjPZJg5KyxcpnSa6tjOHWXrC3MVFmsX2elipTjW7sTUsVGphEHQpIXjvNYWKdiIyfSC2dySPZHA0QfVQuMJCbqY7YBNhmbUOVsDJ6CuUHIUwFuXC6p5OxUHuM/CIBAowRozCiP14KYUV7FX2n3pjWqpiMK6GcGNc2yO/HnV1/4HdEOdIIACGgmgBk4zVz0OddKOd+mqQvqULe6ZeqpMOY2IXH/zbxx7VLR5QL6Rw+mS+g0nubE+mizfyhSC9OD9a880VBUrZwtkRGVATx84DckhRwQqENAc8xoYVqCOkq1V9TLCZk36TUl2xE3Ji6bLJs3ISq6V9TslApCNMan1lFf50RD8Gvl+dRY13lrk9fQgFraYtTsjTfUnx9FGRtjXXsJ3Wk07Zh5hwm9SUMCARDQPgE4cNpn3tEtpmVdZCPa1B+2quaa2DKgKjJzGCgmCe9tyC5j7/l5PEX2wf2FXGycJosFIf+YQj5//pfMm5wwT1p4bEfG1YaSKuWC7v0JWfZtGrciK/17/x/YxNCQFXJAoJpAYzGjcjn/tWVfp6bv3bdjbfilL2MWb60g/IBpC+jsW+yUufEf/LBkar9ujcSnViuvd6Ax+JWR3z1Etr678K8X16f89OX8rM1vL/utgFakzyoaMP7tu1PfT92985f5k8Pq6cIpCICAtgjAgdMWaa20YykKf42QedH+9I55+FcnCUPnv46wnpxCTqNUytULl/J7R0j2PYXSJK5IxhY5vZK0Nix7VaTY2zl6hLOrT+TTH5Y0brbHP+YtH0nmjQ5ydmU3vfoOmrTqr7tUvKFyrt2eL2+cTzYv8GXv5v3HLkmjMXD1XMzGm0IJCHQxAo3HjIpGzY1/IcyOPJCb2Dj1old1Fb2QhZIIiZj4D4oODx8cGex9stH4VE0Ymwp+Dd2e/X/PDw+KHD8jYRDJLnlA62elriZk8X8TXuoneSJ81LRJgwj9bEECARDQPgHEwGmfeUe2yOsVn394+LHzxMSkh8jH0sY1bfcwLxqDxvP/bvdOnpdA2bZX7N60SEvVCd/nm927rUTsUqmZx7DNFzIzT2QW3pZ3d3UR9fYRqoQ02cxzmv5dwcgzmafOF5vY2rp7ent6OFE5rzF702JsVSuvAqp8pxXXrnPk3LPpAw+cvmrqKA7p53L7cqkrGxyHBAIg0IBA4zGjp7fGD5+VxFYQh47szr5ywaxMFT1i6KZxelE1HZ/KVqmXmgh+NVd9RbB3W1xr0rN7c8hbfe1VKmS0XS6/nkqcggAIdDgBOHAdjljbDQh6hkf2VDcq6CthnSr6se4hqQlQs3Ty7qvMpiU8gUjix8lw/8x69Asf1k99Xrg1PkT5baHOUb3GfnL+80mWhCeUBAkldcoshd59azKo8pp27cWDJohVZfaSHjVSOAIBEGhAQEPMaOXZD2YlxX687dNpgeyOpMKNzoNYz02dVJ/nqvjUxYMJtzmJ3WugltD0qgp+nR/eg3vMtkq8IluTLN3Zbk3I9VLq0HE6ebQtduIdCQRAQOsEsISqdeR61aDwqblnT2aePdPgb3mMpV51BMaCgD4RaDxmlAaVenu6st5b5c0dP/1GBrHeGk2m3cnmP8+xRwy/hfGprDBNrQx+fTJyONmQdvoOOydXnH1g12HMwHEY8Q8EtE6gyRszrVuDBnWNAM/Mxp79rkACARDQJgE2ZvSz5xb4bqaPY1SmUNZjMnOLGkning5KUOcSMoILZuV7hfllLZ/kvJwWLM69PG/5bz/S+NR5xI8+iDGLEP93d44Orp6Yr6nMHbHBr3sHTY8UryJiP5KdQx8Gnpo/2L46gpYTqjpMDkWxobLiMa+PXDguRrK1Wos/F0JbfYoDEAAB7RDo9ujRI+20hFY6iEDFvTJpRVkHKe+Cak1M+fIq+iQ9LSWBpY2llSpiUEtNohldJVDvWi7OPlwnZlTsbUPvuJmyzL2H8qTE06//k+4k7zLjL+7J3YjLsjOOFpQRBze//mInHmGK6sanNnMjVnmnTvBrDwGR3jx9ocJL4q2cay8uzLnNcxELufdq2aXde4/dJY79IwZY3b1Y2V3k0UMXA1pxLevqOx12tQ8BOHDtw7ETtdT70O9ESwyjaXzoG8Y46mMvOvJalm6Z7f/6Zg1Upn2599/jvTUU6H8WrmX9H0P0oCkCWEJtig7KQAAEQMAgCAiGL888+36DrjDExAYTwA2wIAME9IEAHDh9GKUmbSxiSB6DcWySUWsKzR89eqDQHk8fhvi1xjzIgkDbCFja9MDGo7ahQy0Q0E0C2vui0s3+G4BVhXLFvrL7BtARHemCt8C8QPpAa8aY8s3gwGmNNhoCARAAAYMhgMeIGMxQoiMgAAIgAAIgAAJdhQAcuK4y0ugnCIAACIAACICAwRCAA2cwQ4mOgAAIgAAIgAAIdBUCiIHrKiONfoIACOg4AWxIat8Bwoak9uUJbbpGAA6cro0I7AEBEOiiBLAhqX0HHhuS2pcntOkaASyh6tqIwB4QAAEQAAEQAAEQaIYAHLhmAKEYBEAABEAABEAABHSNABw4XRsR2AMCIAACIAACIAACzRCAA9cMoC5cLLvx++art5v6WfeH5blZKbvuNSXShfmh6yAAAiAAAiDQYQTgwHUYWr1XzNyYv6joemUT/WCKjqbFfyFVNCGCIhAAARAAARAAgfYnAAeu/ZkajkYfYtzYNmUF85AQI3NTQrrjPWQ4I46egAAIgAAI6AkBfPnqyUC1yExp7uLR6dtyOdmyLHqcqjwuOTN39KE/LrP55bknFo9OlIjo34b4n0pVq5/SqykrlJmJkgUXLpY1aK0sf/XMxNgVxexvrkoL1y1JDBB/JhF9MWYpIaofyC7941O1BtGGuZ/euM0QxeWMV0T7UwvU2pgra2ZuSNjFqM/xCgIgAAIgAAIg0DYCcODaxk03awkse5EzyZlV1LqSrMwduWeSDrC/yl5+4e+9udY9exBy7VDY6IP3R05OPfTKliSXlKXrV6fTibRbGxekxB8ZvnbHq3t3DZ+W8+uYZcU1YW10Ck6WnzBg59o9oz6ZZ29BbqUs2LZq08BlSVN+/mn49KHVIB7K+YGLPp+8ZdfUjWvcitZsWr69ythdOND35MJNpco11vJT+7/c4xnWr7FJvWpVOAABEKhH4OH9kgfl0nqZ9PRhybmslHSEMTQkgxwQMHgCcOAMaojtB40leQfKFUR6em8x7VlewvXbhCk6V0zG9nQXMPn7jxPy1Lxp9j34fPfgJ5eNJcmnpLLcjJV7vJcu9wkQ8vhC72ffJGR7UYFqEo5nIr2yZvrOZN9Rv54SeQqILDczngrvCBsX4eg/wG9MBCEVSoJ2w94YPDnUjFQ+5NkIhDS76hEhLmOptvXn/y6hMsW7k4rJZHGIo0ERR2dAoGMIlKSu+KXWdPWtH4K/CVvH3VhJc+NnZuWrnDnmxom0+P9gI1HHDAK0goBOE8BsiE4PT2uN43sE2pOEO5evka3rB67ZZr9j3LnjBdZVR0lUjDWfyEtYZ+t/YwbUUjtUep9YEHImftIX8bWyuUNjIUmfEEYPAz8/xHpvNCkYqqJ3H+qgsYmptRp6K3XFjwvXs7k+Id627Gs3GiTnEjI8iqR9f6hfv+Bz8XuES7fZGbNFSCAAAs0QkOYUZQjpBLky2cWmPz/Kks+e8Kr+3iObqMonJohDVaPAKwh0MQJw4AxrwK1FTwSRMynrKveGDE3oYyWf/L/P11vY7vGLXUBH+qEV/awPmXwo2VnAbkGg3wRG1J2SnaPTcqFrM4KD7R4qWI/MSLVzQcr6WkFjJZbbT85+r9fezz0cVO8WhqgcN6Pqt4/s3IGF6/2WpgydFMDmXfkpMYZdyCVE4P1CHHnhm+PrTp8kvrHRfbhM/AMBEGiKQFX+5h/ijxJy9KvYFJIXOCVjGe9U8t6TIePiwi/Gx6bnEbLkmRySS3xWjn+5th4azJqYEr+eyxo75tclXp42tYtxDAIgYEgEsIRqSKNJ+2LjOnJoUfL64qin7flE0G+sfd6mM8eIt4SdM+N1p/+PnvrtSJUxdd14RrJrhb+fqOI7uPiQIwk/FpczbKaxojjjQCm7WYEoikj4v1ZEr04f6LNnW9SiG+WEWHR3IeRg8h7lUs7NwweqNzHQuYHu7q6s9ya7lb8llQRRZ5FN/H4jBpLcI6vWk2lv9rRT5uE/CIBAUwR4TgFDJvkSMnZU3Dvj1oy14pOHpXRCrkhB+M4T35QQ4jfhjcFxSeHK+yW1piaDWdVCeAUBEDAUAtVTKIbSoS7fD9s+IYTsCRzfnx1aa/GTQST92GQHV3btxcglesqyF39c8nzOSmLvQ4rpfTx59/UzAwIS1xTGzNgQtpr4+JK8XEJ8J2fQ4DYiy6NLpvQ5cO5hydsqg8dtCiNTDn0SsGbu8RmLvt6xiApwKYSdzOMLPaJI+vSwI6pM+jKUxsBxyV28bPLxJZuGjw/B7YIKCV5AoEkCRtbe7mI34tPfMzhU+RnNhbyZ0rAEK/9wRx8iC4p0E7EXdVX+MZUmVTBrCg1mVch4bDBr8oyigiX2/piEa5I1CkFAbwnAgdPboWvEcFPfic//PMDc25UrF/iu3OVUamWrjjxzHPfO62GTr53Ll8tNLHp62Hv3YifK3KInnsi4cepk2R0539m5h4fIiobFEb7vlm3EiQt9s+gTeWi/pPCWKWEEYW/8c0v/y+euGTn4CSUu0qK7dHqAzvxJVp1w+PNIyX1iI+rn1JOUXGVMOAtopJz00kni8663iFOlysQLCIBAUwQectuDuFCHemIMu6tbTu+s2AuvdmosmLW2DI5BAAQMhgAcOIMZSnVHjAV2/jWhZqYO3o4O6iLuleZ4DPGuk0VP+HbOwdHOdXJ5VqIaPUbWro59lU4hMReF+opUoub+6mVRYxvnISOrNTiqBUjJ8f1rcweuear+t02dtnACAiDQKgINP7oZGvigKZi1VWohDAIgoDcEsKilN0Olp4aWHN1b7DOjD54eoqfjB7M7icDDKvoYoDtcsKlyy1GNHca2JCcjmz3ndh2pChoPZq2piSMQAAEDItDwNs6AOoeu6AABu5h35sXogB0wAQT0ioBNIL1sliZJVtOY1EkZO0wqjpK8CC6ulG870Ld41bOJq2h/4qb/TP8f5VZaHRsLZtWrfsNYEACBlhKAA9dSUpADARAAAa0R4Ps/O/NX8dVLd4yshQ40um3krilDunNxCDy3GZunBmXcLScWPf0s3MmUn6NsVQUag1m1ZjIaAgEQ0CoBOHBaxY3GQAAEQKCFBPieAV6ealkX71q/YcK37xdhry5x9K9d0jCYVS2HVxAAAcMigBg4wxpP9AYEQAAEQAAEQKALEMAMnN4Psi/f2NneUu+7oTMd6NatW7i59nja8NWPeNEZAjAEBEAABEBA9wnAgdP9MWrGQgcjYvGI7lhDah8CJiZ8eZX2eAqMzNvHbmgBARAAARDoSgSwhNqVRht9BQEQAAEQAAEQMAgCcOAMYhjRCRAAARAAARAAga5EAA5cVxpt9BUEQAAEQAAEQMAgCCAGziCGEZ0AARDQfwK9BebEUf3bdPrfnU7vgbmREYtUW0mbbWmrT2hHpwnAgdPp4YFxIAACXYcA9QDgBHSd4UZPQeAxCWAJ9TEBojoIgAAIgAAIgAAIaJsAHDhtE0d7IAACIAACIAACIPCYBODAPSZAVAcBEAABEAABEAABbROAA6dt4lptj5EW37xTqaHJsn0/p2TelGkoQRYIgAAIgAAIgIDOE4ADp/ND1BoDKwtTY6Pjs6WqOhWn1z4R2O9v9lS6Je7VTdUF0gvL3lxw5JYm1641zUEWBEAABEAABECgUwjAgesU7B3W6IO7h7Kz5Opf17T0nbwv/UAfPm2OV/FX2h1G3a6xiTshbDYSCIAACIAACICAHhKAA6eHg9aYyZU5S6LfJuTI8FEjolx7vbW1oPL2X+++8f0VRrYjbkxcNlk2b0JUdK+o2SkVhNyrUSLNSI53du3F/c3bfb6spgRHIAACIAACIAACOkkAz4HTyWFpm1FmLjHLxicvyV4+/20/C2Lhac88OEAn5B4o+AHTFkzbMP3+lLnP+grkJkIz8qC6hdNJ88YuuZz4391DRCZ/fPX6CxHv7buQKDarLscBCIAACIAACICAzhGAA6dzQ/IYBtmEDh5IyI2wEYPF3MBWZJtSbfRQKImQiMm9QdHhYm7htPKsqpXKnFVL0kZ+vG3cADeZjPfUSwvm/d/0Q/kfiCU2j2EGqoIACIAACIAACHQsAThwHctXy9oZOdugnO4urT+wTBUtYOiuhfqRbw6EJC8c57FQy5aiORAAARAAARAAgbYTqP8933ZNqKkrBKyIehNDA4saDjdzm5C4/2bOD+/BMOweBx6voUwDNcgAARAAARAAARDoVALYxNCp+Duk8bSsi+yDQ6q3nCobMe1ONv95jj3mHDUrZa6Zw0AxSXhvQ3YZQ103Hk+RfXB/IVsbCQRAAARAAARAQHcJwIHT3bFpg2WWovDXCJkX7U+3lA7/6iRh6GbTI5wnx/cK88taPondauq+tkwhv0xIObve6vRK0tqw7FWRYm/n6BHOrj6RT39Y0oaGUQUEQAAEQAAEQECLBLo9evRIi82hqfYnUHGvTFpR69kf0qsHj50nJiY9RE+KbSpO51d4ib0t2XVRWXbG0YIy4uDm119sW3Qmn+flJxRwC6aVdzJPZBbelnd3dRH19hH2ELS/lfqj0cSUL6/S3m9UCCxtLK2wZUR/3h+wFARAAAR0gwAcON0Yh8ewor4D9xiqUJUSgAOHtwEIgAAIgIDuE8ASqu6PESwEARAAARAAARAAgToE4MDVwYETEAABEAABEAABENB9AnDgdH+MYCEIgAAIgAAIgAAI1CEAB64ODpyAAAiAAAiAAAiAgO4TgAOn+2MEC0EABEAABEAABECgDgE4cHVw4AQEQAAEQAAEQAAEdJ8AfjdJ98eoGQtNTfnEEg8Sa4ZSy4u7detmamrWcvnHlGSHDwkEQAAEQAAEWkkAz4FrJTCIgwAIgAAIgAAIgEBnE8ASamePANoHARAAARAAARAAgVYSgAPXSmAQBwEQAAEQAAEQAIHOJgAHrrNHAO2DAAiAAAiAAAiAQCsJwIFrJTCIgwAIgAAIgAAIgEBnE4AD19kjgPZBAARAAARAAARAoJUE4MC1EhjEQQAEQAAEQAAEQKCzCcCB6+wRQPsgAAIgAAIgAAIg0EoCcOBaCQziIAACIAACIAACINDZBODAdfYIoH0QAAEQAAEQAAEQaCWB/wfcELy/Kc8jawAAAABJRU5ErkJggg==;" vertex="1" parent="1">
          <mxGeometry x="770" y="30" width="832" height="725" as="geometry" />
        </mxCell>
        <mxCell id="0s9ulUNGyoIBabNM_9_8-20" value="Kelas" style="shape=table;startSize=30;container=1;collapsible=1;childLayout=tableLayout;fixedRows=1;rowLines=0;fontStyle=1;align=center;resizeLast=1;" vertex="1" parent="1">
          <mxGeometry x="-200" y="190" width="250" height="130" as="geometry" />
        </mxCell>
        <mxCell id="0s9ulUNGyoIBabNM_9_8-21" value="" style="shape=partialRectangle;collapsible=0;dropTarget=0;pointerEvents=0;fillColor=none;points=[[0,0.5],[1,0.5]];portConstraint=eastwest;top=0;left=0;right=0;bottom=1;" vertex="1" parent="0s9ulUNGyoIBabNM_9_8-20">
          <mxGeometry y="30" width="250" height="30" as="geometry" />
        </mxCell>
        <mxCell id="0s9ulUNGyoIBabNM_9_8-22" value="PK" style="shape=partialRectangle;overflow=hidden;connectable=0;fillColor=none;top=0;left=0;bottom=0;right=0;fontStyle=1;" vertex="1" parent="0s9ulUNGyoIBabNM_9_8-21">
          <mxGeometry width="30" height="30" as="geometry" />
        </mxCell>
        <mxCell id="0s9ulUNGyoIBabNM_9_8-23" value="id_kelas" style="shape=partialRectangle;overflow=hidden;connectable=0;fillColor=none;top=0;left=0;bottom=0;right=0;align=left;spacingLeft=6;fontStyle=5;" vertex="1" parent="0s9ulUNGyoIBabNM_9_8-21">
          <mxGeometry x="30" width="220" height="30" as="geometry" />
        </mxCell>
        <mxCell id="0s9ulUNGyoIBabNM_9_8-24" value="" style="shape=partialRectangle;collapsible=0;dropTarget=0;pointerEvents=0;fillColor=none;points=[[0,0.5],[1,0.5]];portConstraint=eastwest;top=0;left=0;right=0;bottom=0;" vertex="1" parent="0s9ulUNGyoIBabNM_9_8-20">
          <mxGeometry y="60" width="250" height="30" as="geometry" />
        </mxCell>
        <mxCell id="0s9ulUNGyoIBabNM_9_8-25" value="FK" style="shape=partialRectangle;overflow=hidden;connectable=0;fillColor=none;top=0;left=0;bottom=0;right=0;" vertex="1" parent="0s9ulUNGyoIBabNM_9_8-24">
          <mxGeometry width="30" height="30" as="geometry" />
        </mxCell>
        <mxCell id="0s9ulUNGyoIBabNM_9_8-26" value="user_id int&#xa;date_create" style="shape=partialRectangle;overflow=hidden;connectable=0;fillColor=none;top=0;left=0;bottom=0;right=0;align=left;spacingLeft=6;" vertex="1" parent="0s9ulUNGyoIBabNM_9_8-24">
          <mxGeometry x="30" width="220" height="30" as="geometry" />
        </mxCell>
        <mxCell id="0s9ulUNGyoIBabNM_9_8-27" value="" style="shape=partialRectangle;collapsible=0;dropTarget=0;pointerEvents=0;fillColor=none;points=[[0,0.5],[1,0.5]];portConstraint=eastwest;top=0;left=0;right=0;bottom=0;" vertex="1" parent="0s9ulUNGyoIBabNM_9_8-20">
          <mxGeometry y="90" width="250" height="30" as="geometry" />
        </mxCell>
        <mxCell id="0s9ulUNGyoIBabNM_9_8-28" value="" style="shape=partialRectangle;overflow=hidden;connectable=0;fillColor=none;top=0;left=0;bottom=0;right=0;" vertex="1" parent="0s9ulUNGyoIBabNM_9_8-27">
          <mxGeometry width="30" height="30" as="geometry" />
        </mxCell>
        <mxCell id="0s9ulUNGyoIBabNM_9_8-29" value="" style="shape=partialRectangle;overflow=hidden;connectable=0;fillColor=none;top=0;left=0;bottom=0;right=0;align=left;spacingLeft=6;" vertex="1" parent="0s9ulUNGyoIBabNM_9_8-27">
          <mxGeometry x="30" width="220" height="30" as="geometry" />
        </mxCell>
        <mxCell id="C-vyLk0tnHw3VtMMgP7b-2" value="jurusan" style="shape=table;startSize=30;container=1;collapsible=1;childLayout=tableLayout;fixedRows=1;rowLines=0;fontStyle=1;align=center;resizeLast=1;" parent="1" vertex="1">
          <mxGeometry y="-50" width="250" height="130" as="geometry" />
        </mxCell>
        <mxCell id="C-vyLk0tnHw3VtMMgP7b-3" value="" style="shape=partialRectangle;collapsible=0;dropTarget=0;pointerEvents=0;fillColor=none;points=[[0,0.5],[1,0.5]];portConstraint=eastwest;top=0;left=0;right=0;bottom=1;" parent="C-vyLk0tnHw3VtMMgP7b-2" vertex="1">
          <mxGeometry y="30" width="250" height="30" as="geometry" />
        </mxCell>
        <mxCell id="C-vyLk0tnHw3VtMMgP7b-4" value="PK" style="shape=partialRectangle;overflow=hidden;connectable=0;fillColor=none;top=0;left=0;bottom=0;right=0;fontStyle=1;" parent="C-vyLk0tnHw3VtMMgP7b-3" vertex="1">
          <mxGeometry width="30" height="30" as="geometry" />
        </mxCell>
        <mxCell id="C-vyLk0tnHw3VtMMgP7b-5" value="jurusan_id int" style="shape=partialRectangle;overflow=hidden;connectable=0;fillColor=none;top=0;left=0;bottom=0;right=0;align=left;spacingLeft=6;fontStyle=5;" parent="C-vyLk0tnHw3VtMMgP7b-3" vertex="1">
          <mxGeometry x="30" width="220" height="30" as="geometry" />
        </mxCell>
        <mxCell id="C-vyLk0tnHw3VtMMgP7b-6" value="" style="shape=partialRectangle;collapsible=0;dropTarget=0;pointerEvents=0;fillColor=none;points=[[0,0.5],[1,0.5]];portConstraint=eastwest;top=0;left=0;right=0;bottom=0;" parent="C-vyLk0tnHw3VtMMgP7b-2" vertex="1">
          <mxGeometry y="60" width="250" height="70" as="geometry" />
        </mxCell>
        <mxCell id="C-vyLk0tnHw3VtMMgP7b-7" value="FK" style="shape=partialRectangle;overflow=hidden;connectable=0;fillColor=none;top=0;left=0;bottom=0;right=0;" parent="C-vyLk0tnHw3VtMMgP7b-6" vertex="1">
          <mxGeometry width="30" height="70" as="geometry" />
        </mxCell>
        <mxCell id="C-vyLk0tnHw3VtMMgP7b-8" value="user_id int&#xa;matkul_name varchar (6) &#xa;data_modified&#xa;title&#xa;" style="shape=partialRectangle;overflow=hidden;connectable=0;fillColor=none;top=0;left=0;bottom=0;right=0;align=left;spacingLeft=6;" parent="C-vyLk0tnHw3VtMMgP7b-6" vertex="1">
          <mxGeometry x="30" width="220" height="70" as="geometry" />
        </mxCell>
        <mxCell id="0s9ulUNGyoIBabNM_9_8-1" value="jadwal" style="shape=table;startSize=30;container=1;collapsible=1;childLayout=tableLayout;fixedRows=1;rowLines=0;fontStyle=1;align=center;resizeLast=1;" vertex="1" parent="1">
          <mxGeometry x="-120" y="460" width="250" height="130" as="geometry" />
        </mxCell>
        <mxCell id="0s9ulUNGyoIBabNM_9_8-2" value="" style="shape=partialRectangle;collapsible=0;dropTarget=0;pointerEvents=0;fillColor=none;points=[[0,0.5],[1,0.5]];portConstraint=eastwest;top=0;left=0;right=0;bottom=1;" vertex="1" parent="0s9ulUNGyoIBabNM_9_8-1">
          <mxGeometry y="30" width="250" height="30" as="geometry" />
        </mxCell>
        <mxCell id="0s9ulUNGyoIBabNM_9_8-3" value="PK" style="shape=partialRectangle;overflow=hidden;connectable=0;fillColor=none;top=0;left=0;bottom=0;right=0;fontStyle=1;" vertex="1" parent="0s9ulUNGyoIBabNM_9_8-2">
          <mxGeometry width="30" height="30" as="geometry" />
        </mxCell>
        <mxCell id="0s9ulUNGyoIBabNM_9_8-4" value="sch_id int" style="shape=partialRectangle;overflow=hidden;connectable=0;fillColor=none;top=0;left=0;bottom=0;right=0;align=left;spacingLeft=6;fontStyle=5;" vertex="1" parent="0s9ulUNGyoIBabNM_9_8-2">
          <mxGeometry x="30" width="220" height="30" as="geometry" />
        </mxCell>
        <mxCell id="0s9ulUNGyoIBabNM_9_8-5" value="" style="shape=partialRectangle;collapsible=0;dropTarget=0;pointerEvents=0;fillColor=none;points=[[0,0.5],[1,0.5]];portConstraint=eastwest;top=0;left=0;right=0;bottom=0;" vertex="1" parent="0s9ulUNGyoIBabNM_9_8-1">
          <mxGeometry y="60" width="250" height="60" as="geometry" />
        </mxCell>
        <mxCell id="0s9ulUNGyoIBabNM_9_8-6" value="FK" style="shape=partialRectangle;overflow=hidden;connectable=0;fillColor=none;top=0;left=0;bottom=0;right=0;" vertex="1" parent="0s9ulUNGyoIBabNM_9_8-5">
          <mxGeometry width="30" height="60" as="geometry" />
        </mxCell>
        <mxCell id="0s9ulUNGyoIBabNM_9_8-7" value="time_start&#xa;time_end&#xa;weekday &#xa;title varchar(20)" style="shape=partialRectangle;overflow=hidden;connectable=0;fillColor=none;top=0;left=0;bottom=0;right=0;align=left;spacingLeft=6;" vertex="1" parent="0s9ulUNGyoIBabNM_9_8-5">
          <mxGeometry x="30" width="220" height="60" as="geometry" />
        </mxCell>
        <mxCell id="0s9ulUNGyoIBabNM_9_8-10" value="kalender" style="shape=table;startSize=30;container=1;collapsible=1;childLayout=tableLayout;fixedRows=1;rowLines=0;fontStyle=1;align=center;resizeLast=1;" vertex="1" parent="1">
          <mxGeometry x="240" y="450" width="250" height="130" as="geometry" />
        </mxCell>
        <mxCell id="0s9ulUNGyoIBabNM_9_8-11" value="" style="shape=partialRectangle;collapsible=0;dropTarget=0;pointerEvents=0;fillColor=none;points=[[0,0.5],[1,0.5]];portConstraint=eastwest;top=0;left=0;right=0;bottom=1;" vertex="1" parent="0s9ulUNGyoIBabNM_9_8-10">
          <mxGeometry y="30" width="250" height="30" as="geometry" />
        </mxCell>
        <mxCell id="0s9ulUNGyoIBabNM_9_8-12" value="PK" style="shape=partialRectangle;overflow=hidden;connectable=0;fillColor=none;top=0;left=0;bottom=0;right=0;fontStyle=1;" vertex="1" parent="0s9ulUNGyoIBabNM_9_8-11">
          <mxGeometry width="30" height="30" as="geometry" />
        </mxCell>
        <mxCell id="0s9ulUNGyoIBabNM_9_8-13" value="id_jam" style="shape=partialRectangle;overflow=hidden;connectable=0;fillColor=none;top=0;left=0;bottom=0;right=0;align=left;spacingLeft=6;fontStyle=5;" vertex="1" parent="0s9ulUNGyoIBabNM_9_8-11">
          <mxGeometry x="30" width="220" height="30" as="geometry" />
        </mxCell>
        <mxCell id="0s9ulUNGyoIBabNM_9_8-14" value="" style="shape=partialRectangle;collapsible=0;dropTarget=0;pointerEvents=0;fillColor=none;points=[[0,0.5],[1,0.5]];portConstraint=eastwest;top=0;left=0;right=0;bottom=0;" vertex="1" parent="0s9ulUNGyoIBabNM_9_8-10">
          <mxGeometry y="60" width="250" height="30" as="geometry" />
        </mxCell>
        <mxCell id="0s9ulUNGyoIBabNM_9_8-15" value="FK" style="shape=partialRectangle;overflow=hidden;connectable=0;fillColor=none;top=0;left=0;bottom=0;right=0;" vertex="1" parent="0s9ulUNGyoIBabNM_9_8-14">
          <mxGeometry width="30" height="30" as="geometry" />
        </mxCell>
        <mxCell id="0s9ulUNGyoIBabNM_9_8-16" value="user_id int&#xa;date_create" style="shape=partialRectangle;overflow=hidden;connectable=0;fillColor=none;top=0;left=0;bottom=0;right=0;align=left;spacingLeft=6;" vertex="1" parent="0s9ulUNGyoIBabNM_9_8-14">
          <mxGeometry x="30" width="220" height="30" as="geometry" />
        </mxCell>
        <mxCell id="0s9ulUNGyoIBabNM_9_8-17" value="" style="shape=partialRectangle;collapsible=0;dropTarget=0;pointerEvents=0;fillColor=none;points=[[0,0.5],[1,0.5]];portConstraint=eastwest;top=0;left=0;right=0;bottom=0;" vertex="1" parent="0s9ulUNGyoIBabNM_9_8-10">
          <mxGeometry y="90" width="250" height="30" as="geometry" />
        </mxCell>
        <mxCell id="0s9ulUNGyoIBabNM_9_8-18" value="" style="shape=partialRectangle;overflow=hidden;connectable=0;fillColor=none;top=0;left=0;bottom=0;right=0;" vertex="1" parent="0s9ulUNGyoIBabNM_9_8-17">
          <mxGeometry width="30" height="30" as="geometry" />
        </mxCell>
        <mxCell id="0s9ulUNGyoIBabNM_9_8-19" value="" style="shape=partialRectangle;overflow=hidden;connectable=0;fillColor=none;top=0;left=0;bottom=0;right=0;align=left;spacingLeft=6;" vertex="1" parent="0s9ulUNGyoIBabNM_9_8-17">
          <mxGeometry x="30" width="220" height="30" as="geometry" />
        </mxCell>
        <mxCell id="C-vyLk0tnHw3VtMMgP7b-13" value="matkul" style="shape=table;startSize=30;container=1;collapsible=1;childLayout=tableLayout;fixedRows=1;rowLines=0;fontStyle=1;align=center;resizeLast=1;" parent="1" vertex="1">
          <mxGeometry x="310" y="-50" width="250" height="130" as="geometry" />
        </mxCell>
        <mxCell id="C-vyLk0tnHw3VtMMgP7b-14" value="" style="shape=partialRectangle;collapsible=0;dropTarget=0;pointerEvents=0;fillColor=none;points=[[0,0.5],[1,0.5]];portConstraint=eastwest;top=0;left=0;right=0;bottom=1;" parent="C-vyLk0tnHw3VtMMgP7b-13" vertex="1">
          <mxGeometry y="30" width="250" height="30" as="geometry" />
        </mxCell>
        <mxCell id="C-vyLk0tnHw3VtMMgP7b-15" value="PK" style="shape=partialRectangle;overflow=hidden;connectable=0;fillColor=none;top=0;left=0;bottom=0;right=0;fontStyle=1;" parent="C-vyLk0tnHw3VtMMgP7b-14" vertex="1">
          <mxGeometry width="30" height="30" as="geometry" />
        </mxCell>
        <mxCell id="C-vyLk0tnHw3VtMMgP7b-16" value="matkul_id int" style="shape=partialRectangle;overflow=hidden;connectable=0;fillColor=none;top=0;left=0;bottom=0;right=0;align=left;spacingLeft=6;fontStyle=5;" parent="C-vyLk0tnHw3VtMMgP7b-14" vertex="1">
          <mxGeometry x="30" width="220" height="30" as="geometry" />
        </mxCell>
        <mxCell id="C-vyLk0tnHw3VtMMgP7b-17" value="" style="shape=partialRectangle;collapsible=0;dropTarget=0;pointerEvents=0;fillColor=none;points=[[0,0.5],[1,0.5]];portConstraint=eastwest;top=0;left=0;right=0;bottom=0;" parent="C-vyLk0tnHw3VtMMgP7b-13" vertex="1">
          <mxGeometry y="60" width="250" height="60" as="geometry" />
        </mxCell>
        <mxCell id="C-vyLk0tnHw3VtMMgP7b-18" value="FK" style="shape=partialRectangle;overflow=hidden;connectable=0;fillColor=none;top=0;left=0;bottom=0;right=0;" parent="C-vyLk0tnHw3VtMMgP7b-17" vertex="1">
          <mxGeometry width="30" height="60" as="geometry" />
        </mxCell>
        <mxCell id="C-vyLk0tnHw3VtMMgP7b-19" value="jurusan_id int&#xa;user_id int&#xa;date_create" style="shape=partialRectangle;overflow=hidden;connectable=0;fillColor=none;top=0;left=0;bottom=0;right=0;align=left;spacingLeft=6;" parent="C-vyLk0tnHw3VtMMgP7b-17" vertex="1">
          <mxGeometry x="30" width="220" height="60" as="geometry" />
        </mxCell>
        <mxCell id="C-vyLk0tnHw3VtMMgP7b-23" value="Mahasiswa" style="shape=table;startSize=30;container=1;collapsible=1;childLayout=tableLayout;fixedRows=1;rowLines=0;fontStyle=1;align=center;resizeLast=1;" parent="1" vertex="1">
          <mxGeometry x="110" y="190" width="250" height="140" as="geometry" />
        </mxCell>
        <mxCell id="C-vyLk0tnHw3VtMMgP7b-24" value="" style="shape=partialRectangle;collapsible=0;dropTarget=0;pointerEvents=0;fillColor=none;points=[[0,0.5],[1,0.5]];portConstraint=eastwest;top=0;left=0;right=0;bottom=1;" parent="C-vyLk0tnHw3VtMMgP7b-23" vertex="1">
          <mxGeometry y="30" width="250" height="30" as="geometry" />
        </mxCell>
        <mxCell id="C-vyLk0tnHw3VtMMgP7b-25" value="PK" style="shape=partialRectangle;overflow=hidden;connectable=0;fillColor=none;top=0;left=0;bottom=0;right=0;fontStyle=1;" parent="C-vyLk0tnHw3VtMMgP7b-24" vertex="1">
          <mxGeometry width="30" height="30" as="geometry" />
        </mxCell>
        <mxCell id="C-vyLk0tnHw3VtMMgP7b-26" value="user_id int" style="shape=partialRectangle;overflow=hidden;connectable=0;fillColor=none;top=0;left=0;bottom=0;right=0;align=left;spacingLeft=6;fontStyle=5;" parent="C-vyLk0tnHw3VtMMgP7b-24" vertex="1">
          <mxGeometry x="30" width="220" height="30" as="geometry" />
        </mxCell>
        <mxCell id="C-vyLk0tnHw3VtMMgP7b-27" value="" style="shape=partialRectangle;collapsible=0;dropTarget=0;pointerEvents=0;fillColor=none;points=[[0,0.5],[1,0.5]];portConstraint=eastwest;top=0;left=0;right=0;bottom=0;" parent="C-vyLk0tnHw3VtMMgP7b-23" vertex="1">
          <mxGeometry y="60" width="250" height="80" as="geometry" />
        </mxCell>
        <mxCell id="C-vyLk0tnHw3VtMMgP7b-28" value="FK" style="shape=partialRectangle;overflow=hidden;connectable=0;fillColor=none;top=0;left=0;bottom=0;right=0;" parent="C-vyLk0tnHw3VtMMgP7b-27" vertex="1">
          <mxGeometry width="30" height="80" as="geometry" />
        </mxCell>
        <mxCell id="C-vyLk0tnHw3VtMMgP7b-29" value="Kelas_ID int&#xa;first_name  varchar (30)&#xa;last_name  varchar (30)&#xa;email varchar (50)&#xa;pass varchar (50)" style="shape=partialRectangle;overflow=hidden;connectable=0;fillColor=none;top=0;left=0;bottom=0;right=0;align=left;spacingLeft=6;" parent="C-vyLk0tnHw3VtMMgP7b-27" vertex="1">
          <mxGeometry x="30" width="220" height="80" as="geometry" />
        </mxCell>
        <mxCell id="0s9ulUNGyoIBabNM_9_8-30" value="Dosen" style="shape=table;startSize=30;container=1;collapsible=1;childLayout=tableLayout;fixedRows=1;rowLines=0;fontStyle=1;align=center;resizeLast=1;" vertex="1" parent="1">
          <mxGeometry x="470" y="110" width="250" height="140" as="geometry" />
        </mxCell>
        <mxCell id="0s9ulUNGyoIBabNM_9_8-31" value="" style="shape=partialRectangle;collapsible=0;dropTarget=0;pointerEvents=0;fillColor=none;points=[[0,0.5],[1,0.5]];portConstraint=eastwest;top=0;left=0;right=0;bottom=1;" vertex="1" parent="0s9ulUNGyoIBabNM_9_8-30">
          <mxGeometry y="30" width="250" height="30" as="geometry" />
        </mxCell>
        <mxCell id="0s9ulUNGyoIBabNM_9_8-32" value="PK" style="shape=partialRectangle;overflow=hidden;connectable=0;fillColor=none;top=0;left=0;bottom=0;right=0;fontStyle=1;" vertex="1" parent="0s9ulUNGyoIBabNM_9_8-31">
          <mxGeometry width="30" height="30" as="geometry" />
        </mxCell>
        <mxCell id="0s9ulUNGyoIBabNM_9_8-33" value="Dosen_id Int" style="shape=partialRectangle;overflow=hidden;connectable=0;fillColor=none;top=0;left=0;bottom=0;right=0;align=left;spacingLeft=6;fontStyle=5;" vertex="1" parent="0s9ulUNGyoIBabNM_9_8-31">
          <mxGeometry x="30" width="220" height="30" as="geometry" />
        </mxCell>
        <mxCell id="0s9ulUNGyoIBabNM_9_8-34" value="" style="shape=partialRectangle;collapsible=0;dropTarget=0;pointerEvents=0;fillColor=none;points=[[0,0.5],[1,0.5]];portConstraint=eastwest;top=0;left=0;right=0;bottom=0;" vertex="1" parent="0s9ulUNGyoIBabNM_9_8-30">
          <mxGeometry y="60" width="250" height="80" as="geometry" />
        </mxCell>
        <mxCell id="0s9ulUNGyoIBabNM_9_8-35" value="FK" style="shape=partialRectangle;overflow=hidden;connectable=0;fillColor=none;top=0;left=0;bottom=0;right=0;" vertex="1" parent="0s9ulUNGyoIBabNM_9_8-34">
          <mxGeometry width="30" height="80" as="geometry" />
        </mxCell>
        <mxCell id="0s9ulUNGyoIBabNM_9_8-36" value="Kelas_ID int&#xa;first_name  varchar (30)&#xa;last_name  varchar (30)&#xa;email varchar (50)&#xa;pass varchar (50)" style="shape=partialRectangle;overflow=hidden;connectable=0;fillColor=none;top=0;left=0;bottom=0;right=0;align=left;spacingLeft=6;" vertex="1" parent="0s9ulUNGyoIBabNM_9_8-34">
          <mxGeometry x="30" width="220" height="80" as="geometry" />
        </mxCell>
        <mxCell id="0s9ulUNGyoIBabNM_9_8-37" value="Guest" style="shape=table;startSize=30;container=1;collapsible=1;childLayout=tableLayout;fixedRows=1;rowLines=0;fontStyle=1;align=center;resizeLast=1;" vertex="1" parent="1">
          <mxGeometry x="480" y="280" width="250" height="140" as="geometry" />
        </mxCell>
        <mxCell id="0s9ulUNGyoIBabNM_9_8-38" value="" style="shape=partialRectangle;collapsible=0;dropTarget=0;pointerEvents=0;fillColor=none;points=[[0,0.5],[1,0.5]];portConstraint=eastwest;top=0;left=0;right=0;bottom=1;" vertex="1" parent="0s9ulUNGyoIBabNM_9_8-37">
          <mxGeometry y="30" width="250" height="30" as="geometry" />
        </mxCell>
        <mxCell id="0s9ulUNGyoIBabNM_9_8-39" value="PK" style="shape=partialRectangle;overflow=hidden;connectable=0;fillColor=none;top=0;left=0;bottom=0;right=0;fontStyle=1;" vertex="1" parent="0s9ulUNGyoIBabNM_9_8-38">
          <mxGeometry width="30" height="30" as="geometry" />
        </mxCell>
        <mxCell id="0s9ulUNGyoIBabNM_9_8-40" value="user_id int" style="shape=partialRectangle;overflow=hidden;connectable=0;fillColor=none;top=0;left=0;bottom=0;right=0;align=left;spacingLeft=6;fontStyle=5;" vertex="1" parent="0s9ulUNGyoIBabNM_9_8-38">
          <mxGeometry x="30" width="220" height="30" as="geometry" />
        </mxCell>
        <mxCell id="0s9ulUNGyoIBabNM_9_8-41" value="" style="shape=partialRectangle;collapsible=0;dropTarget=0;pointerEvents=0;fillColor=none;points=[[0,0.5],[1,0.5]];portConstraint=eastwest;top=0;left=0;right=0;bottom=0;" vertex="1" parent="0s9ulUNGyoIBabNM_9_8-37">
          <mxGeometry y="60" width="250" height="80" as="geometry" />
        </mxCell>
        <mxCell id="0s9ulUNGyoIBabNM_9_8-42" value="FK" style="shape=partialRectangle;overflow=hidden;connectable=0;fillColor=none;top=0;left=0;bottom=0;right=0;" vertex="1" parent="0s9ulUNGyoIBabNM_9_8-41">
          <mxGeometry width="30" height="80" as="geometry" />
        </mxCell>
        <mxCell id="0s9ulUNGyoIBabNM_9_8-43" value="Kelas_ID int&#xa;first_name  varchar (30)&#xa;last_name  varchar (30)&#xa;email varchar (50)&#xa;pass varchar (50)" style="shape=partialRectangle;overflow=hidden;connectable=0;fillColor=none;top=0;left=0;bottom=0;right=0;align=left;spacingLeft=6;" vertex="1" parent="0s9ulUNGyoIBabNM_9_8-41">
          <mxGeometry x="30" width="220" height="80" as="geometry" />
        </mxCell>
      </root>
    </mxGraphModel>
  </diagram>
</mxfile>
